<svg width="1363" height="163" viewBox="0 0 1363 163" fill="none" xmlns="http://www.w3.org/2000/svg">
<path d="M0 15C0 6.71573 6.71573 0 15 0H37V163H15C6.71573 163 0 156.284 0 148V15Z" fill="#424242"/>
<rect width="1097" height="163" transform="translate(37)" fill="#F0F0F0"/>
<path d="M101.906 53.9219L94.3945 51.2383V48.0859L104.602 52.375V54.6367L101.906 53.9219ZM94.3945 56.1719L101.918 53.4297L104.602 52.7852V55.0352L94.3945 59.3242V56.1719ZM119.895 43.9375V61H116.391V43.9375H119.895ZM125.145 43.9375V46.6914H111.223V43.9375H125.145ZM124.359 54.7891V54.543C124.359 53.6133 124.492 52.7578 124.758 51.9766C125.023 51.1875 125.41 50.5039 125.918 49.9258C126.426 49.3477 127.051 48.8984 127.793 48.5781C128.535 48.25 129.387 48.0859 130.348 48.0859C131.309 48.0859 132.164 48.25 132.914 48.5781C133.664 48.8984 134.293 49.3477 134.801 49.9258C135.316 50.5039 135.707 51.1875 135.973 51.9766C136.238 52.7578 136.371 53.6133 136.371 54.543V54.7891C136.371 55.7109 136.238 56.5664 135.973 57.3555C135.707 58.1367 135.316 58.8203 134.801 59.4062C134.293 59.9844 133.668 60.4336 132.926 60.7539C132.184 61.0742 131.332 61.2344 130.371 61.2344C129.41 61.2344 128.555 61.0742 127.805 60.7539C127.062 60.4336 126.434 59.9844 125.918 59.4062C125.41 58.8203 125.023 58.1367 124.758 57.3555C124.492 56.5664 124.359 55.7109 124.359 54.7891ZM127.734 54.543V54.7891C127.734 55.3203 127.781 55.8164 127.875 56.2773C127.969 56.7383 128.117 57.1445 128.32 57.4961C128.531 57.8398 128.805 58.1094 129.141 58.3047C129.477 58.5 129.887 58.5977 130.371 58.5977C130.84 58.5977 131.242 58.5 131.578 58.3047C131.914 58.1094 132.184 57.8398 132.387 57.4961C132.59 57.1445 132.738 56.7383 132.832 56.2773C132.934 55.8164 132.984 55.3203 132.984 54.7891V54.543C132.984 54.0273 132.934 53.543 132.832 53.0898C132.738 52.6289 132.586 52.2227 132.375 51.8711C132.172 51.5117 131.902 51.2305 131.566 51.0273C131.23 50.8242 130.824 50.7227 130.348 50.7227C129.871 50.7227 129.465 50.8242 129.129 51.0273C128.801 51.2305 128.531 51.5117 128.32 51.8711C128.117 52.2227 127.969 52.6289 127.875 53.0898C127.781 53.543 127.734 54.0273 127.734 54.543ZM145.934 58.2344V43H149.332V61H146.273L145.934 58.2344ZM137.918 54.8125V54.5664C137.918 53.5977 138.027 52.7188 138.246 51.9297C138.465 51.1328 138.785 50.4492 139.207 49.8789C139.629 49.3086 140.148 48.8672 140.766 48.5547C141.383 48.2422 142.086 48.0859 142.875 48.0859C143.617 48.0859 144.266 48.2422 144.82 48.5547C145.383 48.8672 145.859 49.3125 146.25 49.8906C146.648 50.4609 146.969 51.1367 147.211 51.918C147.453 52.6914 147.629 53.5391 147.738 54.4609V55C147.629 55.8828 147.453 56.7031 147.211 57.4609C146.969 58.2188 146.648 58.8828 146.25 59.4531C145.859 60.0156 145.383 60.4531 144.82 60.7656C144.258 61.0781 143.602 61.2344 142.852 61.2344C142.062 61.2344 141.359 61.0742 140.742 60.7539C140.133 60.4336 139.617 59.9844 139.195 59.4062C138.781 58.8281 138.465 58.1484 138.246 57.3672C138.027 56.5859 137.918 55.7344 137.918 54.8125ZM141.293 54.5664V54.8125C141.293 55.3359 141.332 55.8242 141.41 56.2773C141.496 56.7305 141.633 57.1328 141.82 57.4844C142.016 57.8281 142.266 58.0977 142.57 58.293C142.883 58.4805 143.262 58.5742 143.707 58.5742C144.285 58.5742 144.762 58.4453 145.137 58.1875C145.512 57.9219 145.797 57.5586 145.992 57.0977C146.195 56.6367 146.312 56.1055 146.344 55.5039V53.9688C146.32 53.4766 146.25 53.0352 146.133 52.6445C146.023 52.2461 145.859 51.9062 145.641 51.625C145.43 51.3438 145.164 51.125 144.844 50.9688C144.531 50.8125 144.16 50.7344 143.73 50.7344C143.293 50.7344 142.918 50.8359 142.605 51.0391C142.293 51.2344 142.039 51.5039 141.844 51.8477C141.656 52.1914 141.516 52.5977 141.422 53.0664C141.336 53.5273 141.293 54.0273 141.293 54.5664ZM151.43 54.7891V54.543C151.43 53.6133 151.562 52.7578 151.828 51.9766C152.094 51.1875 152.48 50.5039 152.988 49.9258C153.496 49.3477 154.121 48.8984 154.863 48.5781C155.605 48.25 156.457 48.0859 157.418 48.0859C158.379 48.0859 159.234 48.25 159.984 48.5781C160.734 48.8984 161.363 49.3477 161.871 49.9258C162.387 50.5039 162.777 51.1875 163.043 51.9766C163.309 52.7578 163.441 53.6133 163.441 54.543V54.7891C163.441 55.7109 163.309 56.5664 163.043 57.3555C162.777 58.1367 162.387 58.8203 161.871 59.4062C161.363 59.9844 160.738 60.4336 159.996 60.7539C159.254 61.0742 158.402 61.2344 157.441 61.2344C156.48 61.2344 155.625 61.0742 154.875 60.7539C154.133 60.4336 153.504 59.9844 152.988 59.4062C152.48 58.8203 152.094 58.1367 151.828 57.3555C151.562 56.5664 151.43 55.7109 151.43 54.7891ZM154.805 54.543V54.7891C154.805 55.3203 154.852 55.8164 154.945 56.2773C155.039 56.7383 155.188 57.1445 155.391 57.4961C155.602 57.8398 155.875 58.1094 156.211 58.3047C156.547 58.5 156.957 58.5977 157.441 58.5977C157.91 58.5977 158.312 58.5 158.648 58.3047C158.984 58.1094 159.254 57.8398 159.457 57.4961C159.66 57.1445 159.809 56.7383 159.902 56.2773C160.004 55.8164 160.055 55.3203 160.055 54.7891V54.543C160.055 54.0273 160.004 53.543 159.902 53.0898C159.809 52.6289 159.656 52.2227 159.445 51.8711C159.242 51.5117 158.973 51.2305 158.637 51.0273C158.301 50.8242 157.895 50.7227 157.418 50.7227C156.941 50.7227 156.535 50.8242 156.199 51.0273C155.871 51.2305 155.602 51.5117 155.391 51.8711C155.188 52.2227 155.039 52.6289 154.945 53.0898C154.852 53.543 154.805 54.0273 154.805 54.543ZM178.641 46.8555L174 61H170.262L176.602 43.9375H178.98L178.641 46.8555ZM182.496 61L177.844 46.8555L177.469 43.9375H179.871L186.246 61H182.496ZM182.285 54.6484V57.4023H173.273V54.6484H182.285ZM190.617 50.7578V65.875H187.242V48.3203H190.371L190.617 50.7578ZM198.645 54.5195V54.7656C198.645 55.6875 198.535 56.543 198.316 57.332C198.105 58.1211 197.793 58.8086 197.379 59.3945C196.965 59.9727 196.449 60.4258 195.832 60.7539C195.223 61.0742 194.52 61.2344 193.723 61.2344C192.949 61.2344 192.277 61.0781 191.707 60.7656C191.137 60.4531 190.656 60.0156 190.266 59.4531C189.883 58.8828 189.574 58.2227 189.34 57.4727C189.105 56.7227 188.926 55.918 188.801 55.0586V54.4141C188.926 53.4922 189.105 52.6484 189.34 51.8828C189.574 51.1094 189.883 50.4414 190.266 49.8789C190.656 49.3086 191.133 48.8672 191.695 48.5547C192.266 48.2422 192.934 48.0859 193.699 48.0859C194.504 48.0859 195.211 48.2383 195.82 48.543C196.438 48.8477 196.953 49.2852 197.367 49.8555C197.789 50.4258 198.105 51.1055 198.316 51.8945C198.535 52.6836 198.645 53.5586 198.645 54.5195ZM195.258 54.7656V54.5195C195.258 53.9805 195.211 53.4844 195.117 53.0312C195.031 52.5703 194.891 52.168 194.695 51.8242C194.508 51.4805 194.258 51.2148 193.945 51.0273C193.641 50.832 193.27 50.7344 192.832 50.7344C192.371 50.7344 191.977 50.8086 191.648 50.957C191.328 51.1055 191.066 51.3203 190.863 51.6016C190.66 51.8828 190.508 52.2188 190.406 52.6094C190.305 53 190.242 53.4414 190.219 53.9336V55.5625C190.258 56.1406 190.367 56.6602 190.547 57.1211C190.727 57.5742 191.004 57.9336 191.379 58.1992C191.754 58.4648 192.246 58.5977 192.855 58.5977C193.301 58.5977 193.676 58.5 193.98 58.3047C194.285 58.1016 194.531 57.8242 194.719 57.4727C194.914 57.1211 195.051 56.7148 195.129 56.2539C195.215 55.793 195.258 55.2969 195.258 54.7656ZM204.117 50.7578V65.875H200.742V48.3203H203.871L204.117 50.7578ZM212.145 54.5195V54.7656C212.145 55.6875 212.035 56.543 211.816 57.332C211.605 58.1211 211.293 58.8086 210.879 59.3945C210.465 59.9727 209.949 60.4258 209.332 60.7539C208.723 61.0742 208.02 61.2344 207.223 61.2344C206.449 61.2344 205.777 61.0781 205.207 60.7656C204.637 60.4531 204.156 60.0156 203.766 59.4531C203.383 58.8828 203.074 58.2227 202.84 57.4727C202.605 56.7227 202.426 55.918 202.301 55.0586V54.4141C202.426 53.4922 202.605 52.6484 202.84 51.8828C203.074 51.1094 203.383 50.4414 203.766 49.8789C204.156 49.3086 204.633 48.8672 205.195 48.5547C205.766 48.2422 206.434 48.0859 207.199 48.0859C208.004 48.0859 208.711 48.2383 209.32 48.543C209.938 48.8477 210.453 49.2852 210.867 49.8555C211.289 50.4258 211.605 51.1055 211.816 51.8945C212.035 52.6836 212.145 53.5586 212.145 54.5195ZM208.758 54.7656V54.5195C208.758 53.9805 208.711 53.4844 208.617 53.0312C208.531 52.5703 208.391 52.168 208.195 51.8242C208.008 51.4805 207.758 51.2148 207.445 51.0273C207.141 50.832 206.77 50.7344 206.332 50.7344C205.871 50.7344 205.477 50.8086 205.148 50.957C204.828 51.1055 204.566 51.3203 204.363 51.6016C204.16 51.8828 204.008 52.2188 203.906 52.6094C203.805 53 203.742 53.4414 203.719 53.9336V55.5625C203.758 56.1406 203.867 56.6602 204.047 57.1211C204.227 57.5742 204.504 57.9336 204.879 58.1992C205.254 58.4648 205.746 58.5977 206.355 58.5977C206.801 58.5977 207.176 58.5 207.48 58.3047C207.785 58.1016 208.031 57.8242 208.219 57.4727C208.414 57.1211 208.551 56.7148 208.629 56.2539C208.715 55.793 208.758 55.2969 208.758 54.7656Z" fill="#888888"/>
<path d="M118.594 98.4219V104.75H101.086V98.4219H118.594ZM103.828 84.875V119H95.6016V84.875H103.828ZM124.125 84.875V119H115.922V84.875H124.125ZM127.992 106.578V106.086C127.992 104.227 128.258 102.516 128.789 100.953C129.32 99.375 130.102 98.0078 131.133 96.8516C132.164 95.6953 133.438 94.7969 134.953 94.1562C136.469 93.5 138.219 93.1719 140.203 93.1719C142.203 93.1719 143.961 93.5 145.477 94.1562C147.008 94.7969 148.289 95.6953 149.32 96.8516C150.352 98.0078 151.133 99.375 151.664 100.953C152.195 102.516 152.461 104.227 152.461 106.086V106.578C152.461 108.422 152.195 110.133 151.664 111.711C151.133 113.273 150.352 114.641 149.32 115.812C148.289 116.969 147.016 117.867 145.5 118.508C143.984 119.148 142.234 119.469 140.25 119.469C138.266 119.469 136.508 119.148 134.977 118.508C133.445 117.867 132.164 116.969 131.133 115.812C130.102 114.641 129.32 113.273 128.789 111.711C128.258 110.133 127.992 108.422 127.992 106.578ZM135.891 106.086V106.578C135.891 107.531 135.961 108.422 136.102 109.25C136.242 110.078 136.477 110.805 136.805 111.43C137.133 112.039 137.578 112.516 138.141 112.859C138.703 113.203 139.406 113.375 140.25 113.375C141.078 113.375 141.766 113.203 142.312 112.859C142.875 112.516 143.32 112.039 143.648 111.43C143.977 110.805 144.211 110.078 144.352 109.25C144.492 108.422 144.562 107.531 144.562 106.578V106.086C144.562 105.164 144.492 104.297 144.352 103.484C144.211 102.656 143.977 101.93 143.648 101.305C143.32 100.664 142.875 100.164 142.312 99.8047C141.75 99.4453 141.047 99.2656 140.203 99.2656C139.375 99.2656 138.68 99.4453 138.117 99.8047C137.57 100.164 137.133 100.664 136.805 101.305C136.477 101.93 136.242 102.656 136.102 103.484C135.961 104.297 135.891 105.164 135.891 106.086ZM163.688 111.453L168.375 93.6406H173.32L171.562 102.57L166.922 119H162.961L163.688 111.453ZM161.836 93.6406L164.742 111.312L165.07 119H160.266L154.266 93.6406H161.836ZM177.492 110.938L180.422 93.6406H187.992L182.039 119H177.234L177.492 110.938ZM173.883 93.6406L178.617 111.406L179.344 119H175.336L170.789 102.617L169.102 93.6406H173.883ZM218.297 84.875V119H210.07V84.875H218.297ZM228.562 84.875V91.2266H200.039V84.875H228.562ZM225.773 106.578V106.086C225.773 104.227 226.039 102.516 226.57 100.953C227.102 99.375 227.883 98.0078 228.914 96.8516C229.945 95.6953 231.219 94.7969 232.734 94.1562C234.25 93.5 236 93.1719 237.984 93.1719C239.984 93.1719 241.742 93.5 243.258 94.1562C244.789 94.7969 246.07 95.6953 247.102 96.8516C248.133 98.0078 248.914 99.375 249.445 100.953C249.977 102.516 250.242 104.227 250.242 106.086V106.578C250.242 108.422 249.977 110.133 249.445 111.711C248.914 113.273 248.133 114.641 247.102 115.812C246.07 116.969 244.797 117.867 243.281 118.508C241.766 119.148 240.016 119.469 238.031 119.469C236.047 119.469 234.289 119.148 232.758 118.508C231.227 117.867 229.945 116.969 228.914 115.812C227.883 114.641 227.102 113.273 226.57 111.711C226.039 110.133 225.773 108.422 225.773 106.578ZM233.672 106.086V106.578C233.672 107.531 233.742 108.422 233.883 109.25C234.023 110.078 234.258 110.805 234.586 111.43C234.914 112.039 235.359 112.516 235.922 112.859C236.484 113.203 237.188 113.375 238.031 113.375C238.859 113.375 239.547 113.203 240.094 112.859C240.656 112.516 241.102 112.039 241.43 111.43C241.758 110.805 241.992 110.078 242.133 109.25C242.273 108.422 242.344 107.531 242.344 106.578V106.086C242.344 105.164 242.273 104.297 242.133 103.484C241.992 102.656 241.758 101.93 241.43 101.305C241.102 100.664 240.656 100.164 240.094 99.8047C239.531 99.4453 238.828 99.2656 237.984 99.2656C237.156 99.2656 236.461 99.4453 235.898 99.8047C235.352 100.164 234.914 100.664 234.586 101.305C234.258 101.93 234.023 102.656 233.883 103.484C233.742 104.297 233.672 105.164 233.672 106.086ZM266.086 84.875H279.516C282.141 84.875 284.422 85.2656 286.359 86.0469C288.297 86.8281 289.789 87.9844 290.836 89.5156C291.898 91.0469 292.43 92.9375 292.43 95.1875C292.43 97.1406 292.125 98.7734 291.516 100.086C290.906 101.398 290.055 102.484 288.961 103.344C287.883 104.188 286.625 104.883 285.188 105.43L282.492 106.953H271.219L271.172 100.602H279.516C280.562 100.602 281.43 100.414 282.117 100.039C282.805 99.6641 283.32 99.1328 283.664 98.4453C284.023 97.7422 284.203 96.9062 284.203 95.9375C284.203 94.9531 284.023 94.1094 283.664 93.4062C283.305 92.7031 282.773 92.1641 282.07 91.7891C281.383 91.4141 280.531 91.2266 279.516 91.2266H274.312V119H266.086V84.875ZM284.766 119L277.219 103.906L285.938 103.859L293.578 118.648V119H284.766ZM311.836 112.836V93.6406H319.758V119H312.352L311.836 112.836ZM312.586 107.68L314.648 107.633C314.648 109.336 314.445 110.914 314.039 112.367C313.633 113.805 313.031 115.055 312.234 116.117C311.453 117.18 310.484 118.008 309.328 118.602C308.188 119.18 306.867 119.469 305.367 119.469C304.117 119.469 302.969 119.297 301.922 118.953C300.891 118.594 300 118.039 299.25 117.289C298.5 116.523 297.914 115.547 297.492 114.359C297.086 113.156 296.883 111.719 296.883 110.047V93.6406H304.781V110.094C304.781 110.656 304.852 111.141 304.992 111.547C305.133 111.953 305.336 112.297 305.602 112.578C305.867 112.844 306.195 113.047 306.586 113.188C306.992 113.312 307.453 113.375 307.969 113.375C309.156 113.375 310.086 113.125 310.758 112.625C311.43 112.125 311.898 111.445 312.164 110.586C312.445 109.727 312.586 108.758 312.586 107.68ZM331.875 99.0547V119H323.977V93.6406H331.383L331.875 99.0547ZM330.938 105.453L329.086 105.5C329.086 103.562 329.32 101.836 329.789 100.32C330.258 98.7891 330.922 97.4922 331.781 96.4297C332.641 95.3672 333.664 94.5625 334.852 94.0156C336.055 93.4531 337.391 93.1719 338.859 93.1719C340.031 93.1719 341.102 93.3438 342.07 93.6875C343.055 94.0312 343.898 94.5859 344.602 95.3516C345.32 96.1172 345.867 97.1328 346.242 98.3984C346.633 99.6484 346.828 101.195 346.828 103.039V119H338.883V103.016C338.883 102 338.742 101.227 338.461 100.695C338.18 100.148 337.773 99.7734 337.242 99.5703C336.711 99.3672 336.062 99.2656 335.297 99.2656C334.484 99.2656 333.797 99.4219 333.234 99.7344C332.672 100.047 332.219 100.484 331.875 101.047C331.547 101.594 331.305 102.242 331.148 102.992C331.008 103.742 330.938 104.562 330.938 105.453ZM363.773 108.195H357.047C357.047 106.82 357.141 105.609 357.328 104.562C357.531 103.5 357.875 102.547 358.359 101.703C358.844 100.859 359.5 100.078 360.328 99.3594C361.062 98.75 361.695 98.1641 362.227 97.6016C362.758 97.0391 363.164 96.4688 363.445 95.8906C363.727 95.3125 363.867 94.6953 363.867 94.0391C363.867 93.2266 363.75 92.5625 363.516 92.0469C363.297 91.5312 362.961 91.1484 362.508 90.8984C362.07 90.6328 361.516 90.5 360.844 90.5C360.297 90.5 359.781 90.6328 359.297 90.8984C358.828 91.1641 358.445 91.5781 358.148 92.1406C357.852 92.6875 357.688 93.4141 357.656 94.3203H349.711C349.758 91.9922 350.273 90.1016 351.258 88.6484C352.258 87.1797 353.586 86.1094 355.242 85.4375C356.914 84.75 358.781 84.4062 360.844 84.4062C363.125 84.4062 365.086 84.7578 366.727 85.4609C368.367 86.1641 369.625 87.2109 370.5 88.6016C371.375 89.9766 371.812 91.6719 371.812 93.6875C371.812 95.0312 371.555 96.2031 371.039 97.2031C370.539 98.1875 369.859 99.1094 369 99.9688C368.156 100.812 367.211 101.719 366.164 102.688C365.258 103.484 364.641 104.297 364.312 105.125C363.984 105.938 363.805 106.961 363.773 108.195ZM356.086 115.32C356.086 114.195 356.492 113.258 357.305 112.508C358.117 111.742 359.172 111.359 360.469 111.359C361.766 111.359 362.82 111.742 363.633 112.508C364.445 113.258 364.852 114.195 364.852 115.32C364.852 116.445 364.445 117.391 363.633 118.156C362.82 118.906 361.766 119.281 360.469 119.281C359.172 119.281 358.117 118.906 357.305 118.156C356.492 117.391 356.086 116.445 356.086 115.32Z" fill="black"/>
<path d="M1134 0H1348C1356.28 0 1363 6.71573 1363 15V148C1363 156.284 1356.28 163 1348 163H1134V0Z" fill="#1A96E3"/>
<path d="M1260.62 78.8078C1263.81 78.8078 1266.93 79.7552 1269.59 81.5302C1272.25 83.3052 1274.32 85.8281 1275.54 88.7798C1276.76 91.7315 1277.08 94.9795 1276.46 98.1131C1275.84 101.247 1274.3 104.125 1272.04 106.384C1269.78 108.643 1266.9 110.182 1263.77 110.805C1260.63 111.428 1257.39 111.108 1254.43 109.886C1251.48 108.663 1248.96 106.593 1247.18 103.936C1245.41 101.28 1244.46 98.1565 1244.46 94.9616C1244.46 90.6774 1246.16 86.5686 1249.19 83.5392C1252.22 80.5097 1256.33 78.8078 1260.62 78.8078ZM1260.62 73.4232C1256.36 73.4232 1252.19 74.6864 1248.65 77.0531C1245.11 79.4198 1242.35 82.7836 1240.72 86.7192C1239.09 90.6549 1238.66 94.9855 1239.49 99.1636C1240.32 103.342 1242.37 107.179 1245.39 110.192C1248.4 113.204 1252.24 115.255 1256.41 116.086C1260.59 116.917 1264.92 116.491 1268.86 114.861C1272.79 113.23 1276.16 110.47 1278.52 106.928C1280.89 103.386 1282.15 99.2215 1282.15 94.9616C1282.15 89.2493 1279.88 83.7709 1275.85 79.7317C1271.81 75.6924 1266.33 73.4232 1260.62 73.4232Z" fill="white"/>
<path d="M1274.08 46.4999H1220.23C1218.8 46.4999 1217.43 47.0672 1216.42 48.0771C1215.41 49.0869 1214.85 50.4565 1214.85 51.8845V105.731C1214.85 107.159 1215.41 108.528 1216.42 109.538C1217.43 110.548 1218.8 111.115 1220.23 111.115H1231V105.731H1220.23V68.0383H1279.46V51.8845C1279.46 50.4565 1278.89 49.0869 1277.88 48.0771C1276.87 47.0672 1275.5 46.4999 1274.08 46.4999ZM1220.23 62.6537V51.8845H1274.08V62.6537H1220.23Z" fill="white"/>
<path d="M1255.23 86.8848V103.039L1268.69 94.9617L1255.23 86.8848Z" fill="white"/>
</svg>
