<svg width="1363" height="163" viewBox="0 0 1363 163" fill="none" xmlns="http://www.w3.org/2000/svg">
<path d="M0 15C0 6.71573 6.71573 0 15 0H37V163H15C6.71573 163 0 156.284 0 148V15Z" fill="#424242"/>
<rect width="1097" height="163" transform="translate(37)" fill="#F0F0F0"/>
<path d="M101.906 53.9219L94.3945 51.2383V48.0859L104.602 52.375V54.6367L101.906 53.9219ZM94.3945 56.1719L101.918 53.4297L104.602 52.7852V55.0352L94.3945 59.3242V56.1719ZM119.895 43.9375V61H116.391V43.9375H119.895ZM125.145 43.9375V46.6914H111.223V43.9375H125.145ZM124.359 54.7891V54.543C124.359 53.6133 124.492 52.7578 124.758 51.9766C125.023 51.1875 125.41 50.5039 125.918 49.9258C126.426 49.3477 127.051 48.8984 127.793 48.5781C128.535 48.25 129.387 48.0859 130.348 48.0859C131.309 48.0859 132.164 48.25 132.914 48.5781C133.664 48.8984 134.293 49.3477 134.801 49.9258C135.316 50.5039 135.707 51.1875 135.973 51.9766C136.238 52.7578 136.371 53.6133 136.371 54.543V54.7891C136.371 55.7109 136.238 56.5664 135.973 57.3555C135.707 58.1367 135.316 58.8203 134.801 59.4062C134.293 59.9844 133.668 60.4336 132.926 60.7539C132.184 61.0742 131.332 61.2344 130.371 61.2344C129.41 61.2344 128.555 61.0742 127.805 60.7539C127.062 60.4336 126.434 59.9844 125.918 59.4062C125.41 58.8203 125.023 58.1367 124.758 57.3555C124.492 56.5664 124.359 55.7109 124.359 54.7891ZM127.734 54.543V54.7891C127.734 55.3203 127.781 55.8164 127.875 56.2773C127.969 56.7383 128.117 57.1445 128.32 57.4961C128.531 57.8398 128.805 58.1094 129.141 58.3047C129.477 58.5 129.887 58.5977 130.371 58.5977C130.84 58.5977 131.242 58.5 131.578 58.3047C131.914 58.1094 132.184 57.8398 132.387 57.4961C132.59 57.1445 132.738 56.7383 132.832 56.2773C132.934 55.8164 132.984 55.3203 132.984 54.7891V54.543C132.984 54.0273 132.934 53.543 132.832 53.0898C132.738 52.6289 132.586 52.2227 132.375 51.8711C132.172 51.5117 131.902 51.2305 131.566 51.0273C131.23 50.8242 130.824 50.7227 130.348 50.7227C129.871 50.7227 129.465 50.8242 129.129 51.0273C128.801 51.2305 128.531 51.5117 128.32 51.8711C128.117 52.2227 127.969 52.6289 127.875 53.0898C127.781 53.543 127.734 54.0273 127.734 54.543ZM145.934 58.2344V43H149.332V61H146.273L145.934 58.2344ZM137.918 54.8125V54.5664C137.918 53.5977 138.027 52.7188 138.246 51.9297C138.465 51.1328 138.785 50.4492 139.207 49.8789C139.629 49.3086 140.148 48.8672 140.766 48.5547C141.383 48.2422 142.086 48.0859 142.875 48.0859C143.617 48.0859 144.266 48.2422 144.82 48.5547C145.383 48.8672 145.859 49.3125 146.25 49.8906C146.648 50.4609 146.969 51.1367 147.211 51.918C147.453 52.6914 147.629 53.5391 147.738 54.4609V55C147.629 55.8828 147.453 56.7031 147.211 57.4609C146.969 58.2188 146.648 58.8828 146.25 59.4531C145.859 60.0156 145.383 60.4531 144.82 60.7656C144.258 61.0781 143.602 61.2344 142.852 61.2344C142.062 61.2344 141.359 61.0742 140.742 60.7539C140.133 60.4336 139.617 59.9844 139.195 59.4062C138.781 58.8281 138.465 58.1484 138.246 57.3672C138.027 56.5859 137.918 55.7344 137.918 54.8125ZM141.293 54.5664V54.8125C141.293 55.3359 141.332 55.8242 141.41 56.2773C141.496 56.7305 141.633 57.1328 141.82 57.4844C142.016 57.8281 142.266 58.0977 142.57 58.293C142.883 58.4805 143.262 58.5742 143.707 58.5742C144.285 58.5742 144.762 58.4453 145.137 58.1875C145.512 57.9219 145.797 57.5586 145.992 57.0977C146.195 56.6367 146.312 56.1055 146.344 55.5039V53.9688C146.32 53.4766 146.25 53.0352 146.133 52.6445C146.023 52.2461 145.859 51.9062 145.641 51.625C145.43 51.3438 145.164 51.125 144.844 50.9688C144.531 50.8125 144.16 50.7344 143.73 50.7344C143.293 50.7344 142.918 50.8359 142.605 51.0391C142.293 51.2344 142.039 51.5039 141.844 51.8477C141.656 52.1914 141.516 52.5977 141.422 53.0664C141.336 53.5273 141.293 54.0273 141.293 54.5664ZM151.43 54.7891V54.543C151.43 53.6133 151.562 52.7578 151.828 51.9766C152.094 51.1875 152.48 50.5039 152.988 49.9258C153.496 49.3477 154.121 48.8984 154.863 48.5781C155.605 48.25 156.457 48.0859 157.418 48.0859C158.379 48.0859 159.234 48.25 159.984 48.5781C160.734 48.8984 161.363 49.3477 161.871 49.9258C162.387 50.5039 162.777 51.1875 163.043 51.9766C163.309 52.7578 163.441 53.6133 163.441 54.543V54.7891C163.441 55.7109 163.309 56.5664 163.043 57.3555C162.777 58.1367 162.387 58.8203 161.871 59.4062C161.363 59.9844 160.738 60.4336 159.996 60.7539C159.254 61.0742 158.402 61.2344 157.441 61.2344C156.48 61.2344 155.625 61.0742 154.875 60.7539C154.133 60.4336 153.504 59.9844 152.988 59.4062C152.48 58.8203 152.094 58.1367 151.828 57.3555C151.562 56.5664 151.43 55.7109 151.43 54.7891ZM154.805 54.543V54.7891C154.805 55.3203 154.852 55.8164 154.945 56.2773C155.039 56.7383 155.188 57.1445 155.391 57.4961C155.602 57.8398 155.875 58.1094 156.211 58.3047C156.547 58.5 156.957 58.5977 157.441 58.5977C157.91 58.5977 158.312 58.5 158.648 58.3047C158.984 58.1094 159.254 57.8398 159.457 57.4961C159.66 57.1445 159.809 56.7383 159.902 56.2773C160.004 55.8164 160.055 55.3203 160.055 54.7891V54.543C160.055 54.0273 160.004 53.543 159.902 53.0898C159.809 52.6289 159.656 52.2227 159.445 51.8711C159.242 51.5117 158.973 51.2305 158.637 51.0273C158.301 50.8242 157.895 50.7227 157.418 50.7227C156.941 50.7227 156.535 50.8242 156.199 51.0273C155.871 51.2305 155.602 51.5117 155.391 51.8711C155.188 52.2227 155.039 52.6289 154.945 53.0898C154.852 53.543 154.805 54.0273 154.805 54.543ZM178.641 46.8555L174 61H170.262L176.602 43.9375H178.98L178.641 46.8555ZM182.496 61L177.844 46.8555L177.469 43.9375H179.871L186.246 61H182.496ZM182.285 54.6484V57.4023H173.273V54.6484H182.285ZM190.617 50.7578V65.875H187.242V48.3203H190.371L190.617 50.7578ZM198.645 54.5195V54.7656C198.645 55.6875 198.535 56.543 198.316 57.332C198.105 58.1211 197.793 58.8086 197.379 59.3945C196.965 59.9727 196.449 60.4258 195.832 60.7539C195.223 61.0742 194.52 61.2344 193.723 61.2344C192.949 61.2344 192.277 61.0781 191.707 60.7656C191.137 60.4531 190.656 60.0156 190.266 59.4531C189.883 58.8828 189.574 58.2227 189.34 57.4727C189.105 56.7227 188.926 55.918 188.801 55.0586V54.4141C188.926 53.4922 189.105 52.6484 189.34 51.8828C189.574 51.1094 189.883 50.4414 190.266 49.8789C190.656 49.3086 191.133 48.8672 191.695 48.5547C192.266 48.2422 192.934 48.0859 193.699 48.0859C194.504 48.0859 195.211 48.2383 195.82 48.543C196.438 48.8477 196.953 49.2852 197.367 49.8555C197.789 50.4258 198.105 51.1055 198.316 51.8945C198.535 52.6836 198.645 53.5586 198.645 54.5195ZM195.258 54.7656V54.5195C195.258 53.9805 195.211 53.4844 195.117 53.0312C195.031 52.5703 194.891 52.168 194.695 51.8242C194.508 51.4805 194.258 51.2148 193.945 51.0273C193.641 50.832 193.27 50.7344 192.832 50.7344C192.371 50.7344 191.977 50.8086 191.648 50.957C191.328 51.1055 191.066 51.3203 190.863 51.6016C190.66 51.8828 190.508 52.2188 190.406 52.6094C190.305 53 190.242 53.4414 190.219 53.9336V55.5625C190.258 56.1406 190.367 56.6602 190.547 57.1211C190.727 57.5742 191.004 57.9336 191.379 58.1992C191.754 58.4648 192.246 58.5977 192.855 58.5977C193.301 58.5977 193.676 58.5 193.98 58.3047C194.285 58.1016 194.531 57.8242 194.719 57.4727C194.914 57.1211 195.051 56.7148 195.129 56.2539C195.215 55.793 195.258 55.2969 195.258 54.7656ZM204.117 50.7578V65.875H200.742V48.3203H203.871L204.117 50.7578ZM212.145 54.5195V54.7656C212.145 55.6875 212.035 56.543 211.816 57.332C211.605 58.1211 211.293 58.8086 210.879 59.3945C210.465 59.9727 209.949 60.4258 209.332 60.7539C208.723 61.0742 208.02 61.2344 207.223 61.2344C206.449 61.2344 205.777 61.0781 205.207 60.7656C204.637 60.4531 204.156 60.0156 203.766 59.4531C203.383 58.8828 203.074 58.2227 202.84 57.4727C202.605 56.7227 202.426 55.918 202.301 55.0586V54.4141C202.426 53.4922 202.605 52.6484 202.84 51.8828C203.074 51.1094 203.383 50.4414 203.766 49.8789C204.156 49.3086 204.633 48.8672 205.195 48.5547C205.766 48.2422 206.434 48.0859 207.199 48.0859C208.004 48.0859 208.711 48.2383 209.32 48.543C209.938 48.8477 210.453 49.2852 210.867 49.8555C211.289 50.4258 211.605 51.1055 211.816 51.8945C212.035 52.6836 212.145 53.5586 212.145 54.5195ZM208.758 54.7656V54.5195C208.758 53.9805 208.711 53.4844 208.617 53.0312C208.531 52.5703 208.391 52.168 208.195 51.8242C208.008 51.4805 207.758 51.2148 207.445 51.0273C207.141 50.832 206.77 50.7344 206.332 50.7344C205.871 50.7344 205.477 50.8086 205.148 50.957C204.828 51.1055 204.566 51.3203 204.363 51.6016C204.16 51.8828 204.008 52.2188 203.906 52.6094C203.805 53 203.742 53.4414 203.719 53.9336V55.5625C203.758 56.1406 203.867 56.6602 204.047 57.1211C204.227 57.5742 204.504 57.9336 204.879 58.1992C205.254 58.4648 205.746 58.5977 206.355 58.5977C206.801 58.5977 207.176 58.5 207.48 58.3047C207.785 58.1016 208.031 57.8242 208.219 57.4727C208.414 57.1211 208.551 56.7148 208.629 56.2539C208.715 55.793 208.758 55.2969 208.758 54.7656Z" fill="#888888"/>
<path d="M109.219 107.422H100.734V101.07H109.219C110.375 101.07 111.312 100.875 112.031 100.484C112.75 100.094 113.273 99.5547 113.602 98.8672C113.945 98.1641 114.117 97.375 114.117 96.5C114.117 95.5625 113.945 94.6953 113.602 93.8984C113.273 93.1016 112.75 92.4609 112.031 91.9766C111.312 91.4766 110.375 91.2266 109.219 91.2266H103.828V119H95.6016V84.875H109.219C111.953 84.875 114.305 85.375 116.273 86.375C118.258 87.375 119.781 88.75 120.844 90.5C121.906 92.2344 122.438 94.2188 122.438 96.4531C122.438 98.6562 121.906 100.578 120.844 102.219C119.781 103.859 118.258 105.141 116.273 106.062C114.305 106.969 111.953 107.422 109.219 107.422ZM134.461 99.9219V119H126.562V93.6406H133.945L134.461 99.9219ZM141.961 93.4531L141.82 100.789C141.508 100.758 141.086 100.719 140.555 100.672C140.023 100.625 139.578 100.602 139.219 100.602C138.297 100.602 137.5 100.711 136.828 100.93C136.172 101.133 135.625 101.445 135.188 101.867C134.766 102.273 134.453 102.789 134.25 103.414C134.062 104.039 133.977 104.766 133.992 105.594L132.562 104.656C132.562 102.953 132.727 101.406 133.055 100.016C133.398 98.6094 133.883 97.3984 134.508 96.3828C135.133 95.3516 135.891 94.5625 136.781 94.0156C137.672 93.4531 138.672 93.1719 139.781 93.1719C140.172 93.1719 140.555 93.1953 140.93 93.2422C141.32 93.2891 141.664 93.3594 141.961 93.4531ZM142.852 106.578V106.086C142.852 104.227 143.117 102.516 143.648 100.953C144.18 99.375 144.961 98.0078 145.992 96.8516C147.023 95.6953 148.297 94.7969 149.812 94.1562C151.328 93.5 153.078 93.1719 155.062 93.1719C157.062 93.1719 158.82 93.5 160.336 94.1562C161.867 94.7969 163.148 95.6953 164.18 96.8516C165.211 98.0078 165.992 99.375 166.523 100.953C167.055 102.516 167.32 104.227 167.32 106.086V106.578C167.32 108.422 167.055 110.133 166.523 111.711C165.992 113.273 165.211 114.641 164.18 115.812C163.148 116.969 161.875 117.867 160.359 118.508C158.844 119.148 157.094 119.469 155.109 119.469C153.125 119.469 151.367 119.148 149.836 118.508C148.305 117.867 147.023 116.969 145.992 115.812C144.961 114.641 144.18 113.273 143.648 111.711C143.117 110.133 142.852 108.422 142.852 106.578ZM150.75 106.086V106.578C150.75 107.531 150.82 108.422 150.961 109.25C151.102 110.078 151.336 110.805 151.664 111.43C151.992 112.039 152.438 112.516 153 112.859C153.562 113.203 154.266 113.375 155.109 113.375C155.938 113.375 156.625 113.203 157.172 112.859C157.734 112.516 158.18 112.039 158.508 111.43C158.836 110.805 159.07 110.078 159.211 109.25C159.352 108.422 159.422 107.531 159.422 106.578V106.086C159.422 105.164 159.352 104.297 159.211 103.484C159.07 102.656 158.836 101.93 158.508 101.305C158.18 100.664 157.734 100.164 157.172 99.8047C156.609 99.4453 155.906 99.2656 155.062 99.2656C154.234 99.2656 153.539 99.4453 152.977 99.8047C152.43 100.164 151.992 100.664 151.664 101.305C151.336 101.93 151.102 102.656 150.961 103.484C150.82 104.297 150.75 105.164 150.75 106.086ZM171.422 93.6406H179.344V119.82C179.344 121.852 178.953 123.562 178.172 124.953C177.391 126.359 176.273 127.422 174.82 128.141C173.367 128.875 171.633 129.242 169.617 129.242C168.945 129.242 168.328 129.211 167.766 129.148C167.188 129.102 166.555 129 165.867 128.844V122.867C166.273 122.93 166.648 122.977 166.992 123.008C167.336 123.055 167.711 123.078 168.117 123.078C168.836 123.078 169.438 122.961 169.922 122.727C170.406 122.492 170.773 122.133 171.023 121.648C171.289 121.164 171.422 120.555 171.422 119.82V93.6406ZM170.836 87.1016C170.836 85.9766 171.242 85.0547 172.055 84.3359C172.867 83.6172 173.922 83.2578 175.219 83.2578C176.516 83.2578 177.57 83.6172 178.383 84.3359C179.195 85.0547 179.602 85.9766 179.602 87.1016C179.602 88.2266 179.195 89.1484 178.383 89.8672C177.57 90.5859 176.516 90.9453 175.219 90.9453C173.922 90.9453 172.867 90.5859 172.055 89.8672C171.242 89.1484 170.836 88.2266 170.836 87.1016ZM196.102 119.469C194.039 119.469 192.195 119.148 190.57 118.508C188.945 117.852 187.57 116.953 186.445 115.812C185.336 114.672 184.484 113.359 183.891 111.875C183.312 110.391 183.023 108.82 183.023 107.164V106.273C183.023 104.414 183.281 102.695 183.797 101.117C184.312 99.5234 185.078 98.1328 186.094 96.9453C187.109 95.7578 188.383 94.8359 189.914 94.1797C191.445 93.5078 193.227 93.1719 195.258 93.1719C197.055 93.1719 198.664 93.4609 200.086 94.0391C201.508 94.6172 202.711 95.4453 203.695 96.5234C204.695 97.6016 205.453 98.9062 205.969 100.438C206.5 101.969 206.766 103.688 206.766 105.594V108.805H186.047V103.859H199.055V103.25C199.07 102.406 198.922 101.688 198.609 101.094C198.312 100.5 197.875 100.047 197.297 99.7344C196.719 99.4219 196.016 99.2656 195.188 99.2656C194.328 99.2656 193.617 99.4531 193.055 99.8281C192.508 100.203 192.078 100.719 191.766 101.375C191.469 102.016 191.258 102.758 191.133 103.602C191.008 104.445 190.945 105.336 190.945 106.273V107.164C190.945 108.102 191.07 108.953 191.32 109.719C191.586 110.484 191.961 111.141 192.445 111.688C192.945 112.219 193.539 112.633 194.227 112.93C194.93 113.227 195.727 113.375 196.617 113.375C197.695 113.375 198.758 113.172 199.805 112.766C200.852 112.359 201.75 111.688 202.5 110.75L206.086 115.016C205.57 115.75 204.836 116.461 203.883 117.148C202.945 117.836 201.82 118.398 200.508 118.836C199.195 119.258 197.727 119.469 196.102 119.469ZM220.688 113.375C221.422 113.375 222.047 113.242 222.562 112.977C223.094 112.695 223.492 112.305 223.758 111.805C224.039 111.289 224.172 110.672 224.156 109.953H231.586C231.602 111.859 231.133 113.531 230.18 114.969C229.242 116.391 227.961 117.5 226.336 118.297C224.727 119.078 222.906 119.469 220.875 119.469C218.891 119.469 217.156 119.148 215.672 118.508C214.188 117.852 212.945 116.945 211.945 115.789C210.961 114.617 210.219 113.25 209.719 111.688C209.234 110.125 208.992 108.43 208.992 106.602V106.062C208.992 104.234 209.234 102.539 209.719 100.977C210.219 99.3984 210.961 98.0312 211.945 96.875C212.945 95.7031 214.18 94.7969 215.648 94.1562C217.133 93.5 218.859 93.1719 220.828 93.1719C222.938 93.1719 224.797 93.5703 226.406 94.3672C228.031 95.1641 229.305 96.3203 230.227 97.8359C231.148 99.3516 231.602 101.188 231.586 103.344H224.156C224.172 102.578 224.055 101.891 223.805 101.281C223.555 100.672 223.164 100.188 222.633 99.8281C222.117 99.4531 221.453 99.2656 220.641 99.2656C219.828 99.2656 219.172 99.4453 218.672 99.8047C218.172 100.164 217.789 100.664 217.523 101.305C217.273 101.93 217.102 102.648 217.008 103.461C216.93 104.273 216.891 105.141 216.891 106.062V106.602C216.891 107.539 216.93 108.422 217.008 109.25C217.102 110.062 217.281 110.781 217.547 111.406C217.812 112.016 218.195 112.5 218.695 112.859C219.195 113.203 219.859 113.375 220.688 113.375ZM248.32 93.6406V99.125H233.039V93.6406H248.32ZM236.25 87.3359H244.148V110.727C244.148 111.398 244.227 111.922 244.383 112.297C244.539 112.656 244.805 112.914 245.18 113.07C245.57 113.211 246.086 113.281 246.727 113.281C247.18 113.281 247.555 113.273 247.852 113.258C248.148 113.227 248.43 113.188 248.695 113.141V118.789C248.023 119.008 247.32 119.172 246.586 119.281C245.852 119.406 245.07 119.469 244.242 119.469C242.555 119.469 241.109 119.203 239.906 118.672C238.719 118.141 237.812 117.305 237.188 116.164C236.562 115.023 236.25 113.539 236.25 111.711V87.3359ZM274.875 119H267.305L267.352 112.672H274.875C276.438 112.672 277.758 112.297 278.836 111.547C279.93 110.797 280.758 109.68 281.32 108.195C281.898 106.695 282.188 104.852 282.188 102.664V101.188C282.188 99.5469 282.023 98.1094 281.695 96.875C281.383 95.625 280.914 94.5859 280.289 93.7578C279.664 92.9141 278.883 92.2812 277.945 91.8594C277.023 91.4375 275.961 91.2266 274.758 91.2266H267.164V84.875H274.758C277.07 84.875 279.188 85.2734 281.109 86.0703C283.047 86.8516 284.719 87.9766 286.125 89.4453C287.547 90.8984 288.641 92.625 289.406 94.625C290.188 96.6094 290.578 98.8125 290.578 101.234V102.664C290.578 105.07 290.188 107.273 289.406 109.273C288.641 111.273 287.555 113 286.148 114.453C284.742 115.906 283.078 117.031 281.156 117.828C279.25 118.609 277.156 119 274.875 119ZM272.016 84.875V119H263.789V84.875H272.016ZM306.773 119.469C304.711 119.469 302.867 119.148 301.242 118.508C299.617 117.852 298.242 116.953 297.117 115.812C296.008 114.672 295.156 113.359 294.562 111.875C293.984 110.391 293.695 108.82 293.695 107.164V106.273C293.695 104.414 293.953 102.695 294.469 101.117C294.984 99.5234 295.75 98.1328 296.766 96.9453C297.781 95.7578 299.055 94.8359 300.586 94.1797C302.117 93.5078 303.898 93.1719 305.93 93.1719C307.727 93.1719 309.336 93.4609 310.758 94.0391C312.18 94.6172 313.383 95.4453 314.367 96.5234C315.367 97.6016 316.125 98.9062 316.641 100.438C317.172 101.969 317.438 103.688 317.438 105.594V108.805H296.719V103.859H309.727V103.25C309.742 102.406 309.594 101.688 309.281 101.094C308.984 100.5 308.547 100.047 307.969 99.7344C307.391 99.4219 306.688 99.2656 305.859 99.2656C305 99.2656 304.289 99.4531 303.727 99.8281C303.18 100.203 302.75 100.719 302.438 101.375C302.141 102.016 301.93 102.758 301.805 103.602C301.68 104.445 301.617 105.336 301.617 106.273V107.164C301.617 108.102 301.742 108.953 301.992 109.719C302.258 110.484 302.633 111.141 303.117 111.688C303.617 112.219 304.211 112.633 304.898 112.93C305.602 113.227 306.398 113.375 307.289 113.375C308.367 113.375 309.43 113.172 310.477 112.766C311.523 112.359 312.422 111.688 313.172 110.75L316.758 115.016C316.242 115.75 315.508 116.461 314.555 117.148C313.617 117.836 312.492 118.398 311.18 118.836C309.867 119.258 308.398 119.469 306.773 119.469ZM333.938 111.875C333.938 111.438 333.789 111.062 333.492 110.75C333.211 110.422 332.711 110.125 331.992 109.859C331.273 109.578 330.266 109.297 328.969 109.016C327.734 108.75 326.57 108.398 325.477 107.961C324.398 107.523 323.453 106.992 322.641 106.367C321.828 105.742 321.188 105 320.719 104.141C320.266 103.281 320.039 102.297 320.039 101.188C320.039 100.109 320.266 99.0938 320.719 98.1406C321.188 97.1719 321.867 96.3203 322.758 95.5859C323.664 94.8359 324.766 94.25 326.062 93.8281C327.359 93.3906 328.836 93.1719 330.492 93.1719C332.773 93.1719 334.742 93.5234 336.398 94.2266C338.055 94.9141 339.328 95.8828 340.219 97.1328C341.125 98.3672 341.578 99.7969 341.578 101.422H333.68C333.68 100.781 333.57 100.234 333.352 99.7812C333.148 99.3281 332.812 98.9844 332.344 98.75C331.875 98.5 331.25 98.375 330.469 98.375C329.922 98.375 329.422 98.4766 328.969 98.6797C328.531 98.8828 328.18 99.1641 327.914 99.5234C327.648 99.8828 327.516 100.305 327.516 100.789C327.516 101.133 327.594 101.445 327.75 101.727C327.922 101.992 328.18 102.242 328.523 102.477C328.867 102.695 329.305 102.898 329.836 103.086C330.367 103.258 331.008 103.414 331.758 103.555C333.461 103.867 335.055 104.312 336.539 104.891C338.023 105.469 339.227 106.289 340.148 107.352C341.086 108.414 341.555 109.844 341.555 111.641C341.555 112.766 341.297 113.805 340.781 114.758C340.266 115.695 339.523 116.523 338.555 117.242C337.586 117.945 336.422 118.492 335.062 118.883C333.703 119.273 332.172 119.469 330.469 119.469C328.047 119.469 326 119.039 324.328 118.18C322.656 117.305 321.391 116.211 320.531 114.898C319.688 113.57 319.266 112.227 319.266 110.867H326.625C326.656 111.648 326.844 112.289 327.188 112.789C327.547 113.289 328.023 113.656 328.617 113.891C329.211 114.125 329.898 114.242 330.68 114.242C331.398 114.242 331.992 114.141 332.461 113.938C332.945 113.734 333.312 113.461 333.562 113.117C333.812 112.758 333.938 112.344 333.938 111.875ZM355.969 113.375C356.703 113.375 357.328 113.242 357.844 112.977C358.375 112.695 358.773 112.305 359.039 111.805C359.32 111.289 359.453 110.672 359.438 109.953H366.867C366.883 111.859 366.414 113.531 365.461 114.969C364.523 116.391 363.242 117.5 361.617 118.297C360.008 119.078 358.188 119.469 356.156 119.469C354.172 119.469 352.438 119.148 350.953 118.508C349.469 117.852 348.227 116.945 347.227 115.789C346.242 114.617 345.5 113.25 345 111.688C344.516 110.125 344.273 108.43 344.273 106.602V106.062C344.273 104.234 344.516 102.539 345 100.977C345.5 99.3984 346.242 98.0312 347.227 96.875C348.227 95.7031 349.461 94.7969 350.93 94.1562C352.414 93.5 354.141 93.1719 356.109 93.1719C358.219 93.1719 360.078 93.5703 361.688 94.3672C363.312 95.1641 364.586 96.3203 365.508 97.8359C366.43 99.3516 366.883 101.188 366.867 103.344H359.438C359.453 102.578 359.336 101.891 359.086 101.281C358.836 100.672 358.445 100.188 357.914 99.8281C357.398 99.4531 356.734 99.2656 355.922 99.2656C355.109 99.2656 354.453 99.4453 353.953 99.8047C353.453 100.164 353.07 100.664 352.805 101.305C352.555 101.93 352.383 102.648 352.289 103.461C352.211 104.273 352.172 105.141 352.172 106.062V106.602C352.172 107.539 352.211 108.422 352.289 109.25C352.383 110.062 352.562 110.781 352.828 111.406C353.094 112.016 353.477 112.5 353.977 112.859C354.477 113.203 355.141 113.375 355.969 113.375ZM378.211 99.9219V119H370.312V93.6406H377.695L378.211 99.9219ZM385.711 93.4531L385.57 100.789C385.258 100.758 384.836 100.719 384.305 100.672C383.773 100.625 383.328 100.602 382.969 100.602C382.047 100.602 381.25 100.711 380.578 100.93C379.922 101.133 379.375 101.445 378.938 101.867C378.516 102.273 378.203 102.789 378 103.414C377.812 104.039 377.727 104.766 377.742 105.594L376.312 104.656C376.312 102.953 376.477 101.406 376.805 100.016C377.148 98.6094 377.633 97.3984 378.258 96.3828C378.883 95.3516 379.641 94.5625 380.531 94.0156C381.422 93.4531 382.422 93.1719 383.531 93.1719C383.922 93.1719 384.305 93.1953 384.68 93.2422C385.07 93.2891 385.414 93.3594 385.711 93.4531ZM396.773 93.6406V119H388.852V93.6406H396.773ZM388.383 87.1016C388.383 85.9766 388.789 85.0547 389.602 84.3359C390.414 83.6172 391.469 83.2578 392.766 83.2578C394.062 83.2578 395.117 83.6172 395.93 84.3359C396.742 85.0547 397.148 85.9766 397.148 87.1016C397.148 88.2266 396.742 89.1484 395.93 89.8672C395.117 90.5859 394.062 90.9453 392.766 90.9453C391.469 90.9453 390.414 90.5859 389.602 89.8672C388.789 89.1484 388.383 88.2266 388.383 87.1016ZM409.617 98.5156V128.75H401.719V93.6406H409.078L409.617 98.5156ZM425.18 106.016V106.508C425.18 108.352 424.969 110.062 424.547 111.641C424.125 113.219 423.5 114.594 422.672 115.766C421.844 116.938 420.812 117.852 419.578 118.508C418.359 119.148 416.945 119.469 415.336 119.469C413.82 119.469 412.516 119.133 411.422 118.461C410.328 117.789 409.414 116.859 408.68 115.672C407.945 114.484 407.352 113.125 406.898 111.594C406.445 110.062 406.086 108.445 405.82 106.742V106.109C406.086 104.281 406.445 102.586 406.898 101.023C407.352 99.4453 407.945 98.0703 408.68 96.8984C409.414 95.7266 410.32 94.8125 411.398 94.1562C412.492 93.5 413.797 93.1719 415.312 93.1719C416.922 93.1719 418.336 93.4766 419.555 94.0859C420.789 94.6953 421.82 95.5703 422.648 96.7109C423.492 97.8359 424.125 99.1875 424.547 100.766C424.969 102.344 425.18 104.094 425.18 106.016ZM417.281 106.508V106.016C417.281 105.031 417.211 104.133 417.07 103.32C416.93 102.492 416.703 101.773 416.391 101.164C416.094 100.555 415.695 100.086 415.195 99.7578C414.695 99.4297 414.078 99.2656 413.344 99.2656C412.5 99.2656 411.789 99.3984 411.211 99.6641C410.648 99.9141 410.195 100.305 409.852 100.836C409.523 101.352 409.289 102 409.148 102.781C409.023 103.547 408.969 104.445 408.984 105.477V107.398C408.953 108.586 409.07 109.633 409.336 110.539C409.602 111.43 410.062 112.125 410.719 112.625C411.375 113.125 412.266 113.375 413.391 113.375C414.141 113.375 414.766 113.203 415.266 112.859C415.766 112.5 416.164 112.008 416.461 111.383C416.758 110.742 416.969 110.008 417.094 109.18C417.219 108.352 417.281 107.461 417.281 106.508ZM442.055 93.6406V99.125H426.773V93.6406H442.055ZM429.984 87.3359H437.883V110.727C437.883 111.398 437.961 111.922 438.117 112.297C438.273 112.656 438.539 112.914 438.914 113.07C439.305 113.211 439.82 113.281 440.461 113.281C440.914 113.281 441.289 113.273 441.586 113.258C441.883 113.227 442.164 113.188 442.43 113.141V118.789C441.758 119.008 441.055 119.172 440.32 119.281C439.586 119.406 438.805 119.469 437.977 119.469C436.289 119.469 434.844 119.203 433.641 118.672C432.453 118.141 431.547 117.305 430.922 116.164C430.297 115.023 429.984 113.539 429.984 111.711V87.3359ZM453.539 93.6406V119H445.617V93.6406H453.539ZM445.148 87.1016C445.148 85.9766 445.555 85.0547 446.367 84.3359C447.18 83.6172 448.234 83.2578 449.531 83.2578C450.828 83.2578 451.883 83.6172 452.695 84.3359C453.508 85.0547 453.914 85.9766 453.914 87.1016C453.914 88.2266 453.508 89.1484 452.695 89.8672C451.883 90.5859 450.828 90.9453 449.531 90.9453C448.234 90.9453 447.18 90.5859 446.367 89.8672C445.555 89.1484 445.148 88.2266 445.148 87.1016ZM457.43 106.578V106.086C457.43 104.227 457.695 102.516 458.227 100.953C458.758 99.375 459.539 98.0078 460.57 96.8516C461.602 95.6953 462.875 94.7969 464.391 94.1562C465.906 93.5 467.656 93.1719 469.641 93.1719C471.641 93.1719 473.398 93.5 474.914 94.1562C476.445 94.7969 477.727 95.6953 478.758 96.8516C479.789 98.0078 480.57 99.375 481.102 100.953C481.633 102.516 481.898 104.227 481.898 106.086V106.578C481.898 108.422 481.633 110.133 481.102 111.711C480.57 113.273 479.789 114.641 478.758 115.812C477.727 116.969 476.453 117.867 474.938 118.508C473.422 119.148 471.672 119.469 469.688 119.469C467.703 119.469 465.945 119.148 464.414 118.508C462.883 117.867 461.602 116.969 460.57 115.812C459.539 114.641 458.758 113.273 458.227 111.711C457.695 110.133 457.43 108.422 457.43 106.578ZM465.328 106.086V106.578C465.328 107.531 465.398 108.422 465.539 109.25C465.68 110.078 465.914 110.805 466.242 111.43C466.57 112.039 467.016 112.516 467.578 112.859C468.141 113.203 468.844 113.375 469.688 113.375C470.516 113.375 471.203 113.203 471.75 112.859C472.312 112.516 472.758 112.039 473.086 111.43C473.414 110.805 473.648 110.078 473.789 109.25C473.93 108.422 474 107.531 474 106.578V106.086C474 105.164 473.93 104.297 473.789 103.484C473.648 102.656 473.414 101.93 473.086 101.305C472.758 100.664 472.312 100.164 471.75 99.8047C471.188 99.4453 470.484 99.2656 469.641 99.2656C468.812 99.2656 468.117 99.4453 467.555 99.8047C467.008 100.164 466.57 100.664 466.242 101.305C465.914 101.93 465.68 102.656 465.539 103.484C465.398 104.297 465.328 105.164 465.328 106.086ZM493.172 99.0547V119H485.273V93.6406H492.68L493.172 99.0547ZM492.234 105.453L490.383 105.5C490.383 103.562 490.617 101.836 491.086 100.32C491.555 98.7891 492.219 97.4922 493.078 96.4297C493.938 95.3672 494.961 94.5625 496.148 94.0156C497.352 93.4531 498.688 93.1719 500.156 93.1719C501.328 93.1719 502.398 93.3438 503.367 93.6875C504.352 94.0312 505.195 94.5859 505.898 95.3516C506.617 96.1172 507.164 97.1328 507.539 98.3984C507.93 99.6484 508.125 101.195 508.125 103.039V119H500.18V103.016C500.18 102 500.039 101.227 499.758 100.695C499.477 100.148 499.07 99.7734 498.539 99.5703C498.008 99.3672 497.359 99.2656 496.594 99.2656C495.781 99.2656 495.094 99.4219 494.531 99.7344C493.969 100.047 493.516 100.484 493.172 101.047C492.844 101.594 492.602 102.242 492.445 102.992C492.305 103.742 492.234 104.562 492.234 105.453Z" fill="black"/>
<path d="M1134 0H1348C1356.28 0 1363 6.71573 1363 15V148C1363 156.284 1356.28 163 1348 163H1134V0Z" fill="#008BBF"/>
<path d="M1234.26 103.786H1262.74V109.357H1234.26V103.786ZM1239.96 114.929H1257.04V120.5H1239.96V114.929ZM1248.5 42.5C1240.95 42.5 1233.71 45.4349 1228.37 50.6592C1223.03 55.8834 1220.03 62.969 1220.03 70.3571C1219.84 74.4057 1220.63 78.4412 1222.34 82.1315C1224.05 85.8219 1226.64 89.0616 1229.88 91.5843C1232.73 94.175 1234.26 95.6514 1234.26 98.2143H1239.96C1239.96 93.0886 1236.8 90.2193 1233.72 87.4614C1231.06 85.4676 1228.94 82.8658 1227.55 79.8838C1226.15 76.9019 1225.53 73.6308 1225.72 70.3571C1225.72 64.4466 1228.12 58.7781 1232.39 54.5988C1236.67 50.4194 1242.46 48.0714 1248.5 48.0714C1254.54 48.0714 1260.33 50.4194 1264.61 54.5988C1268.88 58.7781 1271.28 64.4466 1271.28 70.3571C1271.47 73.6333 1270.84 76.9059 1269.44 79.888C1268.04 82.8701 1265.92 85.4706 1263.25 87.4614C1260.2 90.2471 1257.04 93.0329 1257.04 98.2143H1262.74C1262.74 95.6514 1264.25 94.175 1267.12 91.5564C1270.36 89.0381 1272.94 85.8031 1274.66 82.1176C1276.37 78.4321 1277.16 74.4014 1276.97 70.3571C1276.97 66.6989 1276.24 63.0765 1274.81 59.6967C1273.37 56.3169 1271.28 53.2459 1268.63 50.6592C1265.99 48.0724 1262.85 46.0205 1259.4 44.6205C1255.94 43.2205 1252.24 42.5 1248.5 42.5Z" fill="white"/>
</svg>
