<svg width="1363" height="163" viewBox="0 0 1363 163" fill="none" xmlns="http://www.w3.org/2000/svg">
<path d="M0 15C0 6.71573 6.71573 0 15 0H37V163H15C6.71573 163 0 156.284 0 148V15Z" fill="#424242"/>
<rect width="1097" height="163" transform="translate(37)" fill="#F0F0F0"/>
<path d="M101.906 53.9219L94.3945 51.2383V48.0859L104.602 52.375V54.6367L101.906 53.9219ZM94.3945 56.1719L101.918 53.4297L104.602 52.7852V55.0352L94.3945 59.3242V56.1719ZM116.414 43.9375V61H112.898V43.9375H116.414ZM123.211 51.2266V53.9688H115.453V51.2266H123.211ZM124.031 43.9375V46.6914H115.453V43.9375H124.031ZM133.102 57.9648V48.3203H136.477V61H133.301L133.102 57.9648ZM133.477 55.3633L134.473 55.3398C134.473 56.1836 134.375 56.9688 134.18 57.6953C133.984 58.4141 133.691 59.0391 133.301 59.5703C132.91 60.0938 132.418 60.5039 131.824 60.8008C131.23 61.0898 130.531 61.2344 129.727 61.2344C129.109 61.2344 128.539 61.1484 128.016 60.9766C127.5 60.7969 127.055 60.5195 126.68 60.1445C126.312 59.7617 126.023 59.2734 125.812 58.6797C125.609 58.0781 125.508 57.3555 125.508 56.5117V48.3203H128.883V56.5352C128.883 56.9102 128.926 57.2266 129.012 57.4844C129.105 57.7422 129.234 57.9531 129.398 58.1172C129.562 58.2812 129.754 58.3984 129.973 58.4688C130.199 58.5391 130.449 58.5742 130.723 58.5742C131.418 58.5742 131.965 58.4336 132.363 58.1523C132.77 57.8711 133.055 57.4883 133.219 57.0039C133.391 56.5117 133.477 55.9648 133.477 55.3633ZM142.617 43V61H139.23V43H142.617ZM148.969 43V61H145.582V43H148.969ZM166.828 56.5352C166.828 56.2305 166.781 55.957 166.688 55.7148C166.602 55.4648 166.438 55.2383 166.195 55.0352C165.953 54.8242 165.613 54.6172 165.176 54.4141C164.738 54.2109 164.172 54 163.477 53.7812C162.703 53.5312 161.969 53.25 161.273 52.9375C160.586 52.625 159.977 52.2617 159.445 51.8477C158.922 51.4258 158.508 50.9375 158.203 50.3828C157.906 49.8281 157.758 49.1836 157.758 48.4492C157.758 47.7383 157.914 47.0938 158.227 46.5156C158.539 45.9297 158.977 45.4297 159.539 45.0156C160.102 44.5938 160.766 44.2695 161.531 44.043C162.305 43.8164 163.152 43.7031 164.074 43.7031C165.332 43.7031 166.43 43.9297 167.367 44.3828C168.305 44.8359 169.031 45.457 169.547 46.2461C170.07 47.0352 170.332 47.9375 170.332 48.9531H166.84C166.84 48.4531 166.734 48.0156 166.523 47.6406C166.32 47.2578 166.008 46.957 165.586 46.7383C165.172 46.5195 164.648 46.4102 164.016 46.4102C163.406 46.4102 162.898 46.5039 162.492 46.6914C162.086 46.8711 161.781 47.1172 161.578 47.4297C161.375 47.7344 161.273 48.0781 161.273 48.4609C161.273 48.75 161.344 49.0117 161.484 49.2461C161.633 49.4805 161.852 49.6992 162.141 49.9023C162.43 50.1055 162.785 50.2969 163.207 50.4766C163.629 50.6562 164.117 50.832 164.672 51.0039C165.602 51.2852 166.418 51.6016 167.121 51.9531C167.832 52.3047 168.426 52.6992 168.902 53.1367C169.379 53.5742 169.738 54.0703 169.98 54.625C170.223 55.1797 170.344 55.8086 170.344 56.5117C170.344 57.2539 170.199 57.918 169.91 58.5039C169.621 59.0898 169.203 59.5859 168.656 59.9922C168.109 60.3984 167.457 60.707 166.699 60.918C165.941 61.1289 165.094 61.2344 164.156 61.2344C163.312 61.2344 162.48 61.125 161.66 60.9062C160.84 60.6797 160.094 60.3398 159.422 59.8867C158.758 59.4336 158.227 58.8555 157.828 58.1523C157.43 57.4492 157.23 56.6172 157.23 55.6562H160.758C160.758 56.1875 160.84 56.6367 161.004 57.0039C161.168 57.3711 161.398 57.668 161.695 57.8945C162 58.1211 162.359 58.2852 162.773 58.3867C163.195 58.4883 163.656 58.5391 164.156 58.5391C164.766 58.5391 165.266 58.4531 165.656 58.2812C166.055 58.1094 166.348 57.8711 166.535 57.5664C166.73 57.2617 166.828 56.918 166.828 56.5352ZM178.734 48.3203V50.7109H171.352V48.3203H178.734ZM173.18 45.1914H176.555V57.1797C176.555 57.5469 176.602 57.8281 176.695 58.0234C176.797 58.2188 176.945 58.3555 177.141 58.4336C177.336 58.5039 177.582 58.5391 177.879 58.5391C178.09 58.5391 178.277 58.5312 178.441 58.5156C178.613 58.4922 178.758 58.4688 178.875 58.4453L178.887 60.9297C178.598 61.0234 178.285 61.0977 177.949 61.1523C177.613 61.207 177.242 61.2344 176.836 61.2344C176.094 61.2344 175.445 61.1133 174.891 60.8711C174.344 60.6211 173.922 60.2227 173.625 59.6758C173.328 59.1289 173.18 58.4102 173.18 57.5195V45.1914ZM187.5 58.1406V52.4922C187.5 52.0859 187.434 51.7383 187.301 51.4492C187.168 51.1523 186.961 50.9219 186.68 50.7578C186.406 50.5938 186.051 50.5117 185.613 50.5117C185.238 50.5117 184.914 50.5781 184.641 50.7109C184.367 50.8359 184.156 51.0195 184.008 51.2617C183.859 51.4961 183.785 51.7734 183.785 52.0938H180.41C180.41 51.5547 180.535 51.043 180.785 50.5586C181.035 50.0742 181.398 49.6484 181.875 49.2812C182.352 48.9062 182.918 48.6133 183.574 48.4023C184.238 48.1914 184.98 48.0859 185.801 48.0859C186.785 48.0859 187.66 48.25 188.426 48.5781C189.191 48.9062 189.793 49.3984 190.23 50.0547C190.676 50.7109 190.898 51.5312 190.898 52.5156V57.9414C190.898 58.6367 190.941 59.207 191.027 59.6523C191.113 60.0898 191.238 60.4727 191.402 60.8008V61H187.992C187.828 60.6562 187.703 60.2266 187.617 59.7109C187.539 59.1875 187.5 58.6641 187.5 58.1406ZM187.945 53.2773L187.969 55.1875H186.082C185.637 55.1875 185.25 55.2383 184.922 55.3398C184.594 55.4414 184.324 55.5859 184.113 55.7734C183.902 55.9531 183.746 56.1641 183.645 56.4062C183.551 56.6484 183.504 56.9141 183.504 57.2031C183.504 57.4922 183.57 57.7539 183.703 57.9883C183.836 58.2148 184.027 58.3945 184.277 58.5273C184.527 58.6523 184.82 58.7148 185.156 58.7148C185.664 58.7148 186.105 58.6133 186.48 58.4102C186.855 58.207 187.145 57.957 187.348 57.6602C187.559 57.3633 187.668 57.082 187.676 56.8164L188.566 58.2461C188.441 58.5664 188.27 58.8984 188.051 59.2422C187.84 59.5859 187.57 59.9102 187.242 60.2148C186.914 60.5117 186.52 60.7578 186.059 60.9531C185.598 61.1406 185.051 61.2344 184.418 61.2344C183.613 61.2344 182.883 61.0742 182.227 60.7539C181.578 60.4258 181.062 59.9766 180.68 59.4062C180.305 58.8281 180.117 58.1719 180.117 57.4375C180.117 56.7734 180.242 56.1836 180.492 55.668C180.742 55.1523 181.109 54.7188 181.594 54.3672C182.086 54.0078 182.699 53.7383 183.434 53.5586C184.168 53.3711 185.02 53.2773 185.988 53.2773H187.945ZM198.738 58.5977C199.152 58.5977 199.52 58.5195 199.84 58.3633C200.16 58.1992 200.41 57.9727 200.59 57.6836C200.777 57.3867 200.875 57.0391 200.883 56.6406H204.059C204.051 57.5312 203.812 58.3242 203.344 59.0195C202.875 59.707 202.246 60.25 201.457 60.6484C200.668 61.0391 199.785 61.2344 198.809 61.2344C197.824 61.2344 196.965 61.0703 196.23 60.7422C195.504 60.4141 194.898 59.9609 194.414 59.3828C193.93 58.7969 193.566 58.1172 193.324 57.3438C193.082 56.5625 192.961 55.7266 192.961 54.8359V54.4961C192.961 53.5977 193.082 52.7617 193.324 51.9883C193.566 51.207 193.93 50.5273 194.414 49.9492C194.898 49.3633 195.504 48.9062 196.23 48.5781C196.957 48.25 197.809 48.0859 198.785 48.0859C199.824 48.0859 200.734 48.2852 201.516 48.6836C202.305 49.082 202.922 49.6523 203.367 50.3945C203.82 51.1289 204.051 52 204.059 53.0078H200.883C200.875 52.5859 200.785 52.2031 200.613 51.8594C200.449 51.5156 200.207 51.2422 199.887 51.0391C199.574 50.8281 199.188 50.7227 198.727 50.7227C198.234 50.7227 197.832 50.8281 197.52 51.0391C197.207 51.2422 196.965 51.5234 196.793 51.8828C196.621 52.2344 196.5 52.6367 196.43 53.0898C196.367 53.5352 196.336 54.0039 196.336 54.4961V54.8359C196.336 55.3281 196.367 55.8008 196.43 56.2539C196.492 56.707 196.609 57.1094 196.781 57.4609C196.961 57.8125 197.207 58.0898 197.52 58.293C197.832 58.4961 198.238 58.5977 198.738 58.5977ZM209.391 42.9883V61H206.016V42.9883H209.391ZM217.383 48.3203L211.875 54.6016L208.922 57.5898L207.691 55.1523L210.035 52.1758L213.328 48.3203H217.383ZM213.879 61L210.129 55.1406L212.461 53.1016L217.77 61H213.879ZM230.262 61H226.547L226.57 58.2578H230.262C231.184 58.2578 231.961 58.0508 232.594 57.6367C233.227 57.2148 233.703 56.6016 234.023 55.7969C234.352 54.9922 234.516 54.0195 234.516 52.8789V52.0469C234.516 51.1719 234.422 50.4023 234.234 49.7383C234.055 49.0742 233.785 48.5156 233.426 48.0625C233.066 47.6094 232.625 47.2695 232.102 47.043C231.578 46.8086 230.977 46.6914 230.297 46.6914H226.477V43.9375H230.297C231.438 43.9375 232.48 44.1328 233.426 44.5234C234.379 44.9062 235.203 45.457 235.898 46.1758C236.594 46.8945 237.129 47.7539 237.504 48.7539C237.887 49.7461 238.078 50.8516 238.078 52.0703V52.8789C238.078 54.0898 237.887 55.1953 237.504 56.1953C237.129 57.1953 236.594 58.0547 235.898 58.7734C235.211 59.4844 234.387 60.0352 233.426 60.4258C232.473 60.8086 231.418 61 230.262 61ZM228.539 43.9375V61H225.023V43.9375H228.539ZM246.258 61.2344C245.273 61.2344 244.391 61.0781 243.609 60.7656C242.828 60.4453 242.164 60.0039 241.617 59.4414C241.078 58.8789 240.664 58.2266 240.375 57.4844C240.086 56.7344 239.941 55.9375 239.941 55.0938V54.625C239.941 53.6641 240.078 52.7852 240.352 51.9883C240.625 51.1914 241.016 50.5 241.523 49.9141C242.039 49.3281 242.664 48.8789 243.398 48.5664C244.133 48.2461 244.961 48.0859 245.883 48.0859C246.781 48.0859 247.578 48.2344 248.273 48.5312C248.969 48.8281 249.551 49.25 250.02 49.7969C250.496 50.3438 250.855 51 251.098 51.7656C251.34 52.5234 251.461 53.3672 251.461 54.2969V55.7031H241.383V53.4531H248.145V53.1953C248.145 52.7266 248.059 52.3086 247.887 51.9414C247.723 51.5664 247.473 51.2695 247.137 51.0508C246.801 50.832 246.371 50.7227 245.848 50.7227C245.402 50.7227 245.02 50.8203 244.699 51.0156C244.379 51.2109 244.117 51.4844 243.914 51.8359C243.719 52.1875 243.57 52.6016 243.469 53.0781C243.375 53.5469 243.328 54.0625 243.328 54.625V55.0938C243.328 55.6016 243.398 56.0703 243.539 56.5C243.688 56.9297 243.895 57.3008 244.16 57.6133C244.434 57.9258 244.762 58.168 245.145 58.3398C245.535 58.5117 245.977 58.5977 246.469 58.5977C247.078 58.5977 247.645 58.4805 248.168 58.2461C248.699 58.0039 249.156 57.6406 249.539 57.1562L251.18 58.9375C250.914 59.3203 250.551 59.6875 250.09 60.0391C249.637 60.3906 249.09 60.6797 248.449 60.9062C247.809 61.125 247.078 61.2344 246.258 61.2344ZM256.758 50.9453V61H253.371V48.3203H256.547L256.758 50.9453ZM256.289 54.2148H255.352C255.352 53.332 255.457 52.5195 255.668 51.7773C255.887 51.0273 256.203 50.3789 256.617 49.832C257.039 49.2773 257.559 48.8477 258.176 48.543C258.793 48.2383 259.508 48.0859 260.32 48.0859C260.883 48.0859 261.398 48.1719 261.867 48.3438C262.336 48.5078 262.738 48.7695 263.074 49.1289C263.418 49.4805 263.684 49.9414 263.871 50.5117C264.059 51.0742 264.152 51.75 264.152 52.5391V61H260.777V52.9141C260.777 52.3359 260.699 51.8906 260.543 51.5781C260.387 51.2656 260.164 51.0469 259.875 50.9219C259.594 50.7969 259.254 50.7344 258.855 50.7344C258.418 50.7344 258.035 50.8242 257.707 51.0039C257.387 51.1836 257.121 51.4336 256.91 51.7539C256.699 52.0664 256.543 52.4336 256.441 52.8555C256.34 53.2773 256.289 53.7305 256.289 54.2148ZM263.836 53.8281L262.629 53.9805C262.629 53.1523 262.73 52.3828 262.934 51.6719C263.145 50.9609 263.453 50.3359 263.859 49.7969C264.273 49.2578 264.785 48.8398 265.395 48.543C266.004 48.2383 266.707 48.0859 267.504 48.0859C268.113 48.0859 268.668 48.1758 269.168 48.3555C269.668 48.5273 270.094 48.8047 270.445 49.1875C270.805 49.5625 271.078 50.0547 271.266 50.6641C271.461 51.2734 271.559 52.0195 271.559 52.9023V61H268.172V52.9023C268.172 52.3164 268.094 51.8711 267.938 51.5664C267.789 51.2539 267.57 51.0391 267.281 50.9219C267 50.7969 266.664 50.7344 266.273 50.7344C265.867 50.7344 265.512 50.8164 265.207 50.9805C264.902 51.1367 264.648 51.3555 264.445 51.6367C264.242 51.918 264.09 52.2461 263.988 52.6211C263.887 52.9883 263.836 53.3906 263.836 53.8281ZM273.633 54.7891V54.543C273.633 53.6133 273.766 52.7578 274.031 51.9766C274.297 51.1875 274.684 50.5039 275.191 49.9258C275.699 49.3477 276.324 48.8984 277.066 48.5781C277.809 48.25 278.66 48.0859 279.621 48.0859C280.582 48.0859 281.438 48.25 282.188 48.5781C282.938 48.8984 283.566 49.3477 284.074 49.9258C284.59 50.5039 284.98 51.1875 285.246 51.9766C285.512 52.7578 285.645 53.6133 285.645 54.543V54.7891C285.645 55.7109 285.512 56.5664 285.246 57.3555C284.98 58.1367 284.59 58.8203 284.074 59.4062C283.566 59.9844 282.941 60.4336 282.199 60.7539C281.457 61.0742 280.605 61.2344 279.645 61.2344C278.684 61.2344 277.828 61.0742 277.078 60.7539C276.336 60.4336 275.707 59.9844 275.191 59.4062C274.684 58.8203 274.297 58.1367 274.031 57.3555C273.766 56.5664 273.633 55.7109 273.633 54.7891ZM277.008 54.543V54.7891C277.008 55.3203 277.055 55.8164 277.148 56.2773C277.242 56.7383 277.391 57.1445 277.594 57.4961C277.805 57.8398 278.078 58.1094 278.414 58.3047C278.75 58.5 279.16 58.5977 279.645 58.5977C280.113 58.5977 280.516 58.5 280.852 58.3047C281.188 58.1094 281.457 57.8398 281.66 57.4961C281.863 57.1445 282.012 56.7383 282.105 56.2773C282.207 55.8164 282.258 55.3203 282.258 54.7891V54.543C282.258 54.0273 282.207 53.543 282.105 53.0898C282.012 52.6289 281.859 52.2227 281.648 51.8711C281.445 51.5117 281.176 51.2305 280.84 51.0273C280.504 50.8242 280.098 50.7227 279.621 50.7227C279.145 50.7227 278.738 50.8242 278.402 51.0273C278.074 51.2305 277.805 51.5117 277.594 51.8711C277.391 52.2227 277.242 52.6289 277.148 53.0898C277.055 53.543 277.008 54.0273 277.008 54.543Z" fill="#888888"/>
<path d="M112.125 84.875V119H103.898V84.875H112.125ZM122.391 84.875V91.2266H93.8672V84.875H122.391ZM135.68 119.469C133.617 119.469 131.773 119.148 130.148 118.508C128.523 117.852 127.148 116.953 126.023 115.812C124.914 114.672 124.062 113.359 123.469 111.875C122.891 110.391 122.602 108.82 122.602 107.164V106.273C122.602 104.414 122.859 102.695 123.375 101.117C123.891 99.5234 124.656 98.1328 125.672 96.9453C126.688 95.7578 127.961 94.8359 129.492 94.1797C131.023 93.5078 132.805 93.1719 134.836 93.1719C136.633 93.1719 138.242 93.4609 139.664 94.0391C141.086 94.6172 142.289 95.4453 143.273 96.5234C144.273 97.6016 145.031 98.9062 145.547 100.438C146.078 101.969 146.344 103.688 146.344 105.594V108.805H125.625V103.859H138.633V103.25C138.648 102.406 138.5 101.688 138.188 101.094C137.891 100.5 137.453 100.047 136.875 99.7344C136.297 99.4219 135.594 99.2656 134.766 99.2656C133.906 99.2656 133.195 99.4531 132.633 99.8281C132.086 100.203 131.656 100.719 131.344 101.375C131.047 102.016 130.836 102.758 130.711 103.602C130.586 104.445 130.523 105.336 130.523 106.273V107.164C130.523 108.102 130.648 108.953 130.898 109.719C131.164 110.484 131.539 111.141 132.023 111.688C132.523 112.219 133.117 112.633 133.805 112.93C134.508 113.227 135.305 113.375 136.195 113.375C137.273 113.375 138.336 113.172 139.383 112.766C140.43 112.359 141.328 111.688 142.078 110.75L145.664 115.016C145.148 115.75 144.414 116.461 143.461 117.148C142.523 117.836 141.398 118.398 140.086 118.836C138.773 119.258 137.305 119.469 135.68 119.469ZM160.266 113.375C161 113.375 161.625 113.242 162.141 112.977C162.672 112.695 163.07 112.305 163.336 111.805C163.617 111.289 163.75 110.672 163.734 109.953H171.164C171.18 111.859 170.711 113.531 169.758 114.969C168.82 116.391 167.539 117.5 165.914 118.297C164.305 119.078 162.484 119.469 160.453 119.469C158.469 119.469 156.734 119.148 155.25 118.508C153.766 117.852 152.523 116.945 151.523 115.789C150.539 114.617 149.797 113.25 149.297 111.688C148.812 110.125 148.57 108.43 148.57 106.602V106.062C148.57 104.234 148.812 102.539 149.297 100.977C149.797 99.3984 150.539 98.0312 151.523 96.875C152.523 95.7031 153.758 94.7969 155.227 94.1562C156.711 93.5 158.438 93.1719 160.406 93.1719C162.516 93.1719 164.375 93.5703 165.984 94.3672C167.609 95.1641 168.883 96.3203 169.805 97.8359C170.727 99.3516 171.18 101.188 171.164 103.344H163.734C163.75 102.578 163.633 101.891 163.383 101.281C163.133 100.672 162.742 100.188 162.211 99.8281C161.695 99.4531 161.031 99.2656 160.219 99.2656C159.406 99.2656 158.75 99.4453 158.25 99.8047C157.75 100.164 157.367 100.664 157.102 101.305C156.852 101.93 156.68 102.648 156.586 103.461C156.508 104.273 156.469 105.141 156.469 106.062V106.602C156.469 107.539 156.508 108.422 156.586 109.25C156.68 110.062 156.859 110.781 157.125 111.406C157.391 112.016 157.773 112.5 158.273 112.859C158.773 113.203 159.438 113.375 160.266 113.375ZM182.273 83V119H174.375V83H182.273ZM181.336 105.453L179.484 105.5C179.484 103.719 179.703 102.078 180.141 100.578C180.578 99.0781 181.203 97.7734 182.016 96.6641C182.828 95.5547 183.805 94.6953 184.945 94.0859C186.086 93.4766 187.352 93.1719 188.742 93.1719C189.992 93.1719 191.133 93.3516 192.164 93.7109C193.211 94.0703 194.109 94.6484 194.859 95.4453C195.625 96.2422 196.211 97.2812 196.617 98.5625C197.039 99.8438 197.25 101.406 197.25 103.25V119H189.305V103.203C189.305 102.172 189.156 101.375 188.859 100.812C188.578 100.234 188.172 99.8359 187.641 99.6172C187.109 99.3828 186.461 99.2656 185.695 99.2656C184.773 99.2656 184.023 99.4219 183.445 99.7344C182.867 100.047 182.422 100.484 182.109 101.047C181.812 101.594 181.609 102.242 181.5 102.992C181.391 103.742 181.336 104.562 181.336 105.453ZM231.539 109.93C231.539 109.398 231.461 108.922 231.305 108.5C231.148 108.062 230.859 107.656 230.438 107.281C230.016 106.906 229.406 106.531 228.609 106.156C227.828 105.766 226.797 105.359 225.516 104.938C224.016 104.438 222.57 103.875 221.18 103.25C219.789 102.609 218.547 101.867 217.453 101.023C216.359 100.164 215.492 99.1641 214.852 98.0234C214.211 96.8672 213.891 95.5234 213.891 93.9922C213.891 92.5234 214.219 91.2031 214.875 90.0312C215.531 88.8438 216.445 87.8359 217.617 87.0078C218.805 86.1641 220.195 85.5234 221.789 85.0859C223.383 84.6328 225.125 84.4062 227.016 84.4062C229.516 84.4062 231.719 84.8438 233.625 85.7188C235.547 86.5781 237.047 87.8047 238.125 89.3984C239.219 90.9766 239.766 92.8438 239.766 95H231.586C231.586 94.1406 231.406 93.3828 231.047 92.7266C230.703 92.0703 230.18 91.5547 229.477 91.1797C228.773 90.8047 227.891 90.6172 226.828 90.6172C225.797 90.6172 224.93 90.7734 224.227 91.0859C223.523 91.3984 222.992 91.8203 222.633 92.3516C222.273 92.8672 222.094 93.4375 222.094 94.0625C222.094 94.5781 222.234 95.0469 222.516 95.4688C222.812 95.875 223.227 96.2578 223.758 96.6172C224.305 96.9766 224.961 97.3203 225.727 97.6484C226.508 97.9766 227.383 98.2969 228.352 98.6094C230.164 99.1875 231.773 99.8359 233.18 100.555C234.602 101.258 235.797 102.062 236.766 102.969C237.75 103.859 238.492 104.875 238.992 106.016C239.508 107.156 239.766 108.445 239.766 109.883C239.766 111.414 239.469 112.773 238.875 113.961C238.281 115.148 237.43 116.156 236.32 116.984C235.211 117.797 233.883 118.414 232.336 118.836C230.789 119.258 229.062 119.469 227.156 119.469C225.406 119.469 223.68 119.25 221.977 118.812C220.289 118.359 218.758 117.672 217.383 116.75C216.008 115.812 214.906 114.617 214.078 113.164C213.266 111.695 212.859 109.953 212.859 107.938H221.109C221.109 108.938 221.242 109.781 221.508 110.469C221.773 111.156 222.164 111.711 222.68 112.133C223.195 112.539 223.828 112.836 224.578 113.023C225.328 113.195 226.188 113.281 227.156 113.281C228.203 113.281 229.047 113.133 229.688 112.836C230.328 112.523 230.797 112.117 231.094 111.617C231.391 111.102 231.539 110.539 231.539 109.93ZM256.992 93.6406V99.125H241.711V93.6406H256.992ZM244.922 87.3359H252.82V110.727C252.82 111.398 252.898 111.922 253.055 112.297C253.211 112.656 253.477 112.914 253.852 113.07C254.242 113.211 254.758 113.281 255.398 113.281C255.852 113.281 256.227 113.273 256.523 113.258C256.82 113.227 257.102 113.188 257.367 113.141V118.789C256.695 119.008 255.992 119.172 255.258 119.281C254.523 119.406 253.742 119.469 252.914 119.469C251.227 119.469 249.781 119.203 248.578 118.672C247.391 118.141 246.484 117.305 245.859 116.164C245.234 115.023 244.922 113.539 244.922 111.711V87.3359ZM273.305 112.625V102.172C273.305 101.453 273.203 100.836 273 100.32C272.797 99.8047 272.477 99.4062 272.039 99.125C271.602 98.8281 271.016 98.6797 270.281 98.6797C269.688 98.6797 269.18 98.7812 268.758 98.9844C268.336 99.1875 268.016 99.4922 267.797 99.8984C267.578 100.305 267.469 100.82 267.469 101.445H259.57C259.57 100.273 259.828 99.1875 260.344 98.1875C260.875 97.1719 261.625 96.2891 262.594 95.5391C263.578 94.7891 264.75 94.2109 266.109 93.8047C267.484 93.3828 269.016 93.1719 270.703 93.1719C272.719 93.1719 274.516 93.5078 276.094 94.1797C277.688 94.8516 278.945 95.8594 279.867 97.2031C280.789 98.5312 281.25 100.203 281.25 102.219V112.602C281.25 114.258 281.344 115.516 281.531 116.375C281.719 117.219 281.984 117.961 282.328 118.602V119H274.406C274.031 118.219 273.75 117.266 273.562 116.141C273.391 115 273.305 113.828 273.305 112.625ZM274.266 103.508L274.312 107.727H270.82C270.086 107.727 269.461 107.828 268.945 108.031C268.445 108.234 268.039 108.516 267.727 108.875C267.43 109.219 267.211 109.609 267.07 110.047C266.945 110.484 266.883 110.945 266.883 111.43C266.883 111.898 266.992 112.32 267.211 112.695C267.445 113.055 267.758 113.336 268.148 113.539C268.539 113.742 268.977 113.844 269.461 113.844C270.336 113.844 271.078 113.68 271.688 113.352C272.312 113.008 272.789 112.594 273.117 112.109C273.445 111.625 273.609 111.172 273.609 110.75L275.344 113.984C275.031 114.609 274.672 115.242 274.266 115.883C273.875 116.523 273.383 117.117 272.789 117.664C272.211 118.195 271.5 118.633 270.656 118.977C269.812 119.305 268.789 119.469 267.586 119.469C266.023 119.469 264.586 119.148 263.273 118.508C261.977 117.867 260.938 116.977 260.156 115.836C259.375 114.68 258.984 113.352 258.984 111.852C258.984 110.539 259.219 109.367 259.688 108.336C260.172 107.305 260.898 106.43 261.867 105.711C262.836 104.992 264.07 104.445 265.57 104.07C267.07 103.695 268.836 103.508 270.867 103.508H274.266ZM296.344 113.375C297.078 113.375 297.703 113.242 298.219 112.977C298.75 112.695 299.148 112.305 299.414 111.805C299.695 111.289 299.828 110.672 299.812 109.953H307.242C307.258 111.859 306.789 113.531 305.836 114.969C304.898 116.391 303.617 117.5 301.992 118.297C300.383 119.078 298.562 119.469 296.531 119.469C294.547 119.469 292.812 119.148 291.328 118.508C289.844 117.852 288.602 116.945 287.602 115.789C286.617 114.617 285.875 113.25 285.375 111.688C284.891 110.125 284.648 108.43 284.648 106.602V106.062C284.648 104.234 284.891 102.539 285.375 100.977C285.875 99.3984 286.617 98.0312 287.602 96.875C288.602 95.7031 289.836 94.7969 291.305 94.1562C292.789 93.5 294.516 93.1719 296.484 93.1719C298.594 93.1719 300.453 93.5703 302.062 94.3672C303.688 95.1641 304.961 96.3203 305.883 97.8359C306.805 99.3516 307.258 101.188 307.242 103.344H299.812C299.828 102.578 299.711 101.891 299.461 101.281C299.211 100.672 298.82 100.188 298.289 99.8281C297.773 99.4531 297.109 99.2656 296.297 99.2656C295.484 99.2656 294.828 99.4453 294.328 99.8047C293.828 100.164 293.445 100.664 293.18 101.305C292.93 101.93 292.758 102.648 292.664 103.461C292.586 104.273 292.547 105.141 292.547 106.062V106.602C292.547 107.539 292.586 108.422 292.664 109.25C292.758 110.062 292.938 110.781 293.203 111.406C293.469 112.016 293.852 112.5 294.352 112.859C294.852 113.203 295.516 113.375 296.344 113.375ZM318.586 82.9766V119H310.688V82.9766H318.586ZM334.805 93.6406L323.789 106.555L318.023 112.32L314.578 107.305L319.383 101.047L325.336 93.6406H334.805ZM326.344 119L319.57 107.445L325.406 103.297L335.391 119H326.344Z" fill="black"/>
<path d="M1134 0H1348C1356.28 0 1363 6.71573 1363 15V148C1363 156.284 1356.28 163 1348 163H1134V0Z" fill="#1A96E3"/>
<path fill-rule="evenodd" clip-rule="evenodd" d="M1218.75 53C1218.62 53 1218.49 53.0527 1218.4 53.1464C1218.3 53.2402 1218.25 53.3674 1218.25 53.5V109.5C1218.25 109.633 1218.3 109.76 1218.4 109.854C1218.49 109.947 1218.62 110 1218.75 110H1278.25C1278.38 110 1278.51 109.947 1278.6 109.854C1278.7 109.76 1278.75 109.633 1278.75 109.5V64C1278.75 63.8674 1278.7 63.7402 1278.6 63.6464C1278.51 63.5527 1278.38 63.5 1278.25 63.5H1248.5C1247.61 63.5 1246.77 63.1045 1246.2 62.4206L1238.34 53H1218.75ZM1214.15 48.9038C1215.37 47.6848 1217.03 47 1218.75 47H1239.75C1240.64 47 1241.48 47.3955 1242.05 48.0794L1249.91 57.5H1278.25C1279.97 57.5 1281.63 58.1848 1282.85 59.4038C1284.07 60.6228 1284.75 62.2761 1284.75 64V109.5C1284.75 111.224 1284.07 112.877 1282.85 114.096C1281.63 115.315 1279.97 116 1278.25 116H1218.75C1217.03 116 1215.37 115.315 1214.15 114.096C1212.93 112.877 1212.25 111.224 1212.25 109.5V53.5C1212.25 51.7761 1212.93 50.1228 1214.15 48.9038Z" fill="white"/>
<path fill-rule="evenodd" clip-rule="evenodd" d="M1243.97 75.5251C1245.34 76.892 1245.34 79.108 1243.97 80.4749L1237.7 86.75L1243.97 93.0251C1245.34 94.392 1245.34 96.608 1243.97 97.9749C1242.61 99.3417 1240.39 99.3417 1239.03 97.9749L1230.28 89.2249C1228.91 87.858 1228.91 85.642 1230.28 84.2751L1239.03 75.5251C1240.39 74.1583 1242.61 74.1583 1243.97 75.5251Z" fill="white"/>
<path fill-rule="evenodd" clip-rule="evenodd" d="M1252.28 97.9749C1250.91 96.608 1250.91 94.392 1252.28 93.0251L1258.55 86.75L1252.28 80.4749C1250.91 79.108 1250.91 76.892 1252.28 75.5251C1253.64 74.1583 1255.86 74.1583 1257.22 75.5251L1265.97 84.2751C1267.34 85.642 1267.34 87.858 1265.97 89.2249L1257.22 97.9749C1255.86 99.3417 1253.64 99.3417 1252.28 97.9749Z" fill="white"/>
</svg>
