<svg width="1363" height="163" viewBox="0 0 1363 163" fill="none" xmlns="http://www.w3.org/2000/svg">
<path d="M0 15C0 6.71573 6.71573 0 15 0H37V163H15C6.71573 163 0 156.284 0 148V15Z" fill="#424242"/>
<rect width="1097" height="163" transform="translate(37)" fill="#F0F0F0"/>
<path d="M101.906 53.9219L94.3945 51.2383V48.0859L104.602 52.375V54.6367L101.906 53.9219ZM94.3945 56.1719L101.918 53.4297L104.602 52.7852V55.0352L94.3945 59.3242V56.1719ZM116.414 43.9375V61H112.898V43.9375H116.414ZM123.211 51.2266V53.9688H115.453V51.2266H123.211ZM124.031 43.9375V46.6914H115.453V43.9375H124.031ZM133.102 57.9648V48.3203H136.477V61H133.301L133.102 57.9648ZM133.477 55.3633L134.473 55.3398C134.473 56.1836 134.375 56.9688 134.18 57.6953C133.984 58.4141 133.691 59.0391 133.301 59.5703C132.91 60.0938 132.418 60.5039 131.824 60.8008C131.23 61.0898 130.531 61.2344 129.727 61.2344C129.109 61.2344 128.539 61.1484 128.016 60.9766C127.5 60.7969 127.055 60.5195 126.68 60.1445C126.312 59.7617 126.023 59.2734 125.812 58.6797C125.609 58.0781 125.508 57.3555 125.508 56.5117V48.3203H128.883V56.5352C128.883 56.9102 128.926 57.2266 129.012 57.4844C129.105 57.7422 129.234 57.9531 129.398 58.1172C129.562 58.2812 129.754 58.3984 129.973 58.4688C130.199 58.5391 130.449 58.5742 130.723 58.5742C131.418 58.5742 131.965 58.4336 132.363 58.1523C132.77 57.8711 133.055 57.4883 133.219 57.0039C133.391 56.5117 133.477 55.9648 133.477 55.3633ZM142.617 43V61H139.23V43H142.617ZM148.969 43V61H145.582V43H148.969ZM166.828 56.5352C166.828 56.2305 166.781 55.957 166.688 55.7148C166.602 55.4648 166.438 55.2383 166.195 55.0352C165.953 54.8242 165.613 54.6172 165.176 54.4141C164.738 54.2109 164.172 54 163.477 53.7812C162.703 53.5312 161.969 53.25 161.273 52.9375C160.586 52.625 159.977 52.2617 159.445 51.8477C158.922 51.4258 158.508 50.9375 158.203 50.3828C157.906 49.8281 157.758 49.1836 157.758 48.4492C157.758 47.7383 157.914 47.0938 158.227 46.5156C158.539 45.9297 158.977 45.4297 159.539 45.0156C160.102 44.5938 160.766 44.2695 161.531 44.043C162.305 43.8164 163.152 43.7031 164.074 43.7031C165.332 43.7031 166.43 43.9297 167.367 44.3828C168.305 44.8359 169.031 45.457 169.547 46.2461C170.07 47.0352 170.332 47.9375 170.332 48.9531H166.84C166.84 48.4531 166.734 48.0156 166.523 47.6406C166.32 47.2578 166.008 46.957 165.586 46.7383C165.172 46.5195 164.648 46.4102 164.016 46.4102C163.406 46.4102 162.898 46.5039 162.492 46.6914C162.086 46.8711 161.781 47.1172 161.578 47.4297C161.375 47.7344 161.273 48.0781 161.273 48.4609C161.273 48.75 161.344 49.0117 161.484 49.2461C161.633 49.4805 161.852 49.6992 162.141 49.9023C162.43 50.1055 162.785 50.2969 163.207 50.4766C163.629 50.6562 164.117 50.832 164.672 51.0039C165.602 51.2852 166.418 51.6016 167.121 51.9531C167.832 52.3047 168.426 52.6992 168.902 53.1367C169.379 53.5742 169.738 54.0703 169.98 54.625C170.223 55.1797 170.344 55.8086 170.344 56.5117C170.344 57.2539 170.199 57.918 169.91 58.5039C169.621 59.0898 169.203 59.5859 168.656 59.9922C168.109 60.3984 167.457 60.707 166.699 60.918C165.941 61.1289 165.094 61.2344 164.156 61.2344C163.312 61.2344 162.48 61.125 161.66 60.9062C160.84 60.6797 160.094 60.3398 159.422 59.8867C158.758 59.4336 158.227 58.8555 157.828 58.1523C157.43 57.4492 157.23 56.6172 157.23 55.6562H160.758C160.758 56.1875 160.84 56.6367 161.004 57.0039C161.168 57.3711 161.398 57.668 161.695 57.8945C162 58.1211 162.359 58.2852 162.773 58.3867C163.195 58.4883 163.656 58.5391 164.156 58.5391C164.766 58.5391 165.266 58.4531 165.656 58.2812C166.055 58.1094 166.348 57.8711 166.535 57.5664C166.73 57.2617 166.828 56.918 166.828 56.5352ZM178.734 48.3203V50.7109H171.352V48.3203H178.734ZM173.18 45.1914H176.555V57.1797C176.555 57.5469 176.602 57.8281 176.695 58.0234C176.797 58.2188 176.945 58.3555 177.141 58.4336C177.336 58.5039 177.582 58.5391 177.879 58.5391C178.09 58.5391 178.277 58.5312 178.441 58.5156C178.613 58.4922 178.758 58.4688 178.875 58.4453L178.887 60.9297C178.598 61.0234 178.285 61.0977 177.949 61.1523C177.613 61.207 177.242 61.2344 176.836 61.2344C176.094 61.2344 175.445 61.1133 174.891 60.8711C174.344 60.6211 173.922 60.2227 173.625 59.6758C173.328 59.1289 173.18 58.4102 173.18 57.5195V45.1914ZM187.5 58.1406V52.4922C187.5 52.0859 187.434 51.7383 187.301 51.4492C187.168 51.1523 186.961 50.9219 186.68 50.7578C186.406 50.5938 186.051 50.5117 185.613 50.5117C185.238 50.5117 184.914 50.5781 184.641 50.7109C184.367 50.8359 184.156 51.0195 184.008 51.2617C183.859 51.4961 183.785 51.7734 183.785 52.0938H180.41C180.41 51.5547 180.535 51.043 180.785 50.5586C181.035 50.0742 181.398 49.6484 181.875 49.2812C182.352 48.9062 182.918 48.6133 183.574 48.4023C184.238 48.1914 184.98 48.0859 185.801 48.0859C186.785 48.0859 187.66 48.25 188.426 48.5781C189.191 48.9062 189.793 49.3984 190.23 50.0547C190.676 50.7109 190.898 51.5312 190.898 52.5156V57.9414C190.898 58.6367 190.941 59.207 191.027 59.6523C191.113 60.0898 191.238 60.4727 191.402 60.8008V61H187.992C187.828 60.6562 187.703 60.2266 187.617 59.7109C187.539 59.1875 187.5 58.6641 187.5 58.1406ZM187.945 53.2773L187.969 55.1875H186.082C185.637 55.1875 185.25 55.2383 184.922 55.3398C184.594 55.4414 184.324 55.5859 184.113 55.7734C183.902 55.9531 183.746 56.1641 183.645 56.4062C183.551 56.6484 183.504 56.9141 183.504 57.2031C183.504 57.4922 183.57 57.7539 183.703 57.9883C183.836 58.2148 184.027 58.3945 184.277 58.5273C184.527 58.6523 184.82 58.7148 185.156 58.7148C185.664 58.7148 186.105 58.6133 186.48 58.4102C186.855 58.207 187.145 57.957 187.348 57.6602C187.559 57.3633 187.668 57.082 187.676 56.8164L188.566 58.2461C188.441 58.5664 188.27 58.8984 188.051 59.2422C187.84 59.5859 187.57 59.9102 187.242 60.2148C186.914 60.5117 186.52 60.7578 186.059 60.9531C185.598 61.1406 185.051 61.2344 184.418 61.2344C183.613 61.2344 182.883 61.0742 182.227 60.7539C181.578 60.4258 181.062 59.9766 180.68 59.4062C180.305 58.8281 180.117 58.1719 180.117 57.4375C180.117 56.7734 180.242 56.1836 180.492 55.668C180.742 55.1523 181.109 54.7188 181.594 54.3672C182.086 54.0078 182.699 53.7383 183.434 53.5586C184.168 53.3711 185.02 53.2773 185.988 53.2773H187.945ZM198.738 58.5977C199.152 58.5977 199.52 58.5195 199.84 58.3633C200.16 58.1992 200.41 57.9727 200.59 57.6836C200.777 57.3867 200.875 57.0391 200.883 56.6406H204.059C204.051 57.5312 203.812 58.3242 203.344 59.0195C202.875 59.707 202.246 60.25 201.457 60.6484C200.668 61.0391 199.785 61.2344 198.809 61.2344C197.824 61.2344 196.965 61.0703 196.23 60.7422C195.504 60.4141 194.898 59.9609 194.414 59.3828C193.93 58.7969 193.566 58.1172 193.324 57.3438C193.082 56.5625 192.961 55.7266 192.961 54.8359V54.4961C192.961 53.5977 193.082 52.7617 193.324 51.9883C193.566 51.207 193.93 50.5273 194.414 49.9492C194.898 49.3633 195.504 48.9062 196.23 48.5781C196.957 48.25 197.809 48.0859 198.785 48.0859C199.824 48.0859 200.734 48.2852 201.516 48.6836C202.305 49.082 202.922 49.6523 203.367 50.3945C203.82 51.1289 204.051 52 204.059 53.0078H200.883C200.875 52.5859 200.785 52.2031 200.613 51.8594C200.449 51.5156 200.207 51.2422 199.887 51.0391C199.574 50.8281 199.188 50.7227 198.727 50.7227C198.234 50.7227 197.832 50.8281 197.52 51.0391C197.207 51.2422 196.965 51.5234 196.793 51.8828C196.621 52.2344 196.5 52.6367 196.43 53.0898C196.367 53.5352 196.336 54.0039 196.336 54.4961V54.8359C196.336 55.3281 196.367 55.8008 196.43 56.2539C196.492 56.707 196.609 57.1094 196.781 57.4609C196.961 57.8125 197.207 58.0898 197.52 58.293C197.832 58.4961 198.238 58.5977 198.738 58.5977ZM209.391 42.9883V61H206.016V42.9883H209.391ZM217.383 48.3203L211.875 54.6016L208.922 57.5898L207.691 55.1523L210.035 52.1758L213.328 48.3203H217.383ZM213.879 61L210.129 55.1406L212.461 53.1016L217.77 61H213.879ZM230.262 61H226.547L226.57 58.2578H230.262C231.184 58.2578 231.961 58.0508 232.594 57.6367C233.227 57.2148 233.703 56.6016 234.023 55.7969C234.352 54.9922 234.516 54.0195 234.516 52.8789V52.0469C234.516 51.1719 234.422 50.4023 234.234 49.7383C234.055 49.0742 233.785 48.5156 233.426 48.0625C233.066 47.6094 232.625 47.2695 232.102 47.043C231.578 46.8086 230.977 46.6914 230.297 46.6914H226.477V43.9375H230.297C231.438 43.9375 232.48 44.1328 233.426 44.5234C234.379 44.9062 235.203 45.457 235.898 46.1758C236.594 46.8945 237.129 47.7539 237.504 48.7539C237.887 49.7461 238.078 50.8516 238.078 52.0703V52.8789C238.078 54.0898 237.887 55.1953 237.504 56.1953C237.129 57.1953 236.594 58.0547 235.898 58.7734C235.211 59.4844 234.387 60.0352 233.426 60.4258C232.473 60.8086 231.418 61 230.262 61ZM228.539 43.9375V61H225.023V43.9375H228.539ZM246.258 61.2344C245.273 61.2344 244.391 61.0781 243.609 60.7656C242.828 60.4453 242.164 60.0039 241.617 59.4414C241.078 58.8789 240.664 58.2266 240.375 57.4844C240.086 56.7344 239.941 55.9375 239.941 55.0938V54.625C239.941 53.6641 240.078 52.7852 240.352 51.9883C240.625 51.1914 241.016 50.5 241.523 49.9141C242.039 49.3281 242.664 48.8789 243.398 48.5664C244.133 48.2461 244.961 48.0859 245.883 48.0859C246.781 48.0859 247.578 48.2344 248.273 48.5312C248.969 48.8281 249.551 49.25 250.02 49.7969C250.496 50.3438 250.855 51 251.098 51.7656C251.34 52.5234 251.461 53.3672 251.461 54.2969V55.7031H241.383V53.4531H248.145V53.1953C248.145 52.7266 248.059 52.3086 247.887 51.9414C247.723 51.5664 247.473 51.2695 247.137 51.0508C246.801 50.832 246.371 50.7227 245.848 50.7227C245.402 50.7227 245.02 50.8203 244.699 51.0156C244.379 51.2109 244.117 51.4844 243.914 51.8359C243.719 52.1875 243.57 52.6016 243.469 53.0781C243.375 53.5469 243.328 54.0625 243.328 54.625V55.0938C243.328 55.6016 243.398 56.0703 243.539 56.5C243.688 56.9297 243.895 57.3008 244.16 57.6133C244.434 57.9258 244.762 58.168 245.145 58.3398C245.535 58.5117 245.977 58.5977 246.469 58.5977C247.078 58.5977 247.645 58.4805 248.168 58.2461C248.699 58.0039 249.156 57.6406 249.539 57.1562L251.18 58.9375C250.914 59.3203 250.551 59.6875 250.09 60.0391C249.637 60.3906 249.09 60.6797 248.449 60.9062C247.809 61.125 247.078 61.2344 246.258 61.2344ZM256.758 50.9453V61H253.371V48.3203H256.547L256.758 50.9453ZM256.289 54.2148H255.352C255.352 53.332 255.457 52.5195 255.668 51.7773C255.887 51.0273 256.203 50.3789 256.617 49.832C257.039 49.2773 257.559 48.8477 258.176 48.543C258.793 48.2383 259.508 48.0859 260.32 48.0859C260.883 48.0859 261.398 48.1719 261.867 48.3438C262.336 48.5078 262.738 48.7695 263.074 49.1289C263.418 49.4805 263.684 49.9414 263.871 50.5117C264.059 51.0742 264.152 51.75 264.152 52.5391V61H260.777V52.9141C260.777 52.3359 260.699 51.8906 260.543 51.5781C260.387 51.2656 260.164 51.0469 259.875 50.9219C259.594 50.7969 259.254 50.7344 258.855 50.7344C258.418 50.7344 258.035 50.8242 257.707 51.0039C257.387 51.1836 257.121 51.4336 256.91 51.7539C256.699 52.0664 256.543 52.4336 256.441 52.8555C256.34 53.2773 256.289 53.7305 256.289 54.2148ZM263.836 53.8281L262.629 53.9805C262.629 53.1523 262.73 52.3828 262.934 51.6719C263.145 50.9609 263.453 50.3359 263.859 49.7969C264.273 49.2578 264.785 48.8398 265.395 48.543C266.004 48.2383 266.707 48.0859 267.504 48.0859C268.113 48.0859 268.668 48.1758 269.168 48.3555C269.668 48.5273 270.094 48.8047 270.445 49.1875C270.805 49.5625 271.078 50.0547 271.266 50.6641C271.461 51.2734 271.559 52.0195 271.559 52.9023V61H268.172V52.9023C268.172 52.3164 268.094 51.8711 267.938 51.5664C267.789 51.2539 267.57 51.0391 267.281 50.9219C267 50.7969 266.664 50.7344 266.273 50.7344C265.867 50.7344 265.512 50.8164 265.207 50.9805C264.902 51.1367 264.648 51.3555 264.445 51.6367C264.242 51.918 264.09 52.2461 263.988 52.6211C263.887 52.9883 263.836 53.3906 263.836 53.8281ZM273.633 54.7891V54.543C273.633 53.6133 273.766 52.7578 274.031 51.9766C274.297 51.1875 274.684 50.5039 275.191 49.9258C275.699 49.3477 276.324 48.8984 277.066 48.5781C277.809 48.25 278.66 48.0859 279.621 48.0859C280.582 48.0859 281.438 48.25 282.188 48.5781C282.938 48.8984 283.566 49.3477 284.074 49.9258C284.59 50.5039 284.98 51.1875 285.246 51.9766C285.512 52.7578 285.645 53.6133 285.645 54.543V54.7891C285.645 55.7109 285.512 56.5664 285.246 57.3555C284.98 58.1367 284.59 58.8203 284.074 59.4062C283.566 59.9844 282.941 60.4336 282.199 60.7539C281.457 61.0742 280.605 61.2344 279.645 61.2344C278.684 61.2344 277.828 61.0742 277.078 60.7539C276.336 60.4336 275.707 59.9844 275.191 59.4062C274.684 58.8203 274.297 58.1367 274.031 57.3555C273.766 56.5664 273.633 55.7109 273.633 54.7891ZM277.008 54.543V54.7891C277.008 55.3203 277.055 55.8164 277.148 56.2773C277.242 56.7383 277.391 57.1445 277.594 57.4961C277.805 57.8398 278.078 58.1094 278.414 58.3047C278.75 58.5 279.16 58.5977 279.645 58.5977C280.113 58.5977 280.516 58.5 280.852 58.3047C281.188 58.1094 281.457 57.8398 281.66 57.4961C281.863 57.1445 282.012 56.7383 282.105 56.2773C282.207 55.8164 282.258 55.3203 282.258 54.7891V54.543C282.258 54.0273 282.207 53.543 282.105 53.0898C282.012 52.6289 281.859 52.2227 281.648 51.8711C281.445 51.5117 281.176 51.2305 280.84 51.0273C280.504 50.8242 280.098 50.7227 279.621 50.7227C279.145 50.7227 278.738 50.8242 278.402 51.0273C278.074 51.2305 277.805 51.5117 277.594 51.8711C277.391 52.2227 277.242 52.6289 277.148 53.0898C277.055 53.543 277.008 54.0273 277.008 54.543Z" fill="#888888"/>
<path d="M104.344 84.875V119H96.1406V84.875H104.344ZM117.727 99.0078V119H109.828V93.6406H117.234L117.727 99.0078ZM116.766 105.453L114.961 105.5C114.961 103.719 115.172 102.078 115.594 100.578C116.016 99.0781 116.641 97.7734 117.469 96.6641C118.297 95.5547 119.312 94.6953 120.516 94.0859C121.734 93.4766 123.141 93.1719 124.734 93.1719C125.844 93.1719 126.852 93.3438 127.758 93.6875C128.664 94.0156 129.445 94.5391 130.102 95.2578C130.758 95.9609 131.258 96.8828 131.602 98.0234C131.961 99.1484 132.141 100.5 132.141 102.078V119H124.242V103.086C124.242 102.008 124.117 101.195 123.867 100.648C123.633 100.102 123.289 99.7344 122.836 99.5469C122.383 99.3594 121.828 99.2656 121.172 99.2656C120.484 99.2656 119.867 99.4219 119.32 99.7344C118.773 100.047 118.305 100.484 117.914 101.047C117.539 101.594 117.25 102.242 117.047 102.992C116.859 103.742 116.766 104.562 116.766 105.453ZM131.25 105.453L129.047 105.5C129.047 103.719 129.242 102.078 129.633 100.578C130.039 99.0781 130.641 97.7734 131.438 96.6641C132.25 95.5547 133.258 94.6953 134.461 94.0859C135.664 93.4766 137.062 93.1719 138.656 93.1719C139.812 93.1719 140.875 93.3438 141.844 93.6875C142.812 94.0312 143.648 94.5859 144.352 95.3516C145.055 96.1172 145.602 97.1328 145.992 98.3984C146.383 99.6484 146.578 101.195 146.578 103.039V119H138.656V103.039C138.656 101.992 138.531 101.203 138.281 100.672C138.047 100.125 137.703 99.7578 137.25 99.5703C136.797 99.3672 136.258 99.2656 135.633 99.2656C134.883 99.2656 134.234 99.4219 133.688 99.7344C133.141 100.047 132.68 100.484 132.305 101.047C131.945 101.594 131.68 102.242 131.508 102.992C131.336 103.742 131.25 104.562 131.25 105.453ZM159.07 98.5156V128.75H151.172V93.6406H158.531L159.07 98.5156ZM174.633 106.016V106.508C174.633 108.352 174.422 110.062 174 111.641C173.578 113.219 172.953 114.594 172.125 115.766C171.297 116.938 170.266 117.852 169.031 118.508C167.812 119.148 166.398 119.469 164.789 119.469C163.273 119.469 161.969 119.133 160.875 118.461C159.781 117.789 158.867 116.859 158.133 115.672C157.398 114.484 156.805 113.125 156.352 111.594C155.898 110.062 155.539 108.445 155.273 106.742V106.109C155.539 104.281 155.898 102.586 156.352 101.023C156.805 99.4453 157.398 98.0703 158.133 96.8984C158.867 95.7266 159.773 94.8125 160.852 94.1562C161.945 93.5 163.25 93.1719 164.766 93.1719C166.375 93.1719 167.789 93.4766 169.008 94.0859C170.242 94.6953 171.273 95.5703 172.102 96.7109C172.945 97.8359 173.578 99.1875 174 100.766C174.422 102.344 174.633 104.094 174.633 106.016ZM166.734 106.508V106.016C166.734 105.031 166.664 104.133 166.523 103.32C166.383 102.492 166.156 101.773 165.844 101.164C165.547 100.555 165.148 100.086 164.648 99.7578C164.148 99.4297 163.531 99.2656 162.797 99.2656C161.953 99.2656 161.242 99.3984 160.664 99.6641C160.102 99.9141 159.648 100.305 159.305 100.836C158.977 101.352 158.742 102 158.602 102.781C158.477 103.547 158.422 104.445 158.438 105.477V107.398C158.406 108.586 158.523 109.633 158.789 110.539C159.055 111.43 159.516 112.125 160.172 112.625C160.828 113.125 161.719 113.375 162.844 113.375C163.594 113.375 164.219 113.203 164.719 112.859C165.219 112.5 165.617 112.008 165.914 111.383C166.211 110.742 166.422 110.008 166.547 109.18C166.672 108.352 166.734 107.461 166.734 106.508ZM186.492 83V119H178.57V83H186.492ZM203.648 119.469C201.586 119.469 199.742 119.148 198.117 118.508C196.492 117.852 195.117 116.953 193.992 115.812C192.883 114.672 192.031 113.359 191.438 111.875C190.859 110.391 190.57 108.82 190.57 107.164V106.273C190.57 104.414 190.828 102.695 191.344 101.117C191.859 99.5234 192.625 98.1328 193.641 96.9453C194.656 95.7578 195.93 94.8359 197.461 94.1797C198.992 93.5078 200.773 93.1719 202.805 93.1719C204.602 93.1719 206.211 93.4609 207.633 94.0391C209.055 94.6172 210.258 95.4453 211.242 96.5234C212.242 97.6016 213 98.9062 213.516 100.438C214.047 101.969 214.312 103.688 214.312 105.594V108.805H193.594V103.859H206.602V103.25C206.617 102.406 206.469 101.688 206.156 101.094C205.859 100.5 205.422 100.047 204.844 99.7344C204.266 99.4219 203.562 99.2656 202.734 99.2656C201.875 99.2656 201.164 99.4531 200.602 99.8281C200.055 100.203 199.625 100.719 199.312 101.375C199.016 102.016 198.805 102.758 198.68 103.602C198.555 104.445 198.492 105.336 198.492 106.273V107.164C198.492 108.102 198.617 108.953 198.867 109.719C199.133 110.484 199.508 111.141 199.992 111.688C200.492 112.219 201.086 112.633 201.773 112.93C202.477 113.227 203.273 113.375 204.164 113.375C205.242 113.375 206.305 113.172 207.352 112.766C208.398 112.359 209.297 111.688 210.047 110.75L213.633 115.016C213.117 115.75 212.383 116.461 211.43 117.148C210.492 117.836 209.367 118.398 208.055 118.836C206.742 119.258 205.273 119.469 203.648 119.469ZM225.492 99.0078V119H217.594V93.6406H225L225.492 99.0078ZM224.531 105.453L222.727 105.5C222.727 103.719 222.938 102.078 223.359 100.578C223.781 99.0781 224.406 97.7734 225.234 96.6641C226.062 95.5547 227.078 94.6953 228.281 94.0859C229.5 93.4766 230.906 93.1719 232.5 93.1719C233.609 93.1719 234.617 93.3438 235.523 93.6875C236.43 94.0156 237.211 94.5391 237.867 95.2578C238.523 95.9609 239.023 96.8828 239.367 98.0234C239.727 99.1484 239.906 100.5 239.906 102.078V119H232.008V103.086C232.008 102.008 231.883 101.195 231.633 100.648C231.398 100.102 231.055 99.7344 230.602 99.5469C230.148 99.3594 229.594 99.2656 228.938 99.2656C228.25 99.2656 227.633 99.4219 227.086 99.7344C226.539 100.047 226.07 100.484 225.68 101.047C225.305 101.594 225.016 102.242 224.812 102.992C224.625 103.742 224.531 104.562 224.531 105.453ZM239.016 105.453L236.812 105.5C236.812 103.719 237.008 102.078 237.398 100.578C237.805 99.0781 238.406 97.7734 239.203 96.6641C240.016 95.5547 241.023 94.6953 242.227 94.0859C243.43 93.4766 244.828 93.1719 246.422 93.1719C247.578 93.1719 248.641 93.3438 249.609 93.6875C250.578 94.0312 251.414 94.5859 252.117 95.3516C252.82 96.1172 253.367 97.1328 253.758 98.3984C254.148 99.6484 254.344 101.195 254.344 103.039V119H246.422V103.039C246.422 101.992 246.297 101.203 246.047 100.672C245.812 100.125 245.469 99.7578 245.016 99.5703C244.562 99.3672 244.023 99.2656 243.398 99.2656C242.648 99.2656 242 99.4219 241.453 99.7344C240.906 100.047 240.445 100.484 240.07 101.047C239.711 101.594 239.445 102.242 239.273 102.992C239.102 103.742 239.016 104.562 239.016 105.453ZM271.148 119.469C269.086 119.469 267.242 119.148 265.617 118.508C263.992 117.852 262.617 116.953 261.492 115.812C260.383 114.672 259.531 113.359 258.938 111.875C258.359 110.391 258.07 108.82 258.07 107.164V106.273C258.07 104.414 258.328 102.695 258.844 101.117C259.359 99.5234 260.125 98.1328 261.141 96.9453C262.156 95.7578 263.43 94.8359 264.961 94.1797C266.492 93.5078 268.273 93.1719 270.305 93.1719C272.102 93.1719 273.711 93.4609 275.133 94.0391C276.555 94.6172 277.758 95.4453 278.742 96.5234C279.742 97.6016 280.5 98.9062 281.016 100.438C281.547 101.969 281.812 103.688 281.812 105.594V108.805H261.094V103.859H274.102V103.25C274.117 102.406 273.969 101.688 273.656 101.094C273.359 100.5 272.922 100.047 272.344 99.7344C271.766 99.4219 271.062 99.2656 270.234 99.2656C269.375 99.2656 268.664 99.4531 268.102 99.8281C267.555 100.203 267.125 100.719 266.812 101.375C266.516 102.016 266.305 102.758 266.18 103.602C266.055 104.445 265.992 105.336 265.992 106.273V107.164C265.992 108.102 266.117 108.953 266.367 109.719C266.633 110.484 267.008 111.141 267.492 111.688C267.992 112.219 268.586 112.633 269.273 112.93C269.977 113.227 270.773 113.375 271.664 113.375C272.742 113.375 273.805 113.172 274.852 112.766C275.898 112.359 276.797 111.688 277.547 110.75L281.133 115.016C280.617 115.75 279.883 116.461 278.93 117.148C277.992 117.836 276.867 118.398 275.555 118.836C274.242 119.258 272.773 119.469 271.148 119.469ZM292.781 99.0547V119H284.883V93.6406H292.289L292.781 99.0547ZM291.844 105.453L289.992 105.5C289.992 103.562 290.227 101.836 290.695 100.32C291.164 98.7891 291.828 97.4922 292.688 96.4297C293.547 95.3672 294.57 94.5625 295.758 94.0156C296.961 93.4531 298.297 93.1719 299.766 93.1719C300.938 93.1719 302.008 93.3438 302.977 93.6875C303.961 94.0312 304.805 94.5859 305.508 95.3516C306.227 96.1172 306.773 97.1328 307.148 98.3984C307.539 99.6484 307.734 101.195 307.734 103.039V119H299.789V103.016C299.789 102 299.648 101.227 299.367 100.695C299.086 100.148 298.68 99.7734 298.148 99.5703C297.617 99.3672 296.969 99.2656 296.203 99.2656C295.391 99.2656 294.703 99.4219 294.141 99.7344C293.578 100.047 293.125 100.484 292.781 101.047C292.453 101.594 292.211 102.242 292.055 102.992C291.914 103.742 291.844 104.562 291.844 105.453ZM325.477 93.6406V99.125H310.195V93.6406H325.477ZM313.406 87.3359H321.305V110.727C321.305 111.398 321.383 111.922 321.539 112.297C321.695 112.656 321.961 112.914 322.336 113.07C322.727 113.211 323.242 113.281 323.883 113.281C324.336 113.281 324.711 113.273 325.008 113.258C325.305 113.227 325.586 113.188 325.852 113.141V118.789C325.18 119.008 324.477 119.172 323.742 119.281C323.008 119.406 322.227 119.469 321.398 119.469C319.711 119.469 318.266 119.203 317.062 118.672C315.875 118.141 314.969 117.305 314.344 116.164C313.719 115.023 313.406 113.539 313.406 111.711V87.3359ZM341.789 112.625V102.172C341.789 101.453 341.688 100.836 341.484 100.32C341.281 99.8047 340.961 99.4062 340.523 99.125C340.086 98.8281 339.5 98.6797 338.766 98.6797C338.172 98.6797 337.664 98.7812 337.242 98.9844C336.82 99.1875 336.5 99.4922 336.281 99.8984C336.062 100.305 335.953 100.82 335.953 101.445H328.055C328.055 100.273 328.312 99.1875 328.828 98.1875C329.359 97.1719 330.109 96.2891 331.078 95.5391C332.062 94.7891 333.234 94.2109 334.594 93.8047C335.969 93.3828 337.5 93.1719 339.188 93.1719C341.203 93.1719 343 93.5078 344.578 94.1797C346.172 94.8516 347.43 95.8594 348.352 97.2031C349.273 98.5312 349.734 100.203 349.734 102.219V112.602C349.734 114.258 349.828 115.516 350.016 116.375C350.203 117.219 350.469 117.961 350.812 118.602V119H342.891C342.516 118.219 342.234 117.266 342.047 116.141C341.875 115 341.789 113.828 341.789 112.625ZM342.75 103.508L342.797 107.727H339.305C338.57 107.727 337.945 107.828 337.43 108.031C336.93 108.234 336.523 108.516 336.211 108.875C335.914 109.219 335.695 109.609 335.555 110.047C335.43 110.484 335.367 110.945 335.367 111.43C335.367 111.898 335.477 112.32 335.695 112.695C335.93 113.055 336.242 113.336 336.633 113.539C337.023 113.742 337.461 113.844 337.945 113.844C338.82 113.844 339.562 113.68 340.172 113.352C340.797 113.008 341.273 112.594 341.602 112.109C341.93 111.625 342.094 111.172 342.094 110.75L343.828 113.984C343.516 114.609 343.156 115.242 342.75 115.883C342.359 116.523 341.867 117.117 341.273 117.664C340.695 118.195 339.984 118.633 339.141 118.977C338.297 119.305 337.273 119.469 336.07 119.469C334.508 119.469 333.07 119.148 331.758 118.508C330.461 117.867 329.422 116.977 328.641 115.836C327.859 114.68 327.469 113.352 327.469 111.852C327.469 110.539 327.703 109.367 328.172 108.336C328.656 107.305 329.383 106.43 330.352 105.711C331.32 104.992 332.555 104.445 334.055 104.07C335.555 103.695 337.32 103.508 339.352 103.508H342.75ZM367.477 93.6406V99.125H352.195V93.6406H367.477ZM355.406 87.3359H363.305V110.727C363.305 111.398 363.383 111.922 363.539 112.297C363.695 112.656 363.961 112.914 364.336 113.07C364.727 113.211 365.242 113.281 365.883 113.281C366.336 113.281 366.711 113.273 367.008 113.258C367.305 113.227 367.586 113.188 367.852 113.141V118.789C367.18 119.008 366.477 119.172 365.742 119.281C365.008 119.406 364.227 119.469 363.398 119.469C361.711 119.469 360.266 119.203 359.062 118.672C357.875 118.141 356.969 117.305 356.344 116.164C355.719 115.023 355.406 113.539 355.406 111.711V87.3359ZM378.961 93.6406V119H371.039V93.6406H378.961ZM370.57 87.1016C370.57 85.9766 370.977 85.0547 371.789 84.3359C372.602 83.6172 373.656 83.2578 374.953 83.2578C376.25 83.2578 377.305 83.6172 378.117 84.3359C378.93 85.0547 379.336 85.9766 379.336 87.1016C379.336 88.2266 378.93 89.1484 378.117 89.8672C377.305 90.5859 376.25 90.9453 374.953 90.9453C373.656 90.9453 372.602 90.5859 371.789 89.8672C370.977 89.1484 370.57 88.2266 370.57 87.1016ZM382.852 106.578V106.086C382.852 104.227 383.117 102.516 383.648 100.953C384.18 99.375 384.961 98.0078 385.992 96.8516C387.023 95.6953 388.297 94.7969 389.812 94.1562C391.328 93.5 393.078 93.1719 395.062 93.1719C397.062 93.1719 398.82 93.5 400.336 94.1562C401.867 94.7969 403.148 95.6953 404.18 96.8516C405.211 98.0078 405.992 99.375 406.523 100.953C407.055 102.516 407.32 104.227 407.32 106.086V106.578C407.32 108.422 407.055 110.133 406.523 111.711C405.992 113.273 405.211 114.641 404.18 115.812C403.148 116.969 401.875 117.867 400.359 118.508C398.844 119.148 397.094 119.469 395.109 119.469C393.125 119.469 391.367 119.148 389.836 118.508C388.305 117.867 387.023 116.969 385.992 115.812C384.961 114.641 384.18 113.273 383.648 111.711C383.117 110.133 382.852 108.422 382.852 106.578ZM390.75 106.086V106.578C390.75 107.531 390.82 108.422 390.961 109.25C391.102 110.078 391.336 110.805 391.664 111.43C391.992 112.039 392.438 112.516 393 112.859C393.562 113.203 394.266 113.375 395.109 113.375C395.938 113.375 396.625 113.203 397.172 112.859C397.734 112.516 398.18 112.039 398.508 111.43C398.836 110.805 399.07 110.078 399.211 109.25C399.352 108.422 399.422 107.531 399.422 106.578V106.086C399.422 105.164 399.352 104.297 399.211 103.484C399.07 102.656 398.836 101.93 398.508 101.305C398.18 100.664 397.734 100.164 397.172 99.8047C396.609 99.4453 395.906 99.2656 395.062 99.2656C394.234 99.2656 393.539 99.4453 392.977 99.8047C392.43 100.164 391.992 100.664 391.664 101.305C391.336 101.93 391.102 102.656 390.961 103.484C390.82 104.297 390.75 105.164 390.75 106.086ZM418.594 99.0547V119H410.695V93.6406H418.102L418.594 99.0547ZM417.656 105.453L415.805 105.5C415.805 103.562 416.039 101.836 416.508 100.32C416.977 98.7891 417.641 97.4922 418.5 96.4297C419.359 95.3672 420.383 94.5625 421.57 94.0156C422.773 93.4531 424.109 93.1719 425.578 93.1719C426.75 93.1719 427.82 93.3438 428.789 93.6875C429.773 94.0312 430.617 94.5859 431.32 95.3516C432.039 96.1172 432.586 97.1328 432.961 98.3984C433.352 99.6484 433.547 101.195 433.547 103.039V119H425.602V103.016C425.602 102 425.461 101.227 425.18 100.695C424.898 100.148 424.492 99.7734 423.961 99.5703C423.43 99.3672 422.781 99.2656 422.016 99.2656C421.203 99.2656 420.516 99.4219 419.953 99.7344C419.391 100.047 418.938 100.484 418.594 101.047C418.266 101.594 418.023 102.242 417.867 102.992C417.727 103.742 417.656 104.562 417.656 105.453Z" fill="black"/>
<path d="M1134 0H1348C1356.28 0 1363 6.71573 1363 15V148C1363 156.284 1356.28 163 1348 163H1134V0Z" fill="#1A96E3"/>
<path d="M1281 46.5H1216L1213.5 49V114L1216 116.5H1281L1283.5 114V49L1281 46.5ZM1278.5 111.5H1233.5V101.5H1245C1246.5 104.5 1250 106.5 1253.5 106.5C1259 106.5 1263.5 102 1263.5 96.5C1263.5 91 1259 86.5 1253.5 86.5C1248 86.5 1243.5 91 1243.5 96.5H1228.5V111.5H1218.5V51.5H1228.5V63C1225.5 64.5 1223.5 68 1223.5 71.5C1223.5 77 1228 81.5 1233.5 81.5C1239 81.5 1243.5 77 1243.5 71.5H1253.5C1253.5 77 1258 81.5 1263.5 81.5C1269 81.5 1273.5 77 1273.5 71.5C1273.5 66 1269 61.5 1263.5 61.5C1260 61.5 1256.5 63.5 1255 66.5H1242C1240.5 63.5 1237 61.5 1233.5 61.5V51.5H1278.5V111.5ZM1248.5 96.5C1248.5 93.5 1250.5 91.5 1253.5 91.5C1256.5 91.5 1258.5 93.5 1258.5 96.5C1258.5 99.5 1256.5 101.5 1253.5 101.5C1250.5 101.5 1248.5 99.5 1248.5 96.5ZM1233.5 66.5C1236.5 66.5 1238.5 68.5 1238.5 71.5C1238.5 74.5 1236.5 76.5 1233.5 76.5C1230.5 76.5 1228.5 74.5 1228.5 71.5C1228.5 68.5 1230.5 66.5 1233.5 66.5ZM1263.5 66.5C1266.5 66.5 1268.5 68.5 1268.5 71.5C1268.5 74.5 1266.5 76.5 1263.5 76.5C1260.5 76.5 1258.5 74.5 1258.5 71.5C1258.5 68.5 1260.5 66.5 1263.5 66.5Z" fill="white"/>
</svg>
