<svg width="1363" height="163" viewBox="0 0 1363 163" fill="none" xmlns="http://www.w3.org/2000/svg">
<path d="M0 15C0 6.71573 6.71573 0 15 0H37V163H15C6.71573 163 0 156.284 0 148V15Z" fill="#424242"/>
<rect width="1097" height="163" transform="translate(37)" fill="#F0F0F0"/>
<path d="M101.906 53.9219L94.3945 51.2383V48.0859L104.602 52.375V54.6367L101.906 53.9219ZM94.3945 56.1719L101.918 53.4297L104.602 52.7852V55.0352L94.3945 59.3242V56.1719ZM116.414 43.9375V61H112.898V43.9375H116.414ZM123.211 51.2266V53.9688H115.453V51.2266H123.211ZM124.031 43.9375V46.6914H115.453V43.9375H124.031ZM133.102 57.9648V48.3203H136.477V61H133.301L133.102 57.9648ZM133.477 55.3633L134.473 55.3398C134.473 56.1836 134.375 56.9688 134.18 57.6953C133.984 58.4141 133.691 59.0391 133.301 59.5703C132.91 60.0938 132.418 60.5039 131.824 60.8008C131.23 61.0898 130.531 61.2344 129.727 61.2344C129.109 61.2344 128.539 61.1484 128.016 60.9766C127.5 60.7969 127.055 60.5195 126.68 60.1445C126.312 59.7617 126.023 59.2734 125.812 58.6797C125.609 58.0781 125.508 57.3555 125.508 56.5117V48.3203H128.883V56.5352C128.883 56.9102 128.926 57.2266 129.012 57.4844C129.105 57.7422 129.234 57.9531 129.398 58.1172C129.562 58.2812 129.754 58.3984 129.973 58.4688C130.199 58.5391 130.449 58.5742 130.723 58.5742C131.418 58.5742 131.965 58.4336 132.363 58.1523C132.77 57.8711 133.055 57.4883 133.219 57.0039C133.391 56.5117 133.477 55.9648 133.477 55.3633ZM142.617 43V61H139.23V43H142.617ZM148.969 43V61H145.582V43H148.969ZM166.828 56.5352C166.828 56.2305 166.781 55.957 166.688 55.7148C166.602 55.4648 166.438 55.2383 166.195 55.0352C165.953 54.8242 165.613 54.6172 165.176 54.4141C164.738 54.2109 164.172 54 163.477 53.7812C162.703 53.5312 161.969 53.25 161.273 52.9375C160.586 52.625 159.977 52.2617 159.445 51.8477C158.922 51.4258 158.508 50.9375 158.203 50.3828C157.906 49.8281 157.758 49.1836 157.758 48.4492C157.758 47.7383 157.914 47.0938 158.227 46.5156C158.539 45.9297 158.977 45.4297 159.539 45.0156C160.102 44.5938 160.766 44.2695 161.531 44.043C162.305 43.8164 163.152 43.7031 164.074 43.7031C165.332 43.7031 166.43 43.9297 167.367 44.3828C168.305 44.8359 169.031 45.457 169.547 46.2461C170.07 47.0352 170.332 47.9375 170.332 48.9531H166.84C166.84 48.4531 166.734 48.0156 166.523 47.6406C166.32 47.2578 166.008 46.957 165.586 46.7383C165.172 46.5195 164.648 46.4102 164.016 46.4102C163.406 46.4102 162.898 46.5039 162.492 46.6914C162.086 46.8711 161.781 47.1172 161.578 47.4297C161.375 47.7344 161.273 48.0781 161.273 48.4609C161.273 48.75 161.344 49.0117 161.484 49.2461C161.633 49.4805 161.852 49.6992 162.141 49.9023C162.43 50.1055 162.785 50.2969 163.207 50.4766C163.629 50.6562 164.117 50.832 164.672 51.0039C165.602 51.2852 166.418 51.6016 167.121 51.9531C167.832 52.3047 168.426 52.6992 168.902 53.1367C169.379 53.5742 169.738 54.0703 169.98 54.625C170.223 55.1797 170.344 55.8086 170.344 56.5117C170.344 57.2539 170.199 57.918 169.91 58.5039C169.621 59.0898 169.203 59.5859 168.656 59.9922C168.109 60.3984 167.457 60.707 166.699 60.918C165.941 61.1289 165.094 61.2344 164.156 61.2344C163.312 61.2344 162.48 61.125 161.66 60.9062C160.84 60.6797 160.094 60.3398 159.422 59.8867C158.758 59.4336 158.227 58.8555 157.828 58.1523C157.43 57.4492 157.23 56.6172 157.23 55.6562H160.758C160.758 56.1875 160.84 56.6367 161.004 57.0039C161.168 57.3711 161.398 57.668 161.695 57.8945C162 58.1211 162.359 58.2852 162.773 58.3867C163.195 58.4883 163.656 58.5391 164.156 58.5391C164.766 58.5391 165.266 58.4531 165.656 58.2812C166.055 58.1094 166.348 57.8711 166.535 57.5664C166.73 57.2617 166.828 56.918 166.828 56.5352ZM178.734 48.3203V50.7109H171.352V48.3203H178.734ZM173.18 45.1914H176.555V57.1797C176.555 57.5469 176.602 57.8281 176.695 58.0234C176.797 58.2188 176.945 58.3555 177.141 58.4336C177.336 58.5039 177.582 58.5391 177.879 58.5391C178.09 58.5391 178.277 58.5312 178.441 58.5156C178.613 58.4922 178.758 58.4688 178.875 58.4453L178.887 60.9297C178.598 61.0234 178.285 61.0977 177.949 61.1523C177.613 61.207 177.242 61.2344 176.836 61.2344C176.094 61.2344 175.445 61.1133 174.891 60.8711C174.344 60.6211 173.922 60.2227 173.625 59.6758C173.328 59.1289 173.18 58.4102 173.18 57.5195V45.1914ZM187.5 58.1406V52.4922C187.5 52.0859 187.434 51.7383 187.301 51.4492C187.168 51.1523 186.961 50.9219 186.68 50.7578C186.406 50.5938 186.051 50.5117 185.613 50.5117C185.238 50.5117 184.914 50.5781 184.641 50.7109C184.367 50.8359 184.156 51.0195 184.008 51.2617C183.859 51.4961 183.785 51.7734 183.785 52.0938H180.41C180.41 51.5547 180.535 51.043 180.785 50.5586C181.035 50.0742 181.398 49.6484 181.875 49.2812C182.352 48.9062 182.918 48.6133 183.574 48.4023C184.238 48.1914 184.98 48.0859 185.801 48.0859C186.785 48.0859 187.66 48.25 188.426 48.5781C189.191 48.9062 189.793 49.3984 190.23 50.0547C190.676 50.7109 190.898 51.5312 190.898 52.5156V57.9414C190.898 58.6367 190.941 59.207 191.027 59.6523C191.113 60.0898 191.238 60.4727 191.402 60.8008V61H187.992C187.828 60.6562 187.703 60.2266 187.617 59.7109C187.539 59.1875 187.5 58.6641 187.5 58.1406ZM187.945 53.2773L187.969 55.1875H186.082C185.637 55.1875 185.25 55.2383 184.922 55.3398C184.594 55.4414 184.324 55.5859 184.113 55.7734C183.902 55.9531 183.746 56.1641 183.645 56.4062C183.551 56.6484 183.504 56.9141 183.504 57.2031C183.504 57.4922 183.57 57.7539 183.703 57.9883C183.836 58.2148 184.027 58.3945 184.277 58.5273C184.527 58.6523 184.82 58.7148 185.156 58.7148C185.664 58.7148 186.105 58.6133 186.48 58.4102C186.855 58.207 187.145 57.957 187.348 57.6602C187.559 57.3633 187.668 57.082 187.676 56.8164L188.566 58.2461C188.441 58.5664 188.27 58.8984 188.051 59.2422C187.84 59.5859 187.57 59.9102 187.242 60.2148C186.914 60.5117 186.52 60.7578 186.059 60.9531C185.598 61.1406 185.051 61.2344 184.418 61.2344C183.613 61.2344 182.883 61.0742 182.227 60.7539C181.578 60.4258 181.062 59.9766 180.68 59.4062C180.305 58.8281 180.117 58.1719 180.117 57.4375C180.117 56.7734 180.242 56.1836 180.492 55.668C180.742 55.1523 181.109 54.7188 181.594 54.3672C182.086 54.0078 182.699 53.7383 183.434 53.5586C184.168 53.3711 185.02 53.2773 185.988 53.2773H187.945ZM198.738 58.5977C199.152 58.5977 199.52 58.5195 199.84 58.3633C200.16 58.1992 200.41 57.9727 200.59 57.6836C200.777 57.3867 200.875 57.0391 200.883 56.6406H204.059C204.051 57.5312 203.812 58.3242 203.344 59.0195C202.875 59.707 202.246 60.25 201.457 60.6484C200.668 61.0391 199.785 61.2344 198.809 61.2344C197.824 61.2344 196.965 61.0703 196.23 60.7422C195.504 60.4141 194.898 59.9609 194.414 59.3828C193.93 58.7969 193.566 58.1172 193.324 57.3438C193.082 56.5625 192.961 55.7266 192.961 54.8359V54.4961C192.961 53.5977 193.082 52.7617 193.324 51.9883C193.566 51.207 193.93 50.5273 194.414 49.9492C194.898 49.3633 195.504 48.9062 196.23 48.5781C196.957 48.25 197.809 48.0859 198.785 48.0859C199.824 48.0859 200.734 48.2852 201.516 48.6836C202.305 49.082 202.922 49.6523 203.367 50.3945C203.82 51.1289 204.051 52 204.059 53.0078H200.883C200.875 52.5859 200.785 52.2031 200.613 51.8594C200.449 51.5156 200.207 51.2422 199.887 51.0391C199.574 50.8281 199.188 50.7227 198.727 50.7227C198.234 50.7227 197.832 50.8281 197.52 51.0391C197.207 51.2422 196.965 51.5234 196.793 51.8828C196.621 52.2344 196.5 52.6367 196.43 53.0898C196.367 53.5352 196.336 54.0039 196.336 54.4961V54.8359C196.336 55.3281 196.367 55.8008 196.43 56.2539C196.492 56.707 196.609 57.1094 196.781 57.4609C196.961 57.8125 197.207 58.0898 197.52 58.293C197.832 58.4961 198.238 58.5977 198.738 58.5977ZM209.391 42.9883V61H206.016V42.9883H209.391ZM217.383 48.3203L211.875 54.6016L208.922 57.5898L207.691 55.1523L210.035 52.1758L213.328 48.3203H217.383ZM213.879 61L210.129 55.1406L212.461 53.1016L217.77 61H213.879ZM230.262 61H226.547L226.57 58.2578H230.262C231.184 58.2578 231.961 58.0508 232.594 57.6367C233.227 57.2148 233.703 56.6016 234.023 55.7969C234.352 54.9922 234.516 54.0195 234.516 52.8789V52.0469C234.516 51.1719 234.422 50.4023 234.234 49.7383C234.055 49.0742 233.785 48.5156 233.426 48.0625C233.066 47.6094 232.625 47.2695 232.102 47.043C231.578 46.8086 230.977 46.6914 230.297 46.6914H226.477V43.9375H230.297C231.438 43.9375 232.48 44.1328 233.426 44.5234C234.379 44.9062 235.203 45.457 235.898 46.1758C236.594 46.8945 237.129 47.7539 237.504 48.7539C237.887 49.7461 238.078 50.8516 238.078 52.0703V52.8789C238.078 54.0898 237.887 55.1953 237.504 56.1953C237.129 57.1953 236.594 58.0547 235.898 58.7734C235.211 59.4844 234.387 60.0352 233.426 60.4258C232.473 60.8086 231.418 61 230.262 61ZM228.539 43.9375V61H225.023V43.9375H228.539ZM246.258 61.2344C245.273 61.2344 244.391 61.0781 243.609 60.7656C242.828 60.4453 242.164 60.0039 241.617 59.4414C241.078 58.8789 240.664 58.2266 240.375 57.4844C240.086 56.7344 239.941 55.9375 239.941 55.0938V54.625C239.941 53.6641 240.078 52.7852 240.352 51.9883C240.625 51.1914 241.016 50.5 241.523 49.9141C242.039 49.3281 242.664 48.8789 243.398 48.5664C244.133 48.2461 244.961 48.0859 245.883 48.0859C246.781 48.0859 247.578 48.2344 248.273 48.5312C248.969 48.8281 249.551 49.25 250.02 49.7969C250.496 50.3438 250.855 51 251.098 51.7656C251.34 52.5234 251.461 53.3672 251.461 54.2969V55.7031H241.383V53.4531H248.145V53.1953C248.145 52.7266 248.059 52.3086 247.887 51.9414C247.723 51.5664 247.473 51.2695 247.137 51.0508C246.801 50.832 246.371 50.7227 245.848 50.7227C245.402 50.7227 245.02 50.8203 244.699 51.0156C244.379 51.2109 244.117 51.4844 243.914 51.8359C243.719 52.1875 243.57 52.6016 243.469 53.0781C243.375 53.5469 243.328 54.0625 243.328 54.625V55.0938C243.328 55.6016 243.398 56.0703 243.539 56.5C243.688 56.9297 243.895 57.3008 244.16 57.6133C244.434 57.9258 244.762 58.168 245.145 58.3398C245.535 58.5117 245.977 58.5977 246.469 58.5977C247.078 58.5977 247.645 58.4805 248.168 58.2461C248.699 58.0039 249.156 57.6406 249.539 57.1562L251.18 58.9375C250.914 59.3203 250.551 59.6875 250.09 60.0391C249.637 60.3906 249.09 60.6797 248.449 60.9062C247.809 61.125 247.078 61.2344 246.258 61.2344ZM256.758 50.9453V61H253.371V48.3203H256.547L256.758 50.9453ZM256.289 54.2148H255.352C255.352 53.332 255.457 52.5195 255.668 51.7773C255.887 51.0273 256.203 50.3789 256.617 49.832C257.039 49.2773 257.559 48.8477 258.176 48.543C258.793 48.2383 259.508 48.0859 260.32 48.0859C260.883 48.0859 261.398 48.1719 261.867 48.3438C262.336 48.5078 262.738 48.7695 263.074 49.1289C263.418 49.4805 263.684 49.9414 263.871 50.5117C264.059 51.0742 264.152 51.75 264.152 52.5391V61H260.777V52.9141C260.777 52.3359 260.699 51.8906 260.543 51.5781C260.387 51.2656 260.164 51.0469 259.875 50.9219C259.594 50.7969 259.254 50.7344 258.855 50.7344C258.418 50.7344 258.035 50.8242 257.707 51.0039C257.387 51.1836 257.121 51.4336 256.91 51.7539C256.699 52.0664 256.543 52.4336 256.441 52.8555C256.34 53.2773 256.289 53.7305 256.289 54.2148ZM263.836 53.8281L262.629 53.9805C262.629 53.1523 262.73 52.3828 262.934 51.6719C263.145 50.9609 263.453 50.3359 263.859 49.7969C264.273 49.2578 264.785 48.8398 265.395 48.543C266.004 48.2383 266.707 48.0859 267.504 48.0859C268.113 48.0859 268.668 48.1758 269.168 48.3555C269.668 48.5273 270.094 48.8047 270.445 49.1875C270.805 49.5625 271.078 50.0547 271.266 50.6641C271.461 51.2734 271.559 52.0195 271.559 52.9023V61H268.172V52.9023C268.172 52.3164 268.094 51.8711 267.938 51.5664C267.789 51.2539 267.57 51.0391 267.281 50.9219C267 50.7969 266.664 50.7344 266.273 50.7344C265.867 50.7344 265.512 50.8164 265.207 50.9805C264.902 51.1367 264.648 51.3555 264.445 51.6367C264.242 51.918 264.09 52.2461 263.988 52.6211C263.887 52.9883 263.836 53.3906 263.836 53.8281ZM273.633 54.7891V54.543C273.633 53.6133 273.766 52.7578 274.031 51.9766C274.297 51.1875 274.684 50.5039 275.191 49.9258C275.699 49.3477 276.324 48.8984 277.066 48.5781C277.809 48.25 278.66 48.0859 279.621 48.0859C280.582 48.0859 281.438 48.25 282.188 48.5781C282.938 48.8984 283.566 49.3477 284.074 49.9258C284.59 50.5039 284.98 51.1875 285.246 51.9766C285.512 52.7578 285.645 53.6133 285.645 54.543V54.7891C285.645 55.7109 285.512 56.5664 285.246 57.3555C284.98 58.1367 284.59 58.8203 284.074 59.4062C283.566 59.9844 282.941 60.4336 282.199 60.7539C281.457 61.0742 280.605 61.2344 279.645 61.2344C278.684 61.2344 277.828 61.0742 277.078 60.7539C276.336 60.4336 275.707 59.9844 275.191 59.4062C274.684 58.8203 274.297 58.1367 274.031 57.3555C273.766 56.5664 273.633 55.7109 273.633 54.7891ZM277.008 54.543V54.7891C277.008 55.3203 277.055 55.8164 277.148 56.2773C277.242 56.7383 277.391 57.1445 277.594 57.4961C277.805 57.8398 278.078 58.1094 278.414 58.3047C278.75 58.5 279.16 58.5977 279.645 58.5977C280.113 58.5977 280.516 58.5 280.852 58.3047C281.188 58.1094 281.457 57.8398 281.66 57.4961C281.863 57.1445 282.012 56.7383 282.105 56.2773C282.207 55.8164 282.258 55.3203 282.258 54.7891V54.543C282.258 54.0273 282.207 53.543 282.105 53.0898C282.012 52.6289 281.859 52.2227 281.648 51.8711C281.445 51.5117 281.176 51.2305 280.84 51.0273C280.504 50.8242 280.098 50.7227 279.621 50.7227C279.145 50.7227 278.738 50.8242 278.402 51.0273C278.074 51.2305 277.805 51.5117 277.594 51.8711C277.391 52.2227 277.242 52.6289 277.148 53.0898C277.055 53.543 277.008 54.0273 277.008 54.543Z" fill="#888888"/>
<path d="M109.219 107.422H100.734V101.07H109.219C110.375 101.07 111.312 100.875 112.031 100.484C112.75 100.094 113.273 99.5547 113.602 98.8672C113.945 98.1641 114.117 97.375 114.117 96.5C114.117 95.5625 113.945 94.6953 113.602 93.8984C113.273 93.1016 112.75 92.4609 112.031 91.9766C111.312 91.4766 110.375 91.2266 109.219 91.2266H103.828V119H95.6016V84.875H109.219C111.953 84.875 114.305 85.375 116.273 86.375C118.258 87.375 119.781 88.75 120.844 90.5C121.906 92.2344 122.438 94.2188 122.438 96.4531C122.438 98.6562 121.906 100.578 120.844 102.219C119.781 103.859 118.258 105.141 116.273 106.062C114.305 106.969 111.953 107.422 109.219 107.422ZM134.461 99.9219V119H126.562V93.6406H133.945L134.461 99.9219ZM141.961 93.4531L141.82 100.789C141.508 100.758 141.086 100.719 140.555 100.672C140.023 100.625 139.578 100.602 139.219 100.602C138.297 100.602 137.5 100.711 136.828 100.93C136.172 101.133 135.625 101.445 135.188 101.867C134.766 102.273 134.453 102.789 134.25 103.414C134.062 104.039 133.977 104.766 133.992 105.594L132.562 104.656C132.562 102.953 132.727 101.406 133.055 100.016C133.398 98.6094 133.883 97.3984 134.508 96.3828C135.133 95.3516 135.891 94.5625 136.781 94.0156C137.672 93.4531 138.672 93.1719 139.781 93.1719C140.172 93.1719 140.555 93.1953 140.93 93.2422C141.32 93.2891 141.664 93.3594 141.961 93.4531ZM142.852 106.578V106.086C142.852 104.227 143.117 102.516 143.648 100.953C144.18 99.375 144.961 98.0078 145.992 96.8516C147.023 95.6953 148.297 94.7969 149.812 94.1562C151.328 93.5 153.078 93.1719 155.062 93.1719C157.062 93.1719 158.82 93.5 160.336 94.1562C161.867 94.7969 163.148 95.6953 164.18 96.8516C165.211 98.0078 165.992 99.375 166.523 100.953C167.055 102.516 167.32 104.227 167.32 106.086V106.578C167.32 108.422 167.055 110.133 166.523 111.711C165.992 113.273 165.211 114.641 164.18 115.812C163.148 116.969 161.875 117.867 160.359 118.508C158.844 119.148 157.094 119.469 155.109 119.469C153.125 119.469 151.367 119.148 149.836 118.508C148.305 117.867 147.023 116.969 145.992 115.812C144.961 114.641 144.18 113.273 143.648 111.711C143.117 110.133 142.852 108.422 142.852 106.578ZM150.75 106.086V106.578C150.75 107.531 150.82 108.422 150.961 109.25C151.102 110.078 151.336 110.805 151.664 111.43C151.992 112.039 152.438 112.516 153 112.859C153.562 113.203 154.266 113.375 155.109 113.375C155.938 113.375 156.625 113.203 157.172 112.859C157.734 112.516 158.18 112.039 158.508 111.43C158.836 110.805 159.07 110.078 159.211 109.25C159.352 108.422 159.422 107.531 159.422 106.578V106.086C159.422 105.164 159.352 104.297 159.211 103.484C159.07 102.656 158.836 101.93 158.508 101.305C158.18 100.664 157.734 100.164 157.172 99.8047C156.609 99.4453 155.906 99.2656 155.062 99.2656C154.234 99.2656 153.539 99.4453 152.977 99.8047C152.43 100.164 151.992 100.664 151.664 101.305C151.336 101.93 151.102 102.656 150.961 103.484C150.82 104.297 150.75 105.164 150.75 106.086ZM171.422 93.6406H179.344V119.82C179.344 121.852 178.953 123.562 178.172 124.953C177.391 126.359 176.273 127.422 174.82 128.141C173.367 128.875 171.633 129.242 169.617 129.242C168.945 129.242 168.328 129.211 167.766 129.148C167.188 129.102 166.555 129 165.867 128.844V122.867C166.273 122.93 166.648 122.977 166.992 123.008C167.336 123.055 167.711 123.078 168.117 123.078C168.836 123.078 169.438 122.961 169.922 122.727C170.406 122.492 170.773 122.133 171.023 121.648C171.289 121.164 171.422 120.555 171.422 119.82V93.6406ZM170.836 87.1016C170.836 85.9766 171.242 85.0547 172.055 84.3359C172.867 83.6172 173.922 83.2578 175.219 83.2578C176.516 83.2578 177.57 83.6172 178.383 84.3359C179.195 85.0547 179.602 85.9766 179.602 87.1016C179.602 88.2266 179.195 89.1484 178.383 89.8672C177.57 90.5859 176.516 90.9453 175.219 90.9453C173.922 90.9453 172.867 90.5859 172.055 89.8672C171.242 89.1484 170.836 88.2266 170.836 87.1016ZM196.102 119.469C194.039 119.469 192.195 119.148 190.57 118.508C188.945 117.852 187.57 116.953 186.445 115.812C185.336 114.672 184.484 113.359 183.891 111.875C183.312 110.391 183.023 108.82 183.023 107.164V106.273C183.023 104.414 183.281 102.695 183.797 101.117C184.312 99.5234 185.078 98.1328 186.094 96.9453C187.109 95.7578 188.383 94.8359 189.914 94.1797C191.445 93.5078 193.227 93.1719 195.258 93.1719C197.055 93.1719 198.664 93.4609 200.086 94.0391C201.508 94.6172 202.711 95.4453 203.695 96.5234C204.695 97.6016 205.453 98.9062 205.969 100.438C206.5 101.969 206.766 103.688 206.766 105.594V108.805H186.047V103.859H199.055V103.25C199.07 102.406 198.922 101.688 198.609 101.094C198.312 100.5 197.875 100.047 197.297 99.7344C196.719 99.4219 196.016 99.2656 195.188 99.2656C194.328 99.2656 193.617 99.4531 193.055 99.8281C192.508 100.203 192.078 100.719 191.766 101.375C191.469 102.016 191.258 102.758 191.133 103.602C191.008 104.445 190.945 105.336 190.945 106.273V107.164C190.945 108.102 191.07 108.953 191.32 109.719C191.586 110.484 191.961 111.141 192.445 111.688C192.945 112.219 193.539 112.633 194.227 112.93C194.93 113.227 195.727 113.375 196.617 113.375C197.695 113.375 198.758 113.172 199.805 112.766C200.852 112.359 201.75 111.688 202.5 110.75L206.086 115.016C205.57 115.75 204.836 116.461 203.883 117.148C202.945 117.836 201.82 118.398 200.508 118.836C199.195 119.258 197.727 119.469 196.102 119.469ZM220.688 113.375C221.422 113.375 222.047 113.242 222.562 112.977C223.094 112.695 223.492 112.305 223.758 111.805C224.039 111.289 224.172 110.672 224.156 109.953H231.586C231.602 111.859 231.133 113.531 230.18 114.969C229.242 116.391 227.961 117.5 226.336 118.297C224.727 119.078 222.906 119.469 220.875 119.469C218.891 119.469 217.156 119.148 215.672 118.508C214.188 117.852 212.945 116.945 211.945 115.789C210.961 114.617 210.219 113.25 209.719 111.688C209.234 110.125 208.992 108.43 208.992 106.602V106.062C208.992 104.234 209.234 102.539 209.719 100.977C210.219 99.3984 210.961 98.0312 211.945 96.875C212.945 95.7031 214.18 94.7969 215.648 94.1562C217.133 93.5 218.859 93.1719 220.828 93.1719C222.938 93.1719 224.797 93.5703 226.406 94.3672C228.031 95.1641 229.305 96.3203 230.227 97.8359C231.148 99.3516 231.602 101.188 231.586 103.344H224.156C224.172 102.578 224.055 101.891 223.805 101.281C223.555 100.672 223.164 100.188 222.633 99.8281C222.117 99.4531 221.453 99.2656 220.641 99.2656C219.828 99.2656 219.172 99.4453 218.672 99.8047C218.172 100.164 217.789 100.664 217.523 101.305C217.273 101.93 217.102 102.648 217.008 103.461C216.93 104.273 216.891 105.141 216.891 106.062V106.602C216.891 107.539 216.93 108.422 217.008 109.25C217.102 110.062 217.281 110.781 217.547 111.406C217.812 112.016 218.195 112.5 218.695 112.859C219.195 113.203 219.859 113.375 220.688 113.375ZM248.32 93.6406V99.125H233.039V93.6406H248.32ZM236.25 87.3359H244.148V110.727C244.148 111.398 244.227 111.922 244.383 112.297C244.539 112.656 244.805 112.914 245.18 113.07C245.57 113.211 246.086 113.281 246.727 113.281C247.18 113.281 247.555 113.273 247.852 113.258C248.148 113.227 248.43 113.188 248.695 113.141V118.789C248.023 119.008 247.32 119.172 246.586 119.281C245.852 119.406 245.07 119.469 244.242 119.469C242.555 119.469 241.109 119.203 239.906 118.672C238.719 118.141 237.812 117.305 237.188 116.164C236.562 115.023 236.25 113.539 236.25 111.711V87.3359ZM274.875 119H267.305L267.352 112.672H274.875C276.438 112.672 277.758 112.297 278.836 111.547C279.93 110.797 280.758 109.68 281.32 108.195C281.898 106.695 282.188 104.852 282.188 102.664V101.188C282.188 99.5469 282.023 98.1094 281.695 96.875C281.383 95.625 280.914 94.5859 280.289 93.7578C279.664 92.9141 278.883 92.2812 277.945 91.8594C277.023 91.4375 275.961 91.2266 274.758 91.2266H267.164V84.875H274.758C277.07 84.875 279.188 85.2734 281.109 86.0703C283.047 86.8516 284.719 87.9766 286.125 89.4453C287.547 90.8984 288.641 92.625 289.406 94.625C290.188 96.6094 290.578 98.8125 290.578 101.234V102.664C290.578 105.07 290.188 107.273 289.406 109.273C288.641 111.273 287.555 113 286.148 114.453C284.742 115.906 283.078 117.031 281.156 117.828C279.25 118.609 277.156 119 274.875 119ZM272.016 84.875V119H263.789V84.875H272.016ZM306.773 119.469C304.711 119.469 302.867 119.148 301.242 118.508C299.617 117.852 298.242 116.953 297.117 115.812C296.008 114.672 295.156 113.359 294.562 111.875C293.984 110.391 293.695 108.82 293.695 107.164V106.273C293.695 104.414 293.953 102.695 294.469 101.117C294.984 99.5234 295.75 98.1328 296.766 96.9453C297.781 95.7578 299.055 94.8359 300.586 94.1797C302.117 93.5078 303.898 93.1719 305.93 93.1719C307.727 93.1719 309.336 93.4609 310.758 94.0391C312.18 94.6172 313.383 95.4453 314.367 96.5234C315.367 97.6016 316.125 98.9062 316.641 100.438C317.172 101.969 317.438 103.688 317.438 105.594V108.805H296.719V103.859H309.727V103.25C309.742 102.406 309.594 101.688 309.281 101.094C308.984 100.5 308.547 100.047 307.969 99.7344C307.391 99.4219 306.688 99.2656 305.859 99.2656C305 99.2656 304.289 99.4531 303.727 99.8281C303.18 100.203 302.75 100.719 302.438 101.375C302.141 102.016 301.93 102.758 301.805 103.602C301.68 104.445 301.617 105.336 301.617 106.273V107.164C301.617 108.102 301.742 108.953 301.992 109.719C302.258 110.484 302.633 111.141 303.117 111.688C303.617 112.219 304.211 112.633 304.898 112.93C305.602 113.227 306.398 113.375 307.289 113.375C308.367 113.375 309.43 113.172 310.477 112.766C311.523 112.359 312.422 111.688 313.172 110.75L316.758 115.016C316.242 115.75 315.508 116.461 314.555 117.148C313.617 117.836 312.492 118.398 311.18 118.836C309.867 119.258 308.398 119.469 306.773 119.469ZM333.938 111.875C333.938 111.438 333.789 111.062 333.492 110.75C333.211 110.422 332.711 110.125 331.992 109.859C331.273 109.578 330.266 109.297 328.969 109.016C327.734 108.75 326.57 108.398 325.477 107.961C324.398 107.523 323.453 106.992 322.641 106.367C321.828 105.742 321.188 105 320.719 104.141C320.266 103.281 320.039 102.297 320.039 101.188C320.039 100.109 320.266 99.0938 320.719 98.1406C321.188 97.1719 321.867 96.3203 322.758 95.5859C323.664 94.8359 324.766 94.25 326.062 93.8281C327.359 93.3906 328.836 93.1719 330.492 93.1719C332.773 93.1719 334.742 93.5234 336.398 94.2266C338.055 94.9141 339.328 95.8828 340.219 97.1328C341.125 98.3672 341.578 99.7969 341.578 101.422H333.68C333.68 100.781 333.57 100.234 333.352 99.7812C333.148 99.3281 332.812 98.9844 332.344 98.75C331.875 98.5 331.25 98.375 330.469 98.375C329.922 98.375 329.422 98.4766 328.969 98.6797C328.531 98.8828 328.18 99.1641 327.914 99.5234C327.648 99.8828 327.516 100.305 327.516 100.789C327.516 101.133 327.594 101.445 327.75 101.727C327.922 101.992 328.18 102.242 328.523 102.477C328.867 102.695 329.305 102.898 329.836 103.086C330.367 103.258 331.008 103.414 331.758 103.555C333.461 103.867 335.055 104.312 336.539 104.891C338.023 105.469 339.227 106.289 340.148 107.352C341.086 108.414 341.555 109.844 341.555 111.641C341.555 112.766 341.297 113.805 340.781 114.758C340.266 115.695 339.523 116.523 338.555 117.242C337.586 117.945 336.422 118.492 335.062 118.883C333.703 119.273 332.172 119.469 330.469 119.469C328.047 119.469 326 119.039 324.328 118.18C322.656 117.305 321.391 116.211 320.531 114.898C319.688 113.57 319.266 112.227 319.266 110.867H326.625C326.656 111.648 326.844 112.289 327.188 112.789C327.547 113.289 328.023 113.656 328.617 113.891C329.211 114.125 329.898 114.242 330.68 114.242C331.398 114.242 331.992 114.141 332.461 113.938C332.945 113.734 333.312 113.461 333.562 113.117C333.812 112.758 333.938 112.344 333.938 111.875ZM355.969 113.375C356.703 113.375 357.328 113.242 357.844 112.977C358.375 112.695 358.773 112.305 359.039 111.805C359.32 111.289 359.453 110.672 359.438 109.953H366.867C366.883 111.859 366.414 113.531 365.461 114.969C364.523 116.391 363.242 117.5 361.617 118.297C360.008 119.078 358.188 119.469 356.156 119.469C354.172 119.469 352.438 119.148 350.953 118.508C349.469 117.852 348.227 116.945 347.227 115.789C346.242 114.617 345.5 113.25 345 111.688C344.516 110.125 344.273 108.43 344.273 106.602V106.062C344.273 104.234 344.516 102.539 345 100.977C345.5 99.3984 346.242 98.0312 347.227 96.875C348.227 95.7031 349.461 94.7969 350.93 94.1562C352.414 93.5 354.141 93.1719 356.109 93.1719C358.219 93.1719 360.078 93.5703 361.688 94.3672C363.312 95.1641 364.586 96.3203 365.508 97.8359C366.43 99.3516 366.883 101.188 366.867 103.344H359.438C359.453 102.578 359.336 101.891 359.086 101.281C358.836 100.672 358.445 100.188 357.914 99.8281C357.398 99.4531 356.734 99.2656 355.922 99.2656C355.109 99.2656 354.453 99.4453 353.953 99.8047C353.453 100.164 353.07 100.664 352.805 101.305C352.555 101.93 352.383 102.648 352.289 103.461C352.211 104.273 352.172 105.141 352.172 106.062V106.602C352.172 107.539 352.211 108.422 352.289 109.25C352.383 110.062 352.562 110.781 352.828 111.406C353.094 112.016 353.477 112.5 353.977 112.859C354.477 113.203 355.141 113.375 355.969 113.375ZM378.211 99.9219V119H370.312V93.6406H377.695L378.211 99.9219ZM385.711 93.4531L385.57 100.789C385.258 100.758 384.836 100.719 384.305 100.672C383.773 100.625 383.328 100.602 382.969 100.602C382.047 100.602 381.25 100.711 380.578 100.93C379.922 101.133 379.375 101.445 378.938 101.867C378.516 102.273 378.203 102.789 378 103.414C377.812 104.039 377.727 104.766 377.742 105.594L376.312 104.656C376.312 102.953 376.477 101.406 376.805 100.016C377.148 98.6094 377.633 97.3984 378.258 96.3828C378.883 95.3516 379.641 94.5625 380.531 94.0156C381.422 93.4531 382.422 93.1719 383.531 93.1719C383.922 93.1719 384.305 93.1953 384.68 93.2422C385.07 93.2891 385.414 93.3594 385.711 93.4531ZM396.773 93.6406V119H388.852V93.6406H396.773ZM388.383 87.1016C388.383 85.9766 388.789 85.0547 389.602 84.3359C390.414 83.6172 391.469 83.2578 392.766 83.2578C394.062 83.2578 395.117 83.6172 395.93 84.3359C396.742 85.0547 397.148 85.9766 397.148 87.1016C397.148 88.2266 396.742 89.1484 395.93 89.8672C395.117 90.5859 394.062 90.9453 392.766 90.9453C391.469 90.9453 390.414 90.5859 389.602 89.8672C388.789 89.1484 388.383 88.2266 388.383 87.1016ZM409.617 98.5156V128.75H401.719V93.6406H409.078L409.617 98.5156ZM425.18 106.016V106.508C425.18 108.352 424.969 110.062 424.547 111.641C424.125 113.219 423.5 114.594 422.672 115.766C421.844 116.938 420.812 117.852 419.578 118.508C418.359 119.148 416.945 119.469 415.336 119.469C413.82 119.469 412.516 119.133 411.422 118.461C410.328 117.789 409.414 116.859 408.68 115.672C407.945 114.484 407.352 113.125 406.898 111.594C406.445 110.062 406.086 108.445 405.82 106.742V106.109C406.086 104.281 406.445 102.586 406.898 101.023C407.352 99.4453 407.945 98.0703 408.68 96.8984C409.414 95.7266 410.32 94.8125 411.398 94.1562C412.492 93.5 413.797 93.1719 415.312 93.1719C416.922 93.1719 418.336 93.4766 419.555 94.0859C420.789 94.6953 421.82 95.5703 422.648 96.7109C423.492 97.8359 424.125 99.1875 424.547 100.766C424.969 102.344 425.18 104.094 425.18 106.016ZM417.281 106.508V106.016C417.281 105.031 417.211 104.133 417.07 103.32C416.93 102.492 416.703 101.773 416.391 101.164C416.094 100.555 415.695 100.086 415.195 99.7578C414.695 99.4297 414.078 99.2656 413.344 99.2656C412.5 99.2656 411.789 99.3984 411.211 99.6641C410.648 99.9141 410.195 100.305 409.852 100.836C409.523 101.352 409.289 102 409.148 102.781C409.023 103.547 408.969 104.445 408.984 105.477V107.398C408.953 108.586 409.07 109.633 409.336 110.539C409.602 111.43 410.062 112.125 410.719 112.625C411.375 113.125 412.266 113.375 413.391 113.375C414.141 113.375 414.766 113.203 415.266 112.859C415.766 112.5 416.164 112.008 416.461 111.383C416.758 110.742 416.969 110.008 417.094 109.18C417.219 108.352 417.281 107.461 417.281 106.508ZM442.055 93.6406V99.125H426.773V93.6406H442.055ZM429.984 87.3359H437.883V110.727C437.883 111.398 437.961 111.922 438.117 112.297C438.273 112.656 438.539 112.914 438.914 113.07C439.305 113.211 439.82 113.281 440.461 113.281C440.914 113.281 441.289 113.273 441.586 113.258C441.883 113.227 442.164 113.188 442.43 113.141V118.789C441.758 119.008 441.055 119.172 440.32 119.281C439.586 119.406 438.805 119.469 437.977 119.469C436.289 119.469 434.844 119.203 433.641 118.672C432.453 118.141 431.547 117.305 430.922 116.164C430.297 115.023 429.984 113.539 429.984 111.711V87.3359ZM453.539 93.6406V119H445.617V93.6406H453.539ZM445.148 87.1016C445.148 85.9766 445.555 85.0547 446.367 84.3359C447.18 83.6172 448.234 83.2578 449.531 83.2578C450.828 83.2578 451.883 83.6172 452.695 84.3359C453.508 85.0547 453.914 85.9766 453.914 87.1016C453.914 88.2266 453.508 89.1484 452.695 89.8672C451.883 90.5859 450.828 90.9453 449.531 90.9453C448.234 90.9453 447.18 90.5859 446.367 89.8672C445.555 89.1484 445.148 88.2266 445.148 87.1016ZM457.43 106.578V106.086C457.43 104.227 457.695 102.516 458.227 100.953C458.758 99.375 459.539 98.0078 460.57 96.8516C461.602 95.6953 462.875 94.7969 464.391 94.1562C465.906 93.5 467.656 93.1719 469.641 93.1719C471.641 93.1719 473.398 93.5 474.914 94.1562C476.445 94.7969 477.727 95.6953 478.758 96.8516C479.789 98.0078 480.57 99.375 481.102 100.953C481.633 102.516 481.898 104.227 481.898 106.086V106.578C481.898 108.422 481.633 110.133 481.102 111.711C480.57 113.273 479.789 114.641 478.758 115.812C477.727 116.969 476.453 117.867 474.938 118.508C473.422 119.148 471.672 119.469 469.688 119.469C467.703 119.469 465.945 119.148 464.414 118.508C462.883 117.867 461.602 116.969 460.57 115.812C459.539 114.641 458.758 113.273 458.227 111.711C457.695 110.133 457.43 108.422 457.43 106.578ZM465.328 106.086V106.578C465.328 107.531 465.398 108.422 465.539 109.25C465.68 110.078 465.914 110.805 466.242 111.43C466.57 112.039 467.016 112.516 467.578 112.859C468.141 113.203 468.844 113.375 469.688 113.375C470.516 113.375 471.203 113.203 471.75 112.859C472.312 112.516 472.758 112.039 473.086 111.43C473.414 110.805 473.648 110.078 473.789 109.25C473.93 108.422 474 107.531 474 106.578V106.086C474 105.164 473.93 104.297 473.789 103.484C473.648 102.656 473.414 101.93 473.086 101.305C472.758 100.664 472.312 100.164 471.75 99.8047C471.188 99.4453 470.484 99.2656 469.641 99.2656C468.812 99.2656 468.117 99.4453 467.555 99.8047C467.008 100.164 466.57 100.664 466.242 101.305C465.914 101.93 465.68 102.656 465.539 103.484C465.398 104.297 465.328 105.164 465.328 106.086ZM493.172 99.0547V119H485.273V93.6406H492.68L493.172 99.0547ZM492.234 105.453L490.383 105.5C490.383 103.562 490.617 101.836 491.086 100.32C491.555 98.7891 492.219 97.4922 493.078 96.4297C493.938 95.3672 494.961 94.5625 496.148 94.0156C497.352 93.4531 498.688 93.1719 500.156 93.1719C501.328 93.1719 502.398 93.3438 503.367 93.6875C504.352 94.0312 505.195 94.5859 505.898 95.3516C506.617 96.1172 507.164 97.1328 507.539 98.3984C507.93 99.6484 508.125 101.195 508.125 103.039V119H500.18V103.016C500.18 102 500.039 101.227 499.758 100.695C499.477 100.148 499.07 99.7734 498.539 99.5703C498.008 99.3672 497.359 99.2656 496.594 99.2656C495.781 99.2656 495.094 99.4219 494.531 99.7344C493.969 100.047 493.516 100.484 493.172 101.047C492.844 101.594 492.602 102.242 492.445 102.992C492.305 103.742 492.234 104.562 492.234 105.453Z" fill="black"/>
<path d="M1134 0H1348C1356.28 0 1363 6.71573 1363 15V148C1363 156.284 1356.28 163 1348 163H1134V0Z" fill="#008BBF"/>
<path d="M1234.26 103.786H1262.74V109.357H1234.26V103.786ZM1239.96 114.929H1257.04V120.5H1239.96V114.929ZM1248.5 42.5C1240.95 42.5 1233.71 45.4349 1228.37 50.6592C1223.03 55.8834 1220.03 62.969 1220.03 70.3571C1219.84 74.4057 1220.63 78.4412 1222.34 82.1315C1224.05 85.8219 1226.64 89.0616 1229.88 91.5843C1232.73 94.175 1234.26 95.6514 1234.26 98.2143H1239.96C1239.96 93.0886 1236.8 90.2193 1233.72 87.4614C1231.06 85.4676 1228.94 82.8658 1227.55 79.8838C1226.15 76.9019 1225.53 73.6308 1225.72 70.3571C1225.72 64.4466 1228.12 58.7781 1232.39 54.5988C1236.67 50.4194 1242.46 48.0714 1248.5 48.0714C1254.54 48.0714 1260.33 50.4194 1264.61 54.5988C1268.88 58.7781 1271.28 64.4466 1271.28 70.3571C1271.47 73.6333 1270.84 76.9059 1269.44 79.888C1268.04 82.8701 1265.92 85.4706 1263.25 87.4614C1260.2 90.2471 1257.04 93.0329 1257.04 98.2143H1262.74C1262.74 95.6514 1264.25 94.175 1267.12 91.5564C1270.36 89.0381 1272.94 85.8031 1274.66 82.1176C1276.37 78.4321 1277.16 74.4014 1276.97 70.3571C1276.97 66.6989 1276.24 63.0765 1274.81 59.6967C1273.37 56.3169 1271.28 53.2459 1268.63 50.6592C1265.99 48.0724 1262.85 46.0205 1259.4 44.6205C1255.94 43.2205 1252.24 42.5 1248.5 42.5Z" fill="white"/>
</svg>
