<svg width="1363" height="163" viewBox="0 0 1363 163" fill="none" xmlns="http://www.w3.org/2000/svg">
<path d="M0 15C0 6.71573 6.71573 0 15 0H37V163H15C6.71573 163 0 156.284 0 148V15Z" fill="#424242"/>
<rect width="1097" height="163" transform="translate(37)" fill="#F0F0F0"/>
<path d="M101.906 53.9219L94.3945 51.2383V48.0859L104.602 52.375V54.6367L101.906 53.9219ZM94.3945 56.1719L101.918 53.4297L104.602 52.7852V55.0352L94.3945 59.3242V56.1719ZM119.895 43.9375V61H116.391V43.9375H119.895ZM125.145 43.9375V46.6914H111.223V43.9375H125.145ZM124.359 54.7891V54.543C124.359 53.6133 124.492 52.7578 124.758 51.9766C125.023 51.1875 125.41 50.5039 125.918 49.9258C126.426 49.3477 127.051 48.8984 127.793 48.5781C128.535 48.25 129.387 48.0859 130.348 48.0859C131.309 48.0859 132.164 48.25 132.914 48.5781C133.664 48.8984 134.293 49.3477 134.801 49.9258C135.316 50.5039 135.707 51.1875 135.973 51.9766C136.238 52.7578 136.371 53.6133 136.371 54.543V54.7891C136.371 55.7109 136.238 56.5664 135.973 57.3555C135.707 58.1367 135.316 58.8203 134.801 59.4062C134.293 59.9844 133.668 60.4336 132.926 60.7539C132.184 61.0742 131.332 61.2344 130.371 61.2344C129.41 61.2344 128.555 61.0742 127.805 60.7539C127.062 60.4336 126.434 59.9844 125.918 59.4062C125.41 58.8203 125.023 58.1367 124.758 57.3555C124.492 56.5664 124.359 55.7109 124.359 54.7891ZM127.734 54.543V54.7891C127.734 55.3203 127.781 55.8164 127.875 56.2773C127.969 56.7383 128.117 57.1445 128.32 57.4961C128.531 57.8398 128.805 58.1094 129.141 58.3047C129.477 58.5 129.887 58.5977 130.371 58.5977C130.84 58.5977 131.242 58.5 131.578 58.3047C131.914 58.1094 132.184 57.8398 132.387 57.4961C132.59 57.1445 132.738 56.7383 132.832 56.2773C132.934 55.8164 132.984 55.3203 132.984 54.7891V54.543C132.984 54.0273 132.934 53.543 132.832 53.0898C132.738 52.6289 132.586 52.2227 132.375 51.8711C132.172 51.5117 131.902 51.2305 131.566 51.0273C131.23 50.8242 130.824 50.7227 130.348 50.7227C129.871 50.7227 129.465 50.8242 129.129 51.0273C128.801 51.2305 128.531 51.5117 128.32 51.8711C128.117 52.2227 127.969 52.6289 127.875 53.0898C127.781 53.543 127.734 54.0273 127.734 54.543ZM145.934 58.2344V43H149.332V61H146.273L145.934 58.2344ZM137.918 54.8125V54.5664C137.918 53.5977 138.027 52.7188 138.246 51.9297C138.465 51.1328 138.785 50.4492 139.207 49.8789C139.629 49.3086 140.148 48.8672 140.766 48.5547C141.383 48.2422 142.086 48.0859 142.875 48.0859C143.617 48.0859 144.266 48.2422 144.82 48.5547C145.383 48.8672 145.859 49.3125 146.25 49.8906C146.648 50.4609 146.969 51.1367 147.211 51.918C147.453 52.6914 147.629 53.5391 147.738 54.4609V55C147.629 55.8828 147.453 56.7031 147.211 57.4609C146.969 58.2188 146.648 58.8828 146.25 59.4531C145.859 60.0156 145.383 60.4531 144.82 60.7656C144.258 61.0781 143.602 61.2344 142.852 61.2344C142.062 61.2344 141.359 61.0742 140.742 60.7539C140.133 60.4336 139.617 59.9844 139.195 59.4062C138.781 58.8281 138.465 58.1484 138.246 57.3672C138.027 56.5859 137.918 55.7344 137.918 54.8125ZM141.293 54.5664V54.8125C141.293 55.3359 141.332 55.8242 141.41 56.2773C141.496 56.7305 141.633 57.1328 141.82 57.4844C142.016 57.8281 142.266 58.0977 142.57 58.293C142.883 58.4805 143.262 58.5742 143.707 58.5742C144.285 58.5742 144.762 58.4453 145.137 58.1875C145.512 57.9219 145.797 57.5586 145.992 57.0977C146.195 56.6367 146.312 56.1055 146.344 55.5039V53.9688C146.32 53.4766 146.25 53.0352 146.133 52.6445C146.023 52.2461 145.859 51.9062 145.641 51.625C145.43 51.3438 145.164 51.125 144.844 50.9688C144.531 50.8125 144.16 50.7344 143.73 50.7344C143.293 50.7344 142.918 50.8359 142.605 51.0391C142.293 51.2344 142.039 51.5039 141.844 51.8477C141.656 52.1914 141.516 52.5977 141.422 53.0664C141.336 53.5273 141.293 54.0273 141.293 54.5664ZM151.43 54.7891V54.543C151.43 53.6133 151.562 52.7578 151.828 51.9766C152.094 51.1875 152.48 50.5039 152.988 49.9258C153.496 49.3477 154.121 48.8984 154.863 48.5781C155.605 48.25 156.457 48.0859 157.418 48.0859C158.379 48.0859 159.234 48.25 159.984 48.5781C160.734 48.8984 161.363 49.3477 161.871 49.9258C162.387 50.5039 162.777 51.1875 163.043 51.9766C163.309 52.7578 163.441 53.6133 163.441 54.543V54.7891C163.441 55.7109 163.309 56.5664 163.043 57.3555C162.777 58.1367 162.387 58.8203 161.871 59.4062C161.363 59.9844 160.738 60.4336 159.996 60.7539C159.254 61.0742 158.402 61.2344 157.441 61.2344C156.48 61.2344 155.625 61.0742 154.875 60.7539C154.133 60.4336 153.504 59.9844 152.988 59.4062C152.48 58.8203 152.094 58.1367 151.828 57.3555C151.562 56.5664 151.43 55.7109 151.43 54.7891ZM154.805 54.543V54.7891C154.805 55.3203 154.852 55.8164 154.945 56.2773C155.039 56.7383 155.188 57.1445 155.391 57.4961C155.602 57.8398 155.875 58.1094 156.211 58.3047C156.547 58.5 156.957 58.5977 157.441 58.5977C157.91 58.5977 158.312 58.5 158.648 58.3047C158.984 58.1094 159.254 57.8398 159.457 57.4961C159.66 57.1445 159.809 56.7383 159.902 56.2773C160.004 55.8164 160.055 55.3203 160.055 54.7891V54.543C160.055 54.0273 160.004 53.543 159.902 53.0898C159.809 52.6289 159.656 52.2227 159.445 51.8711C159.242 51.5117 158.973 51.2305 158.637 51.0273C158.301 50.8242 157.895 50.7227 157.418 50.7227C156.941 50.7227 156.535 50.8242 156.199 51.0273C155.871 51.2305 155.602 51.5117 155.391 51.8711C155.188 52.2227 155.039 52.6289 154.945 53.0898C154.852 53.543 154.805 54.0273 154.805 54.543ZM178.641 46.8555L174 61H170.262L176.602 43.9375H178.98L178.641 46.8555ZM182.496 61L177.844 46.8555L177.469 43.9375H179.871L186.246 61H182.496ZM182.285 54.6484V57.4023H173.273V54.6484H182.285ZM190.617 50.7578V65.875H187.242V48.3203H190.371L190.617 50.7578ZM198.645 54.5195V54.7656C198.645 55.6875 198.535 56.543 198.316 57.332C198.105 58.1211 197.793 58.8086 197.379 59.3945C196.965 59.9727 196.449 60.4258 195.832 60.7539C195.223 61.0742 194.52 61.2344 193.723 61.2344C192.949 61.2344 192.277 61.0781 191.707 60.7656C191.137 60.4531 190.656 60.0156 190.266 59.4531C189.883 58.8828 189.574 58.2227 189.34 57.4727C189.105 56.7227 188.926 55.918 188.801 55.0586V54.4141C188.926 53.4922 189.105 52.6484 189.34 51.8828C189.574 51.1094 189.883 50.4414 190.266 49.8789C190.656 49.3086 191.133 48.8672 191.695 48.5547C192.266 48.2422 192.934 48.0859 193.699 48.0859C194.504 48.0859 195.211 48.2383 195.82 48.543C196.438 48.8477 196.953 49.2852 197.367 49.8555C197.789 50.4258 198.105 51.1055 198.316 51.8945C198.535 52.6836 198.645 53.5586 198.645 54.5195ZM195.258 54.7656V54.5195C195.258 53.9805 195.211 53.4844 195.117 53.0312C195.031 52.5703 194.891 52.168 194.695 51.8242C194.508 51.4805 194.258 51.2148 193.945 51.0273C193.641 50.832 193.27 50.7344 192.832 50.7344C192.371 50.7344 191.977 50.8086 191.648 50.957C191.328 51.1055 191.066 51.3203 190.863 51.6016C190.66 51.8828 190.508 52.2188 190.406 52.6094C190.305 53 190.242 53.4414 190.219 53.9336V55.5625C190.258 56.1406 190.367 56.6602 190.547 57.1211C190.727 57.5742 191.004 57.9336 191.379 58.1992C191.754 58.4648 192.246 58.5977 192.855 58.5977C193.301 58.5977 193.676 58.5 193.98 58.3047C194.285 58.1016 194.531 57.8242 194.719 57.4727C194.914 57.1211 195.051 56.7148 195.129 56.2539C195.215 55.793 195.258 55.2969 195.258 54.7656ZM204.117 50.7578V65.875H200.742V48.3203H203.871L204.117 50.7578ZM212.145 54.5195V54.7656C212.145 55.6875 212.035 56.543 211.816 57.332C211.605 58.1211 211.293 58.8086 210.879 59.3945C210.465 59.9727 209.949 60.4258 209.332 60.7539C208.723 61.0742 208.02 61.2344 207.223 61.2344C206.449 61.2344 205.777 61.0781 205.207 60.7656C204.637 60.4531 204.156 60.0156 203.766 59.4531C203.383 58.8828 203.074 58.2227 202.84 57.4727C202.605 56.7227 202.426 55.918 202.301 55.0586V54.4141C202.426 53.4922 202.605 52.6484 202.84 51.8828C203.074 51.1094 203.383 50.4414 203.766 49.8789C204.156 49.3086 204.633 48.8672 205.195 48.5547C205.766 48.2422 206.434 48.0859 207.199 48.0859C208.004 48.0859 208.711 48.2383 209.32 48.543C209.938 48.8477 210.453 49.2852 210.867 49.8555C211.289 50.4258 211.605 51.1055 211.816 51.8945C212.035 52.6836 212.145 53.5586 212.145 54.5195ZM208.758 54.7656V54.5195C208.758 53.9805 208.711 53.4844 208.617 53.0312C208.531 52.5703 208.391 52.168 208.195 51.8242C208.008 51.4805 207.758 51.2148 207.445 51.0273C207.141 50.832 206.77 50.7344 206.332 50.7344C205.871 50.7344 205.477 50.8086 205.148 50.957C204.828 51.1055 204.566 51.3203 204.363 51.6016C204.16 51.8828 204.008 52.2188 203.906 52.6094C203.805 53 203.742 53.4414 203.719 53.9336V55.5625C203.758 56.1406 203.867 56.6602 204.047 57.1211C204.227 57.5742 204.504 57.9336 204.879 58.1992C205.254 58.4648 205.746 58.5977 206.355 58.5977C206.801 58.5977 207.176 58.5 207.48 58.3047C207.785 58.1016 208.031 57.8242 208.219 57.4727C208.414 57.1211 208.551 56.7148 208.629 56.2539C208.715 55.793 208.758 55.2969 208.758 54.7656Z" fill="#888888"/>
<path d="M103.828 84.875V119H95.6016V84.875H103.828ZM117.094 99.0781V105.406H101.484V99.0781H117.094ZM118.43 84.875V91.2266H101.484V84.875H118.43ZM129.82 93.6406V119H121.898V93.6406H129.82ZM121.43 87.1016C121.43 85.9766 121.836 85.0547 122.648 84.3359C123.461 83.6172 124.516 83.2578 125.812 83.2578C127.109 83.2578 128.164 83.6172 128.977 84.3359C129.789 85.0547 130.195 85.9766 130.195 87.1016C130.195 88.2266 129.789 89.1484 128.977 89.8672C128.164 90.5859 127.109 90.9453 125.812 90.9453C124.516 90.9453 123.461 90.5859 122.648 89.8672C121.836 89.1484 121.43 88.2266 121.43 87.1016ZM150.633 93.6406H157.805V118.016C157.805 120.359 157.266 122.344 156.188 123.969C155.109 125.609 153.602 126.852 151.664 127.695C149.742 128.555 147.492 128.984 144.914 128.984C143.773 128.984 142.609 128.836 141.422 128.539C140.234 128.258 139.125 127.836 138.094 127.273C137.062 126.711 136.195 126.016 135.492 125.188L138.797 120.547C139.438 121.266 140.242 121.875 141.211 122.375C142.18 122.891 143.32 123.148 144.633 123.148C145.773 123.148 146.727 122.945 147.492 122.539C148.273 122.133 148.867 121.539 149.273 120.758C149.68 119.992 149.883 119.062 149.883 117.969V99.6406L150.633 93.6406ZM133.781 106.625V106.133C133.781 104.211 134.016 102.461 134.484 100.883C134.969 99.2891 135.656 97.9219 136.547 96.7812C137.453 95.625 138.547 94.7344 139.828 94.1094C141.109 93.4844 142.555 93.1719 144.164 93.1719C145.898 93.1719 147.32 93.5078 148.43 94.1797C149.555 94.8359 150.453 95.7578 151.125 96.9453C151.812 98.1328 152.344 99.5234 152.719 101.117C153.109 102.695 153.438 104.398 153.703 106.227V106.812C153.438 108.531 153.07 110.156 152.602 111.688C152.148 113.203 151.555 114.547 150.82 115.719C150.086 116.891 149.164 117.812 148.055 118.484C146.961 119.141 145.648 119.469 144.117 119.469C142.523 119.469 141.086 119.148 139.805 118.508C138.539 117.867 137.453 116.969 136.547 115.812C135.656 114.656 134.969 113.297 134.484 111.734C134.016 110.172 133.781 108.469 133.781 106.625ZM141.68 106.133V106.625C141.68 107.578 141.766 108.461 141.938 109.273C142.125 110.086 142.406 110.805 142.781 111.43C143.156 112.039 143.617 112.516 144.164 112.859C144.727 113.203 145.383 113.375 146.133 113.375C147.273 113.375 148.195 113.133 148.898 112.648C149.602 112.164 150.109 111.477 150.422 110.586C150.734 109.695 150.867 108.648 150.82 107.445V105.594C150.852 104.562 150.781 103.656 150.609 102.875C150.438 102.078 150.164 101.414 149.789 100.883C149.43 100.352 148.945 99.9531 148.336 99.6875C147.742 99.4062 147.023 99.2656 146.18 99.2656C145.445 99.2656 144.797 99.4375 144.234 99.7812C143.672 100.125 143.203 100.609 142.828 101.234C142.453 101.844 142.164 102.57 141.961 103.414C141.773 104.242 141.68 105.148 141.68 106.133ZM170.32 99.0078V119H162.422V93.6406H169.828L170.32 99.0078ZM169.359 105.453L167.555 105.5C167.555 103.719 167.766 102.078 168.188 100.578C168.609 99.0781 169.234 97.7734 170.062 96.6641C170.891 95.5547 171.906 94.6953 173.109 94.0859C174.328 93.4766 175.734 93.1719 177.328 93.1719C178.438 93.1719 179.445 93.3438 180.352 93.6875C181.258 94.0156 182.039 94.5391 182.695 95.2578C183.352 95.9609 183.852 96.8828 184.195 98.0234C184.555 99.1484 184.734 100.5 184.734 102.078V119H176.836V103.086C176.836 102.008 176.711 101.195 176.461 100.648C176.227 100.102 175.883 99.7344 175.43 99.5469C174.977 99.3594 174.422 99.2656 173.766 99.2656C173.078 99.2656 172.461 99.4219 171.914 99.7344C171.367 100.047 170.898 100.484 170.508 101.047C170.133 101.594 169.844 102.242 169.641 102.992C169.453 103.742 169.359 104.562 169.359 105.453ZM183.844 105.453L181.641 105.5C181.641 103.719 181.836 102.078 182.227 100.578C182.633 99.0781 183.234 97.7734 184.031 96.6641C184.844 95.5547 185.852 94.6953 187.055 94.0859C188.258 93.4766 189.656 93.1719 191.25 93.1719C192.406 93.1719 193.469 93.3438 194.438 93.6875C195.406 94.0312 196.242 94.5859 196.945 95.3516C197.648 96.1172 198.195 97.1328 198.586 98.3984C198.977 99.6484 199.172 101.195 199.172 103.039V119H191.25V103.039C191.25 101.992 191.125 101.203 190.875 100.672C190.641 100.125 190.297 99.7578 189.844 99.5703C189.391 99.3672 188.852 99.2656 188.227 99.2656C187.477 99.2656 186.828 99.4219 186.281 99.7344C185.734 100.047 185.273 100.484 184.898 101.047C184.539 101.594 184.273 102.242 184.102 102.992C183.93 103.742 183.844 104.562 183.844 105.453ZM216.867 112.625V102.172C216.867 101.453 216.766 100.836 216.562 100.32C216.359 99.8047 216.039 99.4062 215.602 99.125C215.164 98.8281 214.578 98.6797 213.844 98.6797C213.25 98.6797 212.742 98.7812 212.32 98.9844C211.898 99.1875 211.578 99.4922 211.359 99.8984C211.141 100.305 211.031 100.82 211.031 101.445H203.133C203.133 100.273 203.391 99.1875 203.906 98.1875C204.438 97.1719 205.188 96.2891 206.156 95.5391C207.141 94.7891 208.312 94.2109 209.672 93.8047C211.047 93.3828 212.578 93.1719 214.266 93.1719C216.281 93.1719 218.078 93.5078 219.656 94.1797C221.25 94.8516 222.508 95.8594 223.43 97.2031C224.352 98.5312 224.812 100.203 224.812 102.219V112.602C224.812 114.258 224.906 115.516 225.094 116.375C225.281 117.219 225.547 117.961 225.891 118.602V119H217.969C217.594 118.219 217.312 117.266 217.125 116.141C216.953 115 216.867 113.828 216.867 112.625ZM217.828 103.508L217.875 107.727H214.383C213.648 107.727 213.023 107.828 212.508 108.031C212.008 108.234 211.602 108.516 211.289 108.875C210.992 109.219 210.773 109.609 210.633 110.047C210.508 110.484 210.445 110.945 210.445 111.43C210.445 111.898 210.555 112.32 210.773 112.695C211.008 113.055 211.32 113.336 211.711 113.539C212.102 113.742 212.539 113.844 213.023 113.844C213.898 113.844 214.641 113.68 215.25 113.352C215.875 113.008 216.352 112.594 216.68 112.109C217.008 111.625 217.172 111.172 217.172 110.75L218.906 113.984C218.594 114.609 218.234 115.242 217.828 115.883C217.438 116.523 216.945 117.117 216.352 117.664C215.773 118.195 215.062 118.633 214.219 118.977C213.375 119.305 212.352 119.469 211.148 119.469C209.586 119.469 208.148 119.148 206.836 118.508C205.539 117.867 204.5 116.977 203.719 115.836C202.938 114.68 202.547 113.352 202.547 111.852C202.547 110.539 202.781 109.367 203.25 108.336C203.734 107.305 204.461 106.43 205.43 105.711C206.398 104.992 207.633 104.445 209.133 104.07C210.633 103.695 212.398 103.508 214.43 103.508H217.828ZM252.609 119H245.039L245.086 112.672H252.609C254.172 112.672 255.492 112.297 256.57 111.547C257.664 110.797 258.492 109.68 259.055 108.195C259.633 106.695 259.922 104.852 259.922 102.664V101.188C259.922 99.5469 259.758 98.1094 259.43 96.875C259.117 95.625 258.648 94.5859 258.023 93.7578C257.398 92.9141 256.617 92.2812 255.68 91.8594C254.758 91.4375 253.695 91.2266 252.492 91.2266H244.898V84.875H252.492C254.805 84.875 256.922 85.2734 258.844 86.0703C260.781 86.8516 262.453 87.9766 263.859 89.4453C265.281 90.8984 266.375 92.625 267.141 94.625C267.922 96.6094 268.312 98.8125 268.312 101.234V102.664C268.312 105.07 267.922 107.273 267.141 109.273C266.375 111.273 265.289 113 263.883 114.453C262.477 115.906 260.812 117.031 258.891 117.828C256.984 118.609 254.891 119 252.609 119ZM249.75 84.875V119H241.523V84.875H249.75ZM284.508 119.469C282.445 119.469 280.602 119.148 278.977 118.508C277.352 117.852 275.977 116.953 274.852 115.812C273.742 114.672 272.891 113.359 272.297 111.875C271.719 110.391 271.43 108.82 271.43 107.164V106.273C271.43 104.414 271.688 102.695 272.203 101.117C272.719 99.5234 273.484 98.1328 274.5 96.9453C275.516 95.7578 276.789 94.8359 278.32 94.1797C279.852 93.5078 281.633 93.1719 283.664 93.1719C285.461 93.1719 287.07 93.4609 288.492 94.0391C289.914 94.6172 291.117 95.4453 292.102 96.5234C293.102 97.6016 293.859 98.9062 294.375 100.438C294.906 101.969 295.172 103.688 295.172 105.594V108.805H274.453V103.859H287.461V103.25C287.477 102.406 287.328 101.688 287.016 101.094C286.719 100.5 286.281 100.047 285.703 99.7344C285.125 99.4219 284.422 99.2656 283.594 99.2656C282.734 99.2656 282.023 99.4531 281.461 99.8281C280.914 100.203 280.484 100.719 280.172 101.375C279.875 102.016 279.664 102.758 279.539 103.602C279.414 104.445 279.352 105.336 279.352 106.273V107.164C279.352 108.102 279.477 108.953 279.727 109.719C279.992 110.484 280.367 111.141 280.852 111.688C281.352 112.219 281.945 112.633 282.633 112.93C283.336 113.227 284.133 113.375 285.023 113.375C286.102 113.375 287.164 113.172 288.211 112.766C289.258 112.359 290.156 111.688 290.906 110.75L294.492 115.016C293.977 115.75 293.242 116.461 292.289 117.148C291.352 117.836 290.227 118.398 288.914 118.836C287.602 119.258 286.133 119.469 284.508 119.469ZM311.672 111.875C311.672 111.438 311.523 111.062 311.227 110.75C310.945 110.422 310.445 110.125 309.727 109.859C309.008 109.578 308 109.297 306.703 109.016C305.469 108.75 304.305 108.398 303.211 107.961C302.133 107.523 301.188 106.992 300.375 106.367C299.562 105.742 298.922 105 298.453 104.141C298 103.281 297.773 102.297 297.773 101.188C297.773 100.109 298 99.0938 298.453 98.1406C298.922 97.1719 299.602 96.3203 300.492 95.5859C301.398 94.8359 302.5 94.25 303.797 93.8281C305.094 93.3906 306.57 93.1719 308.227 93.1719C310.508 93.1719 312.477 93.5234 314.133 94.2266C315.789 94.9141 317.062 95.8828 317.953 97.1328C318.859 98.3672 319.312 99.7969 319.312 101.422H311.414C311.414 100.781 311.305 100.234 311.086 99.7812C310.883 99.3281 310.547 98.9844 310.078 98.75C309.609 98.5 308.984 98.375 308.203 98.375C307.656 98.375 307.156 98.4766 306.703 98.6797C306.266 98.8828 305.914 99.1641 305.648 99.5234C305.383 99.8828 305.25 100.305 305.25 100.789C305.25 101.133 305.328 101.445 305.484 101.727C305.656 101.992 305.914 102.242 306.258 102.477C306.602 102.695 307.039 102.898 307.57 103.086C308.102 103.258 308.742 103.414 309.492 103.555C311.195 103.867 312.789 104.312 314.273 104.891C315.758 105.469 316.961 106.289 317.883 107.352C318.82 108.414 319.289 109.844 319.289 111.641C319.289 112.766 319.031 113.805 318.516 114.758C318 115.695 317.258 116.523 316.289 117.242C315.32 117.945 314.156 118.492 312.797 118.883C311.438 119.273 309.906 119.469 308.203 119.469C305.781 119.469 303.734 119.039 302.062 118.18C300.391 117.305 299.125 116.211 298.266 114.898C297.422 113.57 297 112.227 297 110.867H304.359C304.391 111.648 304.578 112.289 304.922 112.789C305.281 113.289 305.758 113.656 306.352 113.891C306.945 114.125 307.633 114.242 308.414 114.242C309.133 114.242 309.727 114.141 310.195 113.938C310.68 113.734 311.047 113.461 311.297 113.117C311.547 112.758 311.672 112.344 311.672 111.875ZM331.336 93.6406V119H323.414V93.6406H331.336ZM322.945 87.1016C322.945 85.9766 323.352 85.0547 324.164 84.3359C324.977 83.6172 326.031 83.2578 327.328 83.2578C328.625 83.2578 329.68 83.6172 330.492 84.3359C331.305 85.0547 331.711 85.9766 331.711 87.1016C331.711 88.2266 331.305 89.1484 330.492 89.8672C329.68 90.5859 328.625 90.9453 327.328 90.9453C326.031 90.9453 324.977 90.5859 324.164 89.8672C323.352 89.1484 322.945 88.2266 322.945 87.1016ZM352.148 93.6406H359.32V118.016C359.32 120.359 358.781 122.344 357.703 123.969C356.625 125.609 355.117 126.852 353.18 127.695C351.258 128.555 349.008 128.984 346.43 128.984C345.289 128.984 344.125 128.836 342.938 128.539C341.75 128.258 340.641 127.836 339.609 127.273C338.578 126.711 337.711 126.016 337.008 125.188L340.312 120.547C340.953 121.266 341.758 121.875 342.727 122.375C343.695 122.891 344.836 123.148 346.148 123.148C347.289 123.148 348.242 122.945 349.008 122.539C349.789 122.133 350.383 121.539 350.789 120.758C351.195 119.992 351.398 119.062 351.398 117.969V99.6406L352.148 93.6406ZM335.297 106.625V106.133C335.297 104.211 335.531 102.461 336 100.883C336.484 99.2891 337.172 97.9219 338.062 96.7812C338.969 95.625 340.062 94.7344 341.344 94.1094C342.625 93.4844 344.07 93.1719 345.68 93.1719C347.414 93.1719 348.836 93.5078 349.945 94.1797C351.07 94.8359 351.969 95.7578 352.641 96.9453C353.328 98.1328 353.859 99.5234 354.234 101.117C354.625 102.695 354.953 104.398 355.219 106.227V106.812C354.953 108.531 354.586 110.156 354.117 111.688C353.664 113.203 353.07 114.547 352.336 115.719C351.602 116.891 350.68 117.812 349.57 118.484C348.477 119.141 347.164 119.469 345.633 119.469C344.039 119.469 342.602 119.148 341.32 118.508C340.055 117.867 338.969 116.969 338.062 115.812C337.172 114.656 336.484 113.297 336 111.734C335.531 110.172 335.297 108.469 335.297 106.625ZM343.195 106.133V106.625C343.195 107.578 343.281 108.461 343.453 109.273C343.641 110.086 343.922 110.805 344.297 111.43C344.672 112.039 345.133 112.516 345.68 112.859C346.242 113.203 346.898 113.375 347.648 113.375C348.789 113.375 349.711 113.133 350.414 112.648C351.117 112.164 351.625 111.477 351.938 110.586C352.25 109.695 352.383 108.648 352.336 107.445V105.594C352.367 104.562 352.297 103.656 352.125 102.875C351.953 102.078 351.68 101.414 351.305 100.883C350.945 100.352 350.461 99.9531 349.852 99.6875C349.258 99.4062 348.539 99.2656 347.695 99.2656C346.961 99.2656 346.312 99.4375 345.75 99.7812C345.188 100.125 344.719 100.609 344.344 101.234C343.969 101.844 343.68 102.57 343.477 103.414C343.289 104.242 343.195 105.148 343.195 106.133ZM371.625 99.0547V119H363.727V93.6406H371.133L371.625 99.0547ZM370.688 105.453L368.836 105.5C368.836 103.562 369.07 101.836 369.539 100.32C370.008 98.7891 370.672 97.4922 371.531 96.4297C372.391 95.3672 373.414 94.5625 374.602 94.0156C375.805 93.4531 377.141 93.1719 378.609 93.1719C379.781 93.1719 380.852 93.3438 381.82 93.6875C382.805 94.0312 383.648 94.5859 384.352 95.3516C385.07 96.1172 385.617 97.1328 385.992 98.3984C386.383 99.6484 386.578 101.195 386.578 103.039V119H378.633V103.016C378.633 102 378.492 101.227 378.211 100.695C377.93 100.148 377.523 99.7734 376.992 99.5703C376.461 99.3672 375.812 99.2656 375.047 99.2656C374.234 99.2656 373.547 99.4219 372.984 99.7344C372.422 100.047 371.969 100.484 371.625 101.047C371.297 101.594 371.055 102.242 370.898 102.992C370.758 103.742 370.688 104.562 370.688 105.453ZM404.25 111.875C404.25 111.438 404.102 111.062 403.805 110.75C403.523 110.422 403.023 110.125 402.305 109.859C401.586 109.578 400.578 109.297 399.281 109.016C398.047 108.75 396.883 108.398 395.789 107.961C394.711 107.523 393.766 106.992 392.953 106.367C392.141 105.742 391.5 105 391.031 104.141C390.578 103.281 390.352 102.297 390.352 101.188C390.352 100.109 390.578 99.0938 391.031 98.1406C391.5 97.1719 392.18 96.3203 393.07 95.5859C393.977 94.8359 395.078 94.25 396.375 93.8281C397.672 93.3906 399.148 93.1719 400.805 93.1719C403.086 93.1719 405.055 93.5234 406.711 94.2266C408.367 94.9141 409.641 95.8828 410.531 97.1328C411.438 98.3672 411.891 99.7969 411.891 101.422H403.992C403.992 100.781 403.883 100.234 403.664 99.7812C403.461 99.3281 403.125 98.9844 402.656 98.75C402.188 98.5 401.562 98.375 400.781 98.375C400.234 98.375 399.734 98.4766 399.281 98.6797C398.844 98.8828 398.492 99.1641 398.227 99.5234C397.961 99.8828 397.828 100.305 397.828 100.789C397.828 101.133 397.906 101.445 398.062 101.727C398.234 101.992 398.492 102.242 398.836 102.477C399.18 102.695 399.617 102.898 400.148 103.086C400.68 103.258 401.32 103.414 402.07 103.555C403.773 103.867 405.367 104.312 406.852 104.891C408.336 105.469 409.539 106.289 410.461 107.352C411.398 108.414 411.867 109.844 411.867 111.641C411.867 112.766 411.609 113.805 411.094 114.758C410.578 115.695 409.836 116.523 408.867 117.242C407.898 117.945 406.734 118.492 405.375 118.883C404.016 119.273 402.484 119.469 400.781 119.469C398.359 119.469 396.312 119.039 394.641 118.18C392.969 117.305 391.703 116.211 390.844 114.898C390 113.57 389.578 112.227 389.578 110.867H396.938C396.969 111.648 397.156 112.289 397.5 112.789C397.859 113.289 398.336 113.656 398.93 113.891C399.523 114.125 400.211 114.242 400.992 114.242C401.711 114.242 402.305 114.141 402.773 113.938C403.258 113.734 403.625 113.461 403.875 113.117C404.125 112.758 404.25 112.344 404.25 111.875Z" fill="black"/>
<path d="M1134 0H1348C1356.28 0 1363 6.71573 1363 15V148C1363 156.284 1356.28 163 1348 163H1134V0Z" fill="#008BBF"/>
<path fill-rule="evenodd" clip-rule="evenodd" d="M1202.75 46.5018C1202.75 45.3973 1203.65 44.5018 1204.75 44.5018H1292.25C1293.35 44.5018 1294.25 45.3973 1294.25 46.5018V116.498C1294.25 117.603 1293.35 118.498 1292.25 118.498H1204.75C1203.65 118.498 1202.75 117.603 1202.75 116.498V46.5018ZM1206.75 48.5018V52.9963H1290.25V48.5018H1206.75ZM1290.25 56.9963H1235.19V114.498H1290.25V56.9963ZM1231.19 114.498V56.9963H1206.75V114.498H1231.19Z" fill="white"/>
<path fill-rule="evenodd" clip-rule="evenodd" d="M1209.72 62.3022C1209.72 61.1976 1210.62 60.3022 1211.72 60.3022H1225.72C1226.83 60.3022 1227.72 61.1976 1227.72 62.3022V81.6974C1227.72 82.802 1226.83 83.6974 1225.72 83.6974H1211.72C1210.62 83.6974 1209.72 82.802 1209.72 81.6974V62.3022ZM1213.72 64.3022V79.6974H1223.72V64.3022H1213.72ZM1239.33 63.1982C1239.33 62.0936 1240.22 61.1982 1241.33 61.1982H1284.25C1285.36 61.1982 1286.25 62.0936 1286.25 63.1982V109.407C1286.25 110.511 1285.36 111.407 1284.25 111.407H1241.33C1240.22 111.407 1239.33 110.511 1239.33 109.407V63.1982ZM1243.33 65.1982V107.407H1282.25V65.1982H1243.33ZM1209.56 93.4381C1209.56 92.3336 1210.46 91.4381 1211.56 91.4381H1220.48C1221.59 91.4381 1222.48 92.3336 1222.48 93.4381C1222.48 94.5427 1221.59 95.4381 1220.48 95.4381H1211.56C1210.46 95.4381 1209.56 94.5427 1209.56 93.4381ZM1209.56 100.438C1209.56 99.3335 1210.46 98.4381 1211.56 98.4381H1226.1C1227.21 98.4381 1228.1 99.3335 1228.1 100.438C1228.1 101.543 1227.21 102.438 1226.1 102.438H1211.56C1210.46 102.438 1209.56 101.543 1209.56 100.438ZM1209.56 107.438C1209.56 106.334 1210.46 105.438 1211.56 105.438H1220.48C1221.59 105.438 1222.48 106.334 1222.48 107.438C1222.48 108.543 1221.59 109.438 1220.48 109.438H1211.56C1210.46 109.438 1209.56 108.543 1209.56 107.438Z" fill="white"/>
</svg>
