<svg width="1363" height="163" viewBox="0 0 1363 163" fill="none" xmlns="http://www.w3.org/2000/svg">
<path d="M0 15C0 6.71573 6.71573 0 15 0H37V163H15C6.71573 163 0 156.284 0 148V15Z" fill="#424242"/>
<rect width="1097" height="163" transform="translate(37)" fill="#F0F0F0"/>
<path d="M101.906 53.9219L94.3945 51.2383V48.0859L104.602 52.375V54.6367L101.906 53.9219ZM94.3945 56.1719L101.918 53.4297L104.602 52.7852V55.0352L94.3945 59.3242V56.1719ZM116.414 43.9375V61H112.898V43.9375H116.414ZM123.211 51.2266V53.9688H115.453V51.2266H123.211ZM124.031 43.9375V46.6914H115.453V43.9375H124.031ZM133.102 57.9648V48.3203H136.477V61H133.301L133.102 57.9648ZM133.477 55.3633L134.473 55.3398C134.473 56.1836 134.375 56.9688 134.18 57.6953C133.984 58.4141 133.691 59.0391 133.301 59.5703C132.91 60.0938 132.418 60.5039 131.824 60.8008C131.23 61.0898 130.531 61.2344 129.727 61.2344C129.109 61.2344 128.539 61.1484 128.016 60.9766C127.5 60.7969 127.055 60.5195 126.68 60.1445C126.312 59.7617 126.023 59.2734 125.812 58.6797C125.609 58.0781 125.508 57.3555 125.508 56.5117V48.3203H128.883V56.5352C128.883 56.9102 128.926 57.2266 129.012 57.4844C129.105 57.7422 129.234 57.9531 129.398 58.1172C129.562 58.2812 129.754 58.3984 129.973 58.4688C130.199 58.5391 130.449 58.5742 130.723 58.5742C131.418 58.5742 131.965 58.4336 132.363 58.1523C132.77 57.8711 133.055 57.4883 133.219 57.0039C133.391 56.5117 133.477 55.9648 133.477 55.3633ZM142.617 43V61H139.23V43H142.617ZM148.969 43V61H145.582V43H148.969ZM166.828 56.5352C166.828 56.2305 166.781 55.957 166.688 55.7148C166.602 55.4648 166.438 55.2383 166.195 55.0352C165.953 54.8242 165.613 54.6172 165.176 54.4141C164.738 54.2109 164.172 54 163.477 53.7812C162.703 53.5312 161.969 53.25 161.273 52.9375C160.586 52.625 159.977 52.2617 159.445 51.8477C158.922 51.4258 158.508 50.9375 158.203 50.3828C157.906 49.8281 157.758 49.1836 157.758 48.4492C157.758 47.7383 157.914 47.0938 158.227 46.5156C158.539 45.9297 158.977 45.4297 159.539 45.0156C160.102 44.5938 160.766 44.2695 161.531 44.043C162.305 43.8164 163.152 43.7031 164.074 43.7031C165.332 43.7031 166.43 43.9297 167.367 44.3828C168.305 44.8359 169.031 45.457 169.547 46.2461C170.07 47.0352 170.332 47.9375 170.332 48.9531H166.84C166.84 48.4531 166.734 48.0156 166.523 47.6406C166.32 47.2578 166.008 46.957 165.586 46.7383C165.172 46.5195 164.648 46.4102 164.016 46.4102C163.406 46.4102 162.898 46.5039 162.492 46.6914C162.086 46.8711 161.781 47.1172 161.578 47.4297C161.375 47.7344 161.273 48.0781 161.273 48.4609C161.273 48.75 161.344 49.0117 161.484 49.2461C161.633 49.4805 161.852 49.6992 162.141 49.9023C162.43 50.1055 162.785 50.2969 163.207 50.4766C163.629 50.6562 164.117 50.832 164.672 51.0039C165.602 51.2852 166.418 51.6016 167.121 51.9531C167.832 52.3047 168.426 52.6992 168.902 53.1367C169.379 53.5742 169.738 54.0703 169.98 54.625C170.223 55.1797 170.344 55.8086 170.344 56.5117C170.344 57.2539 170.199 57.918 169.91 58.5039C169.621 59.0898 169.203 59.5859 168.656 59.9922C168.109 60.3984 167.457 60.707 166.699 60.918C165.941 61.1289 165.094 61.2344 164.156 61.2344C163.312 61.2344 162.48 61.125 161.66 60.9062C160.84 60.6797 160.094 60.3398 159.422 59.8867C158.758 59.4336 158.227 58.8555 157.828 58.1523C157.43 57.4492 157.23 56.6172 157.23 55.6562H160.758C160.758 56.1875 160.84 56.6367 161.004 57.0039C161.168 57.3711 161.398 57.668 161.695 57.8945C162 58.1211 162.359 58.2852 162.773 58.3867C163.195 58.4883 163.656 58.5391 164.156 58.5391C164.766 58.5391 165.266 58.4531 165.656 58.2812C166.055 58.1094 166.348 57.8711 166.535 57.5664C166.73 57.2617 166.828 56.918 166.828 56.5352ZM178.734 48.3203V50.7109H171.352V48.3203H178.734ZM173.18 45.1914H176.555V57.1797C176.555 57.5469 176.602 57.8281 176.695 58.0234C176.797 58.2188 176.945 58.3555 177.141 58.4336C177.336 58.5039 177.582 58.5391 177.879 58.5391C178.09 58.5391 178.277 58.5312 178.441 58.5156C178.613 58.4922 178.758 58.4688 178.875 58.4453L178.887 60.9297C178.598 61.0234 178.285 61.0977 177.949 61.1523C177.613 61.207 177.242 61.2344 176.836 61.2344C176.094 61.2344 175.445 61.1133 174.891 60.8711C174.344 60.6211 173.922 60.2227 173.625 59.6758C173.328 59.1289 173.18 58.4102 173.18 57.5195V45.1914ZM187.5 58.1406V52.4922C187.5 52.0859 187.434 51.7383 187.301 51.4492C187.168 51.1523 186.961 50.9219 186.68 50.7578C186.406 50.5938 186.051 50.5117 185.613 50.5117C185.238 50.5117 184.914 50.5781 184.641 50.7109C184.367 50.8359 184.156 51.0195 184.008 51.2617C183.859 51.4961 183.785 51.7734 183.785 52.0938H180.41C180.41 51.5547 180.535 51.043 180.785 50.5586C181.035 50.0742 181.398 49.6484 181.875 49.2812C182.352 48.9062 182.918 48.6133 183.574 48.4023C184.238 48.1914 184.98 48.0859 185.801 48.0859C186.785 48.0859 187.66 48.25 188.426 48.5781C189.191 48.9062 189.793 49.3984 190.23 50.0547C190.676 50.7109 190.898 51.5312 190.898 52.5156V57.9414C190.898 58.6367 190.941 59.207 191.027 59.6523C191.113 60.0898 191.238 60.4727 191.402 60.8008V61H187.992C187.828 60.6562 187.703 60.2266 187.617 59.7109C187.539 59.1875 187.5 58.6641 187.5 58.1406ZM187.945 53.2773L187.969 55.1875H186.082C185.637 55.1875 185.25 55.2383 184.922 55.3398C184.594 55.4414 184.324 55.5859 184.113 55.7734C183.902 55.9531 183.746 56.1641 183.645 56.4062C183.551 56.6484 183.504 56.9141 183.504 57.2031C183.504 57.4922 183.57 57.7539 183.703 57.9883C183.836 58.2148 184.027 58.3945 184.277 58.5273C184.527 58.6523 184.82 58.7148 185.156 58.7148C185.664 58.7148 186.105 58.6133 186.48 58.4102C186.855 58.207 187.145 57.957 187.348 57.6602C187.559 57.3633 187.668 57.082 187.676 56.8164L188.566 58.2461C188.441 58.5664 188.27 58.8984 188.051 59.2422C187.84 59.5859 187.57 59.9102 187.242 60.2148C186.914 60.5117 186.52 60.7578 186.059 60.9531C185.598 61.1406 185.051 61.2344 184.418 61.2344C183.613 61.2344 182.883 61.0742 182.227 60.7539C181.578 60.4258 181.062 59.9766 180.68 59.4062C180.305 58.8281 180.117 58.1719 180.117 57.4375C180.117 56.7734 180.242 56.1836 180.492 55.668C180.742 55.1523 181.109 54.7188 181.594 54.3672C182.086 54.0078 182.699 53.7383 183.434 53.5586C184.168 53.3711 185.02 53.2773 185.988 53.2773H187.945ZM198.738 58.5977C199.152 58.5977 199.52 58.5195 199.84 58.3633C200.16 58.1992 200.41 57.9727 200.59 57.6836C200.777 57.3867 200.875 57.0391 200.883 56.6406H204.059C204.051 57.5312 203.812 58.3242 203.344 59.0195C202.875 59.707 202.246 60.25 201.457 60.6484C200.668 61.0391 199.785 61.2344 198.809 61.2344C197.824 61.2344 196.965 61.0703 196.23 60.7422C195.504 60.4141 194.898 59.9609 194.414 59.3828C193.93 58.7969 193.566 58.1172 193.324 57.3438C193.082 56.5625 192.961 55.7266 192.961 54.8359V54.4961C192.961 53.5977 193.082 52.7617 193.324 51.9883C193.566 51.207 193.93 50.5273 194.414 49.9492C194.898 49.3633 195.504 48.9062 196.23 48.5781C196.957 48.25 197.809 48.0859 198.785 48.0859C199.824 48.0859 200.734 48.2852 201.516 48.6836C202.305 49.082 202.922 49.6523 203.367 50.3945C203.82 51.1289 204.051 52 204.059 53.0078H200.883C200.875 52.5859 200.785 52.2031 200.613 51.8594C200.449 51.5156 200.207 51.2422 199.887 51.0391C199.574 50.8281 199.188 50.7227 198.727 50.7227C198.234 50.7227 197.832 50.8281 197.52 51.0391C197.207 51.2422 196.965 51.5234 196.793 51.8828C196.621 52.2344 196.5 52.6367 196.43 53.0898C196.367 53.5352 196.336 54.0039 196.336 54.4961V54.8359C196.336 55.3281 196.367 55.8008 196.43 56.2539C196.492 56.707 196.609 57.1094 196.781 57.4609C196.961 57.8125 197.207 58.0898 197.52 58.293C197.832 58.4961 198.238 58.5977 198.738 58.5977ZM209.391 42.9883V61H206.016V42.9883H209.391ZM217.383 48.3203L211.875 54.6016L208.922 57.5898L207.691 55.1523L210.035 52.1758L213.328 48.3203H217.383ZM213.879 61L210.129 55.1406L212.461 53.1016L217.77 61H213.879ZM230.262 61H226.547L226.57 58.2578H230.262C231.184 58.2578 231.961 58.0508 232.594 57.6367C233.227 57.2148 233.703 56.6016 234.023 55.7969C234.352 54.9922 234.516 54.0195 234.516 52.8789V52.0469C234.516 51.1719 234.422 50.4023 234.234 49.7383C234.055 49.0742 233.785 48.5156 233.426 48.0625C233.066 47.6094 232.625 47.2695 232.102 47.043C231.578 46.8086 230.977 46.6914 230.297 46.6914H226.477V43.9375H230.297C231.438 43.9375 232.48 44.1328 233.426 44.5234C234.379 44.9062 235.203 45.457 235.898 46.1758C236.594 46.8945 237.129 47.7539 237.504 48.7539C237.887 49.7461 238.078 50.8516 238.078 52.0703V52.8789C238.078 54.0898 237.887 55.1953 237.504 56.1953C237.129 57.1953 236.594 58.0547 235.898 58.7734C235.211 59.4844 234.387 60.0352 233.426 60.4258C232.473 60.8086 231.418 61 230.262 61ZM228.539 43.9375V61H225.023V43.9375H228.539ZM246.258 61.2344C245.273 61.2344 244.391 61.0781 243.609 60.7656C242.828 60.4453 242.164 60.0039 241.617 59.4414C241.078 58.8789 240.664 58.2266 240.375 57.4844C240.086 56.7344 239.941 55.9375 239.941 55.0938V54.625C239.941 53.6641 240.078 52.7852 240.352 51.9883C240.625 51.1914 241.016 50.5 241.523 49.9141C242.039 49.3281 242.664 48.8789 243.398 48.5664C244.133 48.2461 244.961 48.0859 245.883 48.0859C246.781 48.0859 247.578 48.2344 248.273 48.5312C248.969 48.8281 249.551 49.25 250.02 49.7969C250.496 50.3438 250.855 51 251.098 51.7656C251.34 52.5234 251.461 53.3672 251.461 54.2969V55.7031H241.383V53.4531H248.145V53.1953C248.145 52.7266 248.059 52.3086 247.887 51.9414C247.723 51.5664 247.473 51.2695 247.137 51.0508C246.801 50.832 246.371 50.7227 245.848 50.7227C245.402 50.7227 245.02 50.8203 244.699 51.0156C244.379 51.2109 244.117 51.4844 243.914 51.8359C243.719 52.1875 243.57 52.6016 243.469 53.0781C243.375 53.5469 243.328 54.0625 243.328 54.625V55.0938C243.328 55.6016 243.398 56.0703 243.539 56.5C243.688 56.9297 243.895 57.3008 244.16 57.6133C244.434 57.9258 244.762 58.168 245.145 58.3398C245.535 58.5117 245.977 58.5977 246.469 58.5977C247.078 58.5977 247.645 58.4805 248.168 58.2461C248.699 58.0039 249.156 57.6406 249.539 57.1562L251.18 58.9375C250.914 59.3203 250.551 59.6875 250.09 60.0391C249.637 60.3906 249.09 60.6797 248.449 60.9062C247.809 61.125 247.078 61.2344 246.258 61.2344ZM256.758 50.9453V61H253.371V48.3203H256.547L256.758 50.9453ZM256.289 54.2148H255.352C255.352 53.332 255.457 52.5195 255.668 51.7773C255.887 51.0273 256.203 50.3789 256.617 49.832C257.039 49.2773 257.559 48.8477 258.176 48.543C258.793 48.2383 259.508 48.0859 260.32 48.0859C260.883 48.0859 261.398 48.1719 261.867 48.3438C262.336 48.5078 262.738 48.7695 263.074 49.1289C263.418 49.4805 263.684 49.9414 263.871 50.5117C264.059 51.0742 264.152 51.75 264.152 52.5391V61H260.777V52.9141C260.777 52.3359 260.699 51.8906 260.543 51.5781C260.387 51.2656 260.164 51.0469 259.875 50.9219C259.594 50.7969 259.254 50.7344 258.855 50.7344C258.418 50.7344 258.035 50.8242 257.707 51.0039C257.387 51.1836 257.121 51.4336 256.91 51.7539C256.699 52.0664 256.543 52.4336 256.441 52.8555C256.34 53.2773 256.289 53.7305 256.289 54.2148ZM263.836 53.8281L262.629 53.9805C262.629 53.1523 262.73 52.3828 262.934 51.6719C263.145 50.9609 263.453 50.3359 263.859 49.7969C264.273 49.2578 264.785 48.8398 265.395 48.543C266.004 48.2383 266.707 48.0859 267.504 48.0859C268.113 48.0859 268.668 48.1758 269.168 48.3555C269.668 48.5273 270.094 48.8047 270.445 49.1875C270.805 49.5625 271.078 50.0547 271.266 50.6641C271.461 51.2734 271.559 52.0195 271.559 52.9023V61H268.172V52.9023C268.172 52.3164 268.094 51.8711 267.938 51.5664C267.789 51.2539 267.57 51.0391 267.281 50.9219C267 50.7969 266.664 50.7344 266.273 50.7344C265.867 50.7344 265.512 50.8164 265.207 50.9805C264.902 51.1367 264.648 51.3555 264.445 51.6367C264.242 51.918 264.09 52.2461 263.988 52.6211C263.887 52.9883 263.836 53.3906 263.836 53.8281ZM273.633 54.7891V54.543C273.633 53.6133 273.766 52.7578 274.031 51.9766C274.297 51.1875 274.684 50.5039 275.191 49.9258C275.699 49.3477 276.324 48.8984 277.066 48.5781C277.809 48.25 278.66 48.0859 279.621 48.0859C280.582 48.0859 281.438 48.25 282.188 48.5781C282.938 48.8984 283.566 49.3477 284.074 49.9258C284.59 50.5039 284.98 51.1875 285.246 51.9766C285.512 52.7578 285.645 53.6133 285.645 54.543V54.7891C285.645 55.7109 285.512 56.5664 285.246 57.3555C284.98 58.1367 284.59 58.8203 284.074 59.4062C283.566 59.9844 282.941 60.4336 282.199 60.7539C281.457 61.0742 280.605 61.2344 279.645 61.2344C278.684 61.2344 277.828 61.0742 277.078 60.7539C276.336 60.4336 275.707 59.9844 275.191 59.4062C274.684 58.8203 274.297 58.1367 274.031 57.3555C273.766 56.5664 273.633 55.7109 273.633 54.7891ZM277.008 54.543V54.7891C277.008 55.3203 277.055 55.8164 277.148 56.2773C277.242 56.7383 277.391 57.1445 277.594 57.4961C277.805 57.8398 278.078 58.1094 278.414 58.3047C278.75 58.5 279.16 58.5977 279.645 58.5977C280.113 58.5977 280.516 58.5 280.852 58.3047C281.188 58.1094 281.457 57.8398 281.66 57.4961C281.863 57.1445 282.012 56.7383 282.105 56.2773C282.207 55.8164 282.258 55.3203 282.258 54.7891V54.543C282.258 54.0273 282.207 53.543 282.105 53.0898C282.012 52.6289 281.859 52.2227 281.648 51.8711C281.445 51.5117 281.176 51.2305 280.84 51.0273C280.504 50.8242 280.098 50.7227 279.621 50.7227C279.145 50.7227 278.738 50.8242 278.402 51.0273C278.074 51.2305 277.805 51.5117 277.594 51.8711C277.391 52.2227 277.242 52.6289 277.148 53.0898C277.055 53.543 277.008 54.0273 277.008 54.543Z" fill="#888888"/>
<path d="M118.594 98.4219V104.75H101.086V98.4219H118.594ZM103.828 84.875V119H95.6016V84.875H103.828ZM124.125 84.875V119H115.922V84.875H124.125ZM127.992 106.578V106.086C127.992 104.227 128.258 102.516 128.789 100.953C129.32 99.375 130.102 98.0078 131.133 96.8516C132.164 95.6953 133.438 94.7969 134.953 94.1562C136.469 93.5 138.219 93.1719 140.203 93.1719C142.203 93.1719 143.961 93.5 145.477 94.1562C147.008 94.7969 148.289 95.6953 149.32 96.8516C150.352 98.0078 151.133 99.375 151.664 100.953C152.195 102.516 152.461 104.227 152.461 106.086V106.578C152.461 108.422 152.195 110.133 151.664 111.711C151.133 113.273 150.352 114.641 149.32 115.812C148.289 116.969 147.016 117.867 145.5 118.508C143.984 119.148 142.234 119.469 140.25 119.469C138.266 119.469 136.508 119.148 134.977 118.508C133.445 117.867 132.164 116.969 131.133 115.812C130.102 114.641 129.32 113.273 128.789 111.711C128.258 110.133 127.992 108.422 127.992 106.578ZM135.891 106.086V106.578C135.891 107.531 135.961 108.422 136.102 109.25C136.242 110.078 136.477 110.805 136.805 111.43C137.133 112.039 137.578 112.516 138.141 112.859C138.703 113.203 139.406 113.375 140.25 113.375C141.078 113.375 141.766 113.203 142.312 112.859C142.875 112.516 143.32 112.039 143.648 111.43C143.977 110.805 144.211 110.078 144.352 109.25C144.492 108.422 144.562 107.531 144.562 106.578V106.086C144.562 105.164 144.492 104.297 144.352 103.484C144.211 102.656 143.977 101.93 143.648 101.305C143.32 100.664 142.875 100.164 142.312 99.8047C141.75 99.4453 141.047 99.2656 140.203 99.2656C139.375 99.2656 138.68 99.4453 138.117 99.8047C137.57 100.164 137.133 100.664 136.805 101.305C136.477 101.93 136.242 102.656 136.102 103.484C135.961 104.297 135.891 105.164 135.891 106.086ZM163.688 111.453L168.375 93.6406H173.32L171.562 102.57L166.922 119H162.961L163.688 111.453ZM161.836 93.6406L164.742 111.312L165.07 119H160.266L154.266 93.6406H161.836ZM177.492 110.938L180.422 93.6406H187.992L182.039 119H177.234L177.492 110.938ZM173.883 93.6406L178.617 111.406L179.344 119H175.336L170.789 102.617L169.102 93.6406H173.883ZM218.297 84.875V119H210.07V84.875H218.297ZM228.562 84.875V91.2266H200.039V84.875H228.562ZM225.773 106.578V106.086C225.773 104.227 226.039 102.516 226.57 100.953C227.102 99.375 227.883 98.0078 228.914 96.8516C229.945 95.6953 231.219 94.7969 232.734 94.1562C234.25 93.5 236 93.1719 237.984 93.1719C239.984 93.1719 241.742 93.5 243.258 94.1562C244.789 94.7969 246.07 95.6953 247.102 96.8516C248.133 98.0078 248.914 99.375 249.445 100.953C249.977 102.516 250.242 104.227 250.242 106.086V106.578C250.242 108.422 249.977 110.133 249.445 111.711C248.914 113.273 248.133 114.641 247.102 115.812C246.07 116.969 244.797 117.867 243.281 118.508C241.766 119.148 240.016 119.469 238.031 119.469C236.047 119.469 234.289 119.148 232.758 118.508C231.227 117.867 229.945 116.969 228.914 115.812C227.883 114.641 227.102 113.273 226.57 111.711C226.039 110.133 225.773 108.422 225.773 106.578ZM233.672 106.086V106.578C233.672 107.531 233.742 108.422 233.883 109.25C234.023 110.078 234.258 110.805 234.586 111.43C234.914 112.039 235.359 112.516 235.922 112.859C236.484 113.203 237.188 113.375 238.031 113.375C238.859 113.375 239.547 113.203 240.094 112.859C240.656 112.516 241.102 112.039 241.43 111.43C241.758 110.805 241.992 110.078 242.133 109.25C242.273 108.422 242.344 107.531 242.344 106.578V106.086C242.344 105.164 242.273 104.297 242.133 103.484C241.992 102.656 241.758 101.93 241.43 101.305C241.102 100.664 240.656 100.164 240.094 99.8047C239.531 99.4453 238.828 99.2656 237.984 99.2656C237.156 99.2656 236.461 99.4453 235.898 99.8047C235.352 100.164 234.914 100.664 234.586 101.305C234.258 101.93 234.023 102.656 233.883 103.484C233.742 104.297 233.672 105.164 233.672 106.086ZM266.086 84.875H279.516C282.141 84.875 284.422 85.2656 286.359 86.0469C288.297 86.8281 289.789 87.9844 290.836 89.5156C291.898 91.0469 292.43 92.9375 292.43 95.1875C292.43 97.1406 292.125 98.7734 291.516 100.086C290.906 101.398 290.055 102.484 288.961 103.344C287.883 104.188 286.625 104.883 285.188 105.43L282.492 106.953H271.219L271.172 100.602H279.516C280.562 100.602 281.43 100.414 282.117 100.039C282.805 99.6641 283.32 99.1328 283.664 98.4453C284.023 97.7422 284.203 96.9062 284.203 95.9375C284.203 94.9531 284.023 94.1094 283.664 93.4062C283.305 92.7031 282.773 92.1641 282.07 91.7891C281.383 91.4141 280.531 91.2266 279.516 91.2266H274.312V119H266.086V84.875ZM284.766 119L277.219 103.906L285.938 103.859L293.578 118.648V119H284.766ZM311.836 112.836V93.6406H319.758V119H312.352L311.836 112.836ZM312.586 107.68L314.648 107.633C314.648 109.336 314.445 110.914 314.039 112.367C313.633 113.805 313.031 115.055 312.234 116.117C311.453 117.18 310.484 118.008 309.328 118.602C308.188 119.18 306.867 119.469 305.367 119.469C304.117 119.469 302.969 119.297 301.922 118.953C300.891 118.594 300 118.039 299.25 117.289C298.5 116.523 297.914 115.547 297.492 114.359C297.086 113.156 296.883 111.719 296.883 110.047V93.6406H304.781V110.094C304.781 110.656 304.852 111.141 304.992 111.547C305.133 111.953 305.336 112.297 305.602 112.578C305.867 112.844 306.195 113.047 306.586 113.188C306.992 113.312 307.453 113.375 307.969 113.375C309.156 113.375 310.086 113.125 310.758 112.625C311.43 112.125 311.898 111.445 312.164 110.586C312.445 109.727 312.586 108.758 312.586 107.68ZM331.875 99.0547V119H323.977V93.6406H331.383L331.875 99.0547ZM330.938 105.453L329.086 105.5C329.086 103.562 329.32 101.836 329.789 100.32C330.258 98.7891 330.922 97.4922 331.781 96.4297C332.641 95.3672 333.664 94.5625 334.852 94.0156C336.055 93.4531 337.391 93.1719 338.859 93.1719C340.031 93.1719 341.102 93.3438 342.07 93.6875C343.055 94.0312 343.898 94.5859 344.602 95.3516C345.32 96.1172 345.867 97.1328 346.242 98.3984C346.633 99.6484 346.828 101.195 346.828 103.039V119H338.883V103.016C338.883 102 338.742 101.227 338.461 100.695C338.18 100.148 337.773 99.7734 337.242 99.5703C336.711 99.3672 336.062 99.2656 335.297 99.2656C334.484 99.2656 333.797 99.4219 333.234 99.7344C332.672 100.047 332.219 100.484 331.875 101.047C331.547 101.594 331.305 102.242 331.148 102.992C331.008 103.742 330.938 104.562 330.938 105.453ZM363.773 108.195H357.047C357.047 106.82 357.141 105.609 357.328 104.562C357.531 103.5 357.875 102.547 358.359 101.703C358.844 100.859 359.5 100.078 360.328 99.3594C361.062 98.75 361.695 98.1641 362.227 97.6016C362.758 97.0391 363.164 96.4688 363.445 95.8906C363.727 95.3125 363.867 94.6953 363.867 94.0391C363.867 93.2266 363.75 92.5625 363.516 92.0469C363.297 91.5312 362.961 91.1484 362.508 90.8984C362.07 90.6328 361.516 90.5 360.844 90.5C360.297 90.5 359.781 90.6328 359.297 90.8984C358.828 91.1641 358.445 91.5781 358.148 92.1406C357.852 92.6875 357.688 93.4141 357.656 94.3203H349.711C349.758 91.9922 350.273 90.1016 351.258 88.6484C352.258 87.1797 353.586 86.1094 355.242 85.4375C356.914 84.75 358.781 84.4062 360.844 84.4062C363.125 84.4062 365.086 84.7578 366.727 85.4609C368.367 86.1641 369.625 87.2109 370.5 88.6016C371.375 89.9766 371.812 91.6719 371.812 93.6875C371.812 95.0312 371.555 96.2031 371.039 97.2031C370.539 98.1875 369.859 99.1094 369 99.9688C368.156 100.812 367.211 101.719 366.164 102.688C365.258 103.484 364.641 104.297 364.312 105.125C363.984 105.938 363.805 106.961 363.773 108.195ZM356.086 115.32C356.086 114.195 356.492 113.258 357.305 112.508C358.117 111.742 359.172 111.359 360.469 111.359C361.766 111.359 362.82 111.742 363.633 112.508C364.445 113.258 364.852 114.195 364.852 115.32C364.852 116.445 364.445 117.391 363.633 118.156C362.82 118.906 361.766 119.281 360.469 119.281C359.172 119.281 358.117 118.906 357.305 118.156C356.492 117.391 356.086 116.445 356.086 115.32Z" fill="black"/>
<path d="M1134 0H1348C1356.28 0 1363 6.71573 1363 15V148C1363 156.284 1356.28 163 1348 163H1134V0Z" fill="#1A96E3"/>
<path d="M1260.62 78.8078C1263.81 78.8078 1266.93 79.7552 1269.59 81.5302C1272.25 83.3052 1274.32 85.8281 1275.54 88.7798C1276.76 91.7315 1277.08 94.9795 1276.46 98.1131C1275.84 101.247 1274.3 104.125 1272.04 106.384C1269.78 108.643 1266.9 110.182 1263.77 110.805C1260.63 111.428 1257.39 111.108 1254.43 109.886C1251.48 108.663 1248.96 106.593 1247.18 103.936C1245.41 101.28 1244.46 98.1565 1244.46 94.9616C1244.46 90.6774 1246.16 86.5686 1249.19 83.5392C1252.22 80.5097 1256.33 78.8078 1260.62 78.8078ZM1260.62 73.4232C1256.36 73.4232 1252.19 74.6864 1248.65 77.0531C1245.11 79.4198 1242.35 82.7836 1240.72 86.7192C1239.09 90.6549 1238.66 94.9855 1239.49 99.1636C1240.32 103.342 1242.37 107.179 1245.39 110.192C1248.4 113.204 1252.24 115.255 1256.41 116.086C1260.59 116.917 1264.92 116.491 1268.86 114.861C1272.79 113.23 1276.16 110.47 1278.52 106.928C1280.89 103.386 1282.15 99.2215 1282.15 94.9616C1282.15 89.2493 1279.88 83.7709 1275.85 79.7317C1271.81 75.6924 1266.33 73.4232 1260.62 73.4232Z" fill="white"/>
<path d="M1274.08 46.4999H1220.23C1218.8 46.4999 1217.43 47.0672 1216.42 48.0771C1215.41 49.0869 1214.85 50.4565 1214.85 51.8845V105.731C1214.85 107.159 1215.41 108.528 1216.42 109.538C1217.43 110.548 1218.8 111.115 1220.23 111.115H1231V105.731H1220.23V68.0383H1279.46V51.8845C1279.46 50.4565 1278.89 49.0869 1277.88 48.0771C1276.87 47.0672 1275.5 46.4999 1274.08 46.4999ZM1220.23 62.6537V51.8845H1274.08V62.6537H1220.23Z" fill="white"/>
<path d="M1255.23 86.8848V103.039L1268.69 94.9617L1255.23 86.8848Z" fill="white"/>
</svg>
